G04*
G04 #@! TF.GenerationSoftware,Altium Limited,Altium Designer,24.7.2 (38)*
G04*
G04 Layer_Physical_Order=2*
G04 Layer_Color=36540*
%FSLAX44Y44*%
%MOMM*%
G71*
G04*
G04 #@! TF.SameCoordinates,47DF3F7B-CD24-4F9F-A129-F279A797EA3D*
G04*
G04*
G04 #@! TF.FilePolarity,Positive*
G04*
G01*
G75*
%ADD45R,1.2000X1.2000*%
%ADD46C,1.2000*%
%ADD56C,1.9500*%
%ADD58C,1.0000*%
%ADD59C,1.5240*%
%ADD61C,4.5000*%
%ADD62C,1.5300*%
%ADD64R,2.1000X2.1000*%
%ADD65C,2.1000*%
%ADD66C,1.2700*%
%ADD67C,0.5000*%
G36*
X2242820Y4542626D02*
X2241550Y4541777D01*
X2240930Y4542034D01*
X2239330D01*
X2237851Y4541422D01*
X2236719Y4540289D01*
X2236106Y4538810D01*
Y4537209D01*
X2236719Y4535731D01*
X2237851Y4534599D01*
X2239330Y4533986D01*
X2240930D01*
X2241550Y4534243D01*
X2242820Y4533394D01*
Y4529626D01*
X2241550Y4528777D01*
X2240930Y4529034D01*
X2239330D01*
X2237851Y4528421D01*
X2236719Y4527289D01*
X2236106Y4525811D01*
Y4524210D01*
X2236719Y4522731D01*
X2237851Y4521599D01*
X2239330Y4520986D01*
X2240930D01*
X2241550Y4521243D01*
X2242820Y4520394D01*
Y4516626D01*
X2241550Y4515777D01*
X2240930Y4516034D01*
X2239330D01*
X2237851Y4515421D01*
X2236719Y4514290D01*
X2236106Y4512810D01*
Y4511210D01*
X2236719Y4509731D01*
X2237851Y4508599D01*
X2239330Y4507986D01*
X2240930D01*
X2241550Y4508242D01*
X2242820Y4507394D01*
Y3580130D01*
X1732280D01*
X1731010Y4676140D01*
X1732280Y4677410D01*
X2242820D01*
Y4542626D01*
D02*
G37*
G36*
X3359150Y4673600D02*
Y4448810D01*
X3439160Y4368800D01*
Y4145368D01*
X3437109Y4144184D01*
X3432636Y4139711D01*
X3429473Y4134233D01*
X3427836Y4128123D01*
Y4121797D01*
X3429473Y4115687D01*
X3432636Y4110209D01*
X3437109Y4105736D01*
X3439811Y4104176D01*
X3439977Y4102917D01*
X3393440Y4056380D01*
Y3585210D01*
X2254250D01*
X2251710Y3587750D01*
Y4507572D01*
X2252330Y4507986D01*
X2253930D01*
X2255409Y4508599D01*
X2256541Y4509731D01*
X2257154Y4511210D01*
Y4512810D01*
X2256541Y4514290D01*
X2255409Y4515421D01*
X2253930Y4516034D01*
X2252330D01*
X2251710Y4516448D01*
Y4520572D01*
X2252330Y4520986D01*
X2253930D01*
X2255409Y4521599D01*
X2256541Y4522731D01*
X2257154Y4524210D01*
Y4525811D01*
X2256541Y4527289D01*
X2255409Y4528421D01*
X2253930Y4529034D01*
X2252330D01*
X2251710Y4529448D01*
Y4533572D01*
X2252330Y4533986D01*
X2253930D01*
X2255409Y4534599D01*
X2256541Y4535731D01*
X2257154Y4537209D01*
Y4538810D01*
X2256541Y4540289D01*
X2255409Y4541422D01*
X2253930Y4542034D01*
X2252330D01*
X2251710Y4542448D01*
Y4675241D01*
X2252609Y4676138D01*
X3359150Y4673600D01*
D02*
G37*
%LPC*%
G36*
X1871139Y4597050D02*
X1870710D01*
Y4589780D01*
X1877980D01*
Y4590209D01*
X1876680Y4593347D01*
X1874277Y4595750D01*
X1871139Y4597050D01*
D02*
G37*
G36*
X1868170D02*
X1867741D01*
X1864603Y4595750D01*
X1862200Y4593347D01*
X1860900Y4590209D01*
Y4589780D01*
X1868170D01*
Y4597050D01*
D02*
G37*
G36*
X1851964Y4596034D02*
X1836916D01*
Y4580986D01*
X1851964D01*
Y4596034D01*
D02*
G37*
G36*
X1877980Y4587240D02*
X1870710D01*
Y4579970D01*
X1871139D01*
X1874277Y4581270D01*
X1876680Y4583672D01*
X1877980Y4586811D01*
Y4587240D01*
D02*
G37*
G36*
X1868170D02*
X1860900D01*
Y4586811D01*
X1862200Y4583672D01*
X1864603Y4581270D01*
X1867741Y4579970D01*
X1868170D01*
Y4587240D01*
D02*
G37*
G36*
X2077023Y4585814D02*
X2072538D01*
X2068394Y4584098D01*
X2065222Y4580926D01*
X2063506Y4576783D01*
Y4572297D01*
X2065222Y4568154D01*
X2068394Y4564982D01*
X2072538Y4563266D01*
X2077023D01*
X2081166Y4564982D01*
X2084338Y4568154D01*
X2086054Y4572297D01*
Y4576783D01*
X2084338Y4580926D01*
X2081166Y4584098D01*
X2077023Y4585814D01*
D02*
G37*
G36*
X2027023D02*
X2022538D01*
X2018394Y4584098D01*
X2015222Y4580926D01*
X2013506Y4576783D01*
Y4572297D01*
X2015222Y4568154D01*
X2018394Y4564982D01*
X2022538Y4563266D01*
X2027023D01*
X2031166Y4564982D01*
X2034338Y4568154D01*
X2036054Y4572297D01*
Y4576783D01*
X2034338Y4580926D01*
X2031166Y4584098D01*
X2027023Y4585814D01*
D02*
G37*
G36*
X2152946Y4537964D02*
X2149814D01*
X2146920Y4536765D01*
X2144705Y4534550D01*
X2143506Y4531656D01*
Y4528524D01*
X2144705Y4525630D01*
X2146920Y4523415D01*
X2149814Y4522216D01*
X2152946D01*
X2155840Y4523415D01*
X2158055Y4525630D01*
X2159254Y4528524D01*
Y4531656D01*
X2158055Y4534550D01*
X2155840Y4536765D01*
X2152946Y4537964D01*
D02*
G37*
G36*
X1915586Y4531750D02*
X1915140D01*
Y4519980D01*
X1926910D01*
Y4520427D01*
X1926021Y4523744D01*
X1924304Y4526717D01*
X1921876Y4529145D01*
X1918903Y4530862D01*
X1915586Y4531750D01*
D02*
G37*
G36*
X1912600D02*
X1912153D01*
X1908836Y4530862D01*
X1905863Y4529145D01*
X1903435Y4526717D01*
X1901718Y4523744D01*
X1900830Y4520427D01*
Y4519980D01*
X1912600D01*
Y4531750D01*
D02*
G37*
G36*
X1794362Y4543384D02*
X1789578D01*
X1785159Y4541554D01*
X1781776Y4538171D01*
X1779946Y4533752D01*
Y4528968D01*
X1781776Y4524549D01*
X1785159Y4521166D01*
X1789578Y4519336D01*
X1794362D01*
X1798781Y4521166D01*
X1802164Y4524549D01*
X1803994Y4528968D01*
Y4533752D01*
X1802164Y4538171D01*
X1798781Y4541554D01*
X1794362Y4543384D01*
D02*
G37*
G36*
X2140448Y4522470D02*
X2139950D01*
Y4514850D01*
X2147570D01*
Y4515348D01*
X2146217Y4518616D01*
X2143716Y4521117D01*
X2140448Y4522470D01*
D02*
G37*
G36*
X2137410D02*
X2136912D01*
X2133644Y4521117D01*
X2131143Y4518616D01*
X2129790Y4515348D01*
Y4514850D01*
X2137410D01*
Y4522470D01*
D02*
G37*
G36*
X1926910Y4517440D02*
X1915140D01*
Y4505670D01*
X1915586D01*
X1918903Y4506559D01*
X1921876Y4508276D01*
X1924304Y4510704D01*
X1926021Y4513677D01*
X1926910Y4516993D01*
Y4517440D01*
D02*
G37*
G36*
X1912600D02*
X1900830D01*
Y4516993D01*
X1901718Y4513677D01*
X1903435Y4510704D01*
X1905863Y4508276D01*
X1908836Y4506559D01*
X1912153Y4505670D01*
X1912600D01*
Y4517440D01*
D02*
G37*
G36*
X2147570Y4512310D02*
X2129790D01*
Y4511812D01*
X2131143Y4508544D01*
X2132898Y4506790D01*
X2133576Y4505960D01*
X2132898Y4505130D01*
X2131143Y4503376D01*
X2129790Y4500108D01*
Y4499610D01*
X2147570D01*
Y4500108D01*
X2146217Y4503376D01*
X2144462Y4505130D01*
X2143784Y4505960D01*
X2144462Y4506790D01*
X2146217Y4508544D01*
X2147570Y4511812D01*
Y4512310D01*
D02*
G37*
G36*
Y4497070D02*
X2139950D01*
Y4489450D01*
X2140448D01*
X2143716Y4490804D01*
X2146217Y4493304D01*
X2147570Y4496572D01*
Y4497070D01*
D02*
G37*
G36*
X2137410D02*
X2129790D01*
Y4496572D01*
X2131143Y4493304D01*
X2133644Y4490804D01*
X2136912Y4489450D01*
X2137410D01*
Y4497070D01*
D02*
G37*
G36*
X1916261Y4495134D02*
X1911478D01*
X1907059Y4493304D01*
X1903676Y4489921D01*
X1901846Y4485502D01*
Y4480718D01*
X1903676Y4476299D01*
X1907059Y4472917D01*
X1911478Y4471086D01*
X1916261D01*
X1920681Y4472917D01*
X1924063Y4476299D01*
X1925894Y4480718D01*
Y4485502D01*
X1924063Y4489921D01*
X1920681Y4493304D01*
X1916261Y4495134D01*
D02*
G37*
G36*
X1925894Y4459534D02*
X1901846D01*
Y4435486D01*
X1925894D01*
Y4459534D01*
D02*
G37*
G36*
X1794362Y4446884D02*
X1789578D01*
X1785159Y4445054D01*
X1781776Y4441671D01*
X1779946Y4437252D01*
Y4432469D01*
X1781776Y4428049D01*
X1785159Y4424667D01*
X1789578Y4422836D01*
X1794362D01*
X1798781Y4424667D01*
X1802164Y4428049D01*
X1803994Y4432469D01*
Y4437252D01*
X1802164Y4441671D01*
X1798781Y4445054D01*
X1794362Y4446884D01*
D02*
G37*
G36*
X2044928Y4407074D02*
X2042332D01*
X2039935Y4406081D01*
X2038099Y4404246D01*
X2037106Y4401848D01*
Y4399252D01*
X2038099Y4396855D01*
X2039935Y4395019D01*
X2040138Y4394935D01*
Y4393665D01*
X2039935Y4393581D01*
X2038099Y4391746D01*
X2037106Y4389348D01*
Y4386752D01*
X2038099Y4384355D01*
X2039935Y4382519D01*
X2042332Y4381526D01*
X2044928D01*
X2047326Y4382519D01*
X2049161Y4384355D01*
X2050154Y4386752D01*
Y4389348D01*
X2049161Y4391746D01*
X2047326Y4393581D01*
X2047122Y4393665D01*
Y4394935D01*
X2047326Y4395019D01*
X2049161Y4396855D01*
X2050154Y4399252D01*
Y4401848D01*
X2049161Y4404246D01*
X2047326Y4406081D01*
X2044928Y4407074D01*
D02*
G37*
G36*
X1883436Y4373784D02*
X1880443D01*
X1877678Y4372639D01*
X1875561Y4370522D01*
X1874416Y4367757D01*
Y4364763D01*
X1875561Y4361998D01*
X1877678Y4359882D01*
X1880443Y4358736D01*
X1883436D01*
X1886202Y4359882D01*
X1888318Y4361998D01*
X1889464Y4364763D01*
Y4367757D01*
X1888318Y4370522D01*
X1886202Y4372639D01*
X1883436Y4373784D01*
D02*
G37*
G36*
X1864464D02*
X1849416D01*
Y4358736D01*
X1864464D01*
Y4373784D01*
D02*
G37*
G36*
X1882638Y4320540D02*
X1882140D01*
Y4312920D01*
X1889760D01*
Y4313418D01*
X1888407Y4316686D01*
X1885906Y4319187D01*
X1882638Y4320540D01*
D02*
G37*
G36*
X1879600D02*
X1879102D01*
X1875834Y4319187D01*
X1873333Y4316686D01*
X1871980Y4313418D01*
Y4312920D01*
X1879600D01*
Y4320540D01*
D02*
G37*
G36*
X1849416Y4323334D02*
X1846284D01*
X1843390Y4322135D01*
X1841175Y4319920D01*
X1839976Y4317026D01*
Y4313894D01*
X1841175Y4311000D01*
X1843390Y4308785D01*
X1846284Y4307586D01*
X1849416D01*
X1852310Y4308785D01*
X1854525Y4311000D01*
X1855724Y4313894D01*
Y4317026D01*
X1854525Y4319920D01*
X1852310Y4322135D01*
X1849416Y4323334D01*
D02*
G37*
G36*
X1889760Y4310380D02*
X1882140D01*
Y4302760D01*
X1882638D01*
X1885906Y4304113D01*
X1888407Y4306614D01*
X1889760Y4309882D01*
Y4310380D01*
D02*
G37*
G36*
X1879600D02*
X1871980D01*
Y4309882D01*
X1873333Y4306614D01*
X1875834Y4304113D01*
X1879102Y4302760D01*
X1879600D01*
Y4310380D01*
D02*
G37*
G36*
X2097066Y4313174D02*
X2093934D01*
X2091040Y4311975D01*
X2088825Y4309760D01*
X2087626Y4306866D01*
Y4303734D01*
X2088825Y4300840D01*
X2091040Y4298625D01*
X2093934Y4297426D01*
X2097066D01*
X2099960Y4298625D01*
X2102175Y4300840D01*
X2103374Y4303734D01*
Y4306866D01*
X2102175Y4309760D01*
X2099960Y4311975D01*
X2097066Y4313174D01*
D02*
G37*
G36*
X1839256Y4206494D02*
X1836124D01*
X1833230Y4205295D01*
X1831015Y4203080D01*
X1829816Y4200186D01*
Y4197054D01*
X1831015Y4194160D01*
X1833230Y4191945D01*
X1836124Y4190746D01*
X1839256D01*
X1842150Y4191945D01*
X1844365Y4194160D01*
X1845564Y4197054D01*
Y4200186D01*
X1844365Y4203080D01*
X1842150Y4205295D01*
X1839256Y4206494D01*
D02*
G37*
G36*
X2130086Y4203954D02*
X2126954D01*
X2124060Y4202755D01*
X2121845Y4200540D01*
X2120646Y4197646D01*
Y4194514D01*
X2121845Y4191620D01*
X2124060Y4189405D01*
X2126954Y4188206D01*
X2130086D01*
X2132980Y4189405D01*
X2135195Y4191620D01*
X2136394Y4194514D01*
Y4197646D01*
X2135195Y4200540D01*
X2132980Y4202755D01*
X2130086Y4203954D01*
D02*
G37*
G36*
X2075476Y4163314D02*
X2072344D01*
X2069450Y4162115D01*
X2067235Y4159900D01*
X2066036Y4157006D01*
Y4153874D01*
X2067235Y4150980D01*
X2069450Y4148765D01*
X2072344Y4147566D01*
X2075476D01*
X2078370Y4148765D01*
X2080585Y4150980D01*
X2081784Y4153874D01*
Y4157006D01*
X2080585Y4159900D01*
X2078370Y4162115D01*
X2075476Y4163314D01*
D02*
G37*
G36*
X2033566Y4079494D02*
X2030434D01*
X2027540Y4078295D01*
X2025325Y4076080D01*
X2024126Y4073186D01*
Y4070054D01*
X2025325Y4067160D01*
X2027540Y4064945D01*
X2030434Y4063746D01*
X2033566D01*
X2036460Y4064945D01*
X2038675Y4067160D01*
X2039874Y4070054D01*
Y4073186D01*
X2038675Y4076080D01*
X2036460Y4078295D01*
X2033566Y4079494D01*
D02*
G37*
G36*
X1971595Y4071904D02*
X1967945D01*
X1964573Y4070508D01*
X1961993Y4067927D01*
X1960596Y4064555D01*
Y4060905D01*
X1961993Y4057533D01*
X1964573Y4054953D01*
X1967945Y4053556D01*
X1971595D01*
X1974967Y4054953D01*
X1977547Y4057533D01*
X1978944Y4060905D01*
Y4064555D01*
X1977547Y4067927D01*
X1974967Y4070508D01*
X1971595Y4071904D01*
D02*
G37*
G36*
X1768395D02*
X1764745D01*
X1761373Y4070508D01*
X1758793Y4067927D01*
X1757396Y4064555D01*
Y4060905D01*
X1758793Y4057533D01*
X1761373Y4054953D01*
X1764745Y4053556D01*
X1768395D01*
X1771767Y4054953D01*
X1774347Y4057533D01*
X1775744Y4060905D01*
Y4064555D01*
X1774347Y4067927D01*
X1771767Y4070508D01*
X1768395Y4071904D01*
D02*
G37*
G36*
X1971595Y4046504D02*
X1967945D01*
X1964573Y4045107D01*
X1961993Y4042527D01*
X1960596Y4039155D01*
Y4035505D01*
X1961993Y4032133D01*
X1964573Y4029553D01*
X1967945Y4028156D01*
X1971595D01*
X1974967Y4029553D01*
X1977547Y4032133D01*
X1978944Y4035505D01*
Y4039155D01*
X1977547Y4042527D01*
X1974967Y4045107D01*
X1971595Y4046504D01*
D02*
G37*
G36*
X1768395D02*
X1764745D01*
X1761373Y4045107D01*
X1758793Y4042527D01*
X1757396Y4039155D01*
Y4035505D01*
X1758793Y4032133D01*
X1761373Y4029553D01*
X1764745Y4028156D01*
X1768395D01*
X1771767Y4029553D01*
X1774347Y4032133D01*
X1775744Y4035505D01*
Y4039155D01*
X1774347Y4042527D01*
X1771767Y4045107D01*
X1768395Y4046504D01*
D02*
G37*
G36*
X1971595Y4021104D02*
X1967945D01*
X1964573Y4019707D01*
X1961993Y4017127D01*
X1960596Y4013755D01*
Y4010105D01*
X1961993Y4006733D01*
X1964573Y4004153D01*
X1967945Y4002756D01*
X1971595D01*
X1974967Y4004153D01*
X1977547Y4006733D01*
X1978944Y4010105D01*
Y4013755D01*
X1977547Y4017127D01*
X1974967Y4019707D01*
X1971595Y4021104D01*
D02*
G37*
G36*
X1768395D02*
X1764745D01*
X1761373Y4019707D01*
X1758793Y4017127D01*
X1757396Y4013755D01*
Y4010105D01*
X1758793Y4006733D01*
X1761373Y4004153D01*
X1764745Y4002756D01*
X1768395D01*
X1771767Y4004153D01*
X1774347Y4006733D01*
X1775744Y4010105D01*
Y4013755D01*
X1774347Y4017127D01*
X1771767Y4019707D01*
X1768395Y4021104D01*
D02*
G37*
G36*
X1971595Y3995704D02*
X1967945D01*
X1964573Y3994307D01*
X1961993Y3991727D01*
X1960596Y3988355D01*
Y3984705D01*
X1961993Y3981333D01*
X1964573Y3978753D01*
X1967945Y3977356D01*
X1971595D01*
X1974967Y3978753D01*
X1977547Y3981333D01*
X1978944Y3984705D01*
Y3988355D01*
X1977547Y3991727D01*
X1974967Y3994307D01*
X1971595Y3995704D01*
D02*
G37*
G36*
X1768395D02*
X1764745D01*
X1761373Y3994307D01*
X1758793Y3991727D01*
X1757396Y3988355D01*
Y3984705D01*
X1758793Y3981333D01*
X1761373Y3978753D01*
X1764745Y3977356D01*
X1768395D01*
X1771767Y3978753D01*
X1774347Y3981333D01*
X1775744Y3984705D01*
Y3988355D01*
X1774347Y3991727D01*
X1771767Y3994307D01*
X1768395Y3995704D01*
D02*
G37*
G36*
X2054660Y3968670D02*
X2054430D01*
X2051659Y3967522D01*
X2049791Y3965654D01*
X2049538Y3965401D01*
X2048228Y3965558D01*
X2047126Y3966661D01*
X2044728Y3967654D01*
X2042132D01*
X2039734Y3966661D01*
X2037899Y3964825D01*
X2036906Y3962428D01*
Y3959832D01*
X2037899Y3957434D01*
X2039734Y3955599D01*
X2042132Y3954606D01*
X2044728D01*
X2047126Y3955599D01*
X2048228Y3956702D01*
X2049538Y3956859D01*
X2049791Y3956606D01*
X2051659Y3954738D01*
X2054430Y3953590D01*
X2054660D01*
Y3961130D01*
Y3968670D01*
D02*
G37*
G36*
X2057430D02*
X2057200D01*
Y3962400D01*
X2063470D01*
Y3962630D01*
X2062322Y3965401D01*
X2060201Y3967522D01*
X2057430Y3968670D01*
D02*
G37*
G36*
X2063470Y3959860D02*
X2057200D01*
Y3953590D01*
X2057430D01*
X2060201Y3954738D01*
X2062322Y3956859D01*
X2063470Y3959630D01*
Y3959860D01*
D02*
G37*
G36*
X1824016Y3969004D02*
X1820884D01*
X1817990Y3967805D01*
X1815775Y3965590D01*
X1814576Y3962696D01*
Y3959564D01*
X1815775Y3956670D01*
X1817990Y3954455D01*
X1820884Y3953256D01*
X1824016D01*
X1826910Y3954455D01*
X1829125Y3956670D01*
X1830324Y3959564D01*
Y3962696D01*
X1829125Y3965590D01*
X1826910Y3967805D01*
X1824016Y3969004D01*
D02*
G37*
G36*
X1971595Y3970304D02*
X1967945D01*
X1964573Y3968907D01*
X1961993Y3966327D01*
X1960596Y3962955D01*
Y3959305D01*
X1961993Y3955933D01*
X1964573Y3953353D01*
X1967945Y3951956D01*
X1971595D01*
X1974967Y3953353D01*
X1977547Y3955933D01*
X1978944Y3959305D01*
Y3962955D01*
X1977547Y3966327D01*
X1974967Y3968907D01*
X1971595Y3970304D01*
D02*
G37*
G36*
X1768395D02*
X1764745D01*
X1761373Y3968907D01*
X1758793Y3966327D01*
X1757396Y3962955D01*
Y3959305D01*
X1758793Y3955933D01*
X1761373Y3953353D01*
X1764745Y3951956D01*
X1768395D01*
X1771767Y3953353D01*
X1774347Y3955933D01*
X1775744Y3959305D01*
Y3962955D01*
X1774347Y3966327D01*
X1771767Y3968907D01*
X1768395Y3970304D01*
D02*
G37*
G36*
X1971595Y3944904D02*
X1967945D01*
X1964573Y3943507D01*
X1961993Y3940927D01*
X1960596Y3937555D01*
Y3933905D01*
X1961993Y3930533D01*
X1964573Y3927953D01*
X1967945Y3926556D01*
X1971595D01*
X1974967Y3927953D01*
X1977547Y3930533D01*
X1978944Y3933905D01*
Y3937555D01*
X1977547Y3940927D01*
X1974967Y3943507D01*
X1971595Y3944904D01*
D02*
G37*
G36*
X1768395D02*
X1764745D01*
X1761373Y3943507D01*
X1758793Y3940927D01*
X1757396Y3937555D01*
Y3933905D01*
X1758793Y3930533D01*
X1761373Y3927953D01*
X1764745Y3926556D01*
X1768395D01*
X1771767Y3927953D01*
X1774347Y3930533D01*
X1775744Y3933905D01*
Y3937555D01*
X1774347Y3940927D01*
X1771767Y3943507D01*
X1768395Y3944904D01*
D02*
G37*
G36*
X1971595Y3919504D02*
X1967945D01*
X1964573Y3918107D01*
X1961993Y3915527D01*
X1960596Y3912155D01*
Y3908505D01*
X1961993Y3905133D01*
X1964573Y3902552D01*
X1967945Y3901156D01*
X1971595D01*
X1974967Y3902552D01*
X1977547Y3905133D01*
X1978944Y3908505D01*
Y3912155D01*
X1977547Y3915527D01*
X1974967Y3918107D01*
X1971595Y3919504D01*
D02*
G37*
G36*
X1768395D02*
X1764745D01*
X1761373Y3918107D01*
X1758793Y3915527D01*
X1757396Y3912155D01*
Y3908505D01*
X1758793Y3905133D01*
X1761373Y3902552D01*
X1764745Y3901156D01*
X1768395D01*
X1771767Y3902552D01*
X1774347Y3905133D01*
X1775744Y3908505D01*
Y3912155D01*
X1774347Y3915527D01*
X1771767Y3918107D01*
X1768395Y3919504D01*
D02*
G37*
G36*
X1971595Y3894104D02*
X1967945D01*
X1964573Y3892708D01*
X1961993Y3890127D01*
X1960596Y3886755D01*
Y3883105D01*
X1961993Y3879733D01*
X1964573Y3877153D01*
X1967945Y3875756D01*
X1971595D01*
X1974967Y3877153D01*
X1977547Y3879733D01*
X1978944Y3883105D01*
Y3886755D01*
X1977547Y3890127D01*
X1974967Y3892708D01*
X1971595Y3894104D01*
D02*
G37*
G36*
X1768395D02*
X1764745D01*
X1761373Y3892708D01*
X1758793Y3890127D01*
X1757396Y3886755D01*
Y3883105D01*
X1758793Y3879733D01*
X1761373Y3877153D01*
X1764745Y3875756D01*
X1768395D01*
X1771767Y3877153D01*
X1774347Y3879733D01*
X1775744Y3883105D01*
Y3886755D01*
X1774347Y3890127D01*
X1771767Y3892708D01*
X1768395Y3894104D01*
D02*
G37*
G36*
X1971595Y3868704D02*
X1967945D01*
X1964573Y3867307D01*
X1961993Y3864727D01*
X1960596Y3861355D01*
Y3857705D01*
X1961993Y3854333D01*
X1964573Y3851753D01*
X1967945Y3850356D01*
X1971595D01*
X1974967Y3851753D01*
X1977547Y3854333D01*
X1978944Y3857705D01*
Y3861355D01*
X1977547Y3864727D01*
X1974967Y3867307D01*
X1971595Y3868704D01*
D02*
G37*
G36*
X1768395D02*
X1764745D01*
X1761373Y3867307D01*
X1758793Y3864727D01*
X1757396Y3861355D01*
Y3857705D01*
X1758793Y3854333D01*
X1761373Y3851753D01*
X1764745Y3850356D01*
X1768395D01*
X1771767Y3851753D01*
X1774347Y3854333D01*
X1775744Y3857705D01*
Y3861355D01*
X1774347Y3864727D01*
X1771767Y3867307D01*
X1768395Y3868704D01*
D02*
G37*
G36*
X1971595Y3843304D02*
X1967945D01*
X1964573Y3841907D01*
X1961993Y3839327D01*
X1960596Y3835955D01*
Y3832305D01*
X1961993Y3828933D01*
X1964573Y3826353D01*
X1967945Y3824956D01*
X1971595D01*
X1974967Y3826353D01*
X1977547Y3828933D01*
X1978944Y3832305D01*
Y3835955D01*
X1977547Y3839327D01*
X1974967Y3841907D01*
X1971595Y3843304D01*
D02*
G37*
G36*
X1768395D02*
X1764745D01*
X1761373Y3841907D01*
X1758793Y3839327D01*
X1757396Y3835955D01*
Y3832305D01*
X1758793Y3828933D01*
X1761373Y3826353D01*
X1764745Y3824956D01*
X1768395D01*
X1771767Y3826353D01*
X1774347Y3828933D01*
X1775744Y3832305D01*
Y3835955D01*
X1774347Y3839327D01*
X1771767Y3841907D01*
X1768395Y3843304D01*
D02*
G37*
G36*
X1971595Y3817904D02*
X1967945D01*
X1964573Y3816507D01*
X1961993Y3813927D01*
X1960596Y3810555D01*
Y3806905D01*
X1961993Y3803533D01*
X1964573Y3800952D01*
X1967945Y3799556D01*
X1971595D01*
X1974967Y3800952D01*
X1977547Y3803533D01*
X1978944Y3806905D01*
Y3810555D01*
X1977547Y3813927D01*
X1974967Y3816507D01*
X1971595Y3817904D01*
D02*
G37*
G36*
X1768395D02*
X1764745D01*
X1761373Y3816507D01*
X1758793Y3813927D01*
X1757396Y3810555D01*
Y3806905D01*
X1758793Y3803533D01*
X1761373Y3800952D01*
X1764745Y3799556D01*
X1768395D01*
X1771767Y3800952D01*
X1774347Y3803533D01*
X1775744Y3806905D01*
Y3810555D01*
X1774347Y3813927D01*
X1771767Y3816507D01*
X1768395Y3817904D01*
D02*
G37*
G36*
X1971595Y3792504D02*
X1967945D01*
X1964573Y3791107D01*
X1961993Y3788527D01*
X1960596Y3785155D01*
Y3781505D01*
X1961993Y3778133D01*
X1964573Y3775553D01*
X1967945Y3774156D01*
X1971595D01*
X1974967Y3775553D01*
X1977547Y3778133D01*
X1978944Y3781505D01*
Y3785155D01*
X1977547Y3788527D01*
X1974967Y3791107D01*
X1971595Y3792504D01*
D02*
G37*
G36*
X1768395D02*
X1764745D01*
X1761373Y3791107D01*
X1758793Y3788527D01*
X1757396Y3785155D01*
Y3781505D01*
X1758793Y3778133D01*
X1761373Y3775553D01*
X1764745Y3774156D01*
X1768395D01*
X1771767Y3775553D01*
X1774347Y3778133D01*
X1775744Y3781505D01*
Y3785155D01*
X1774347Y3788527D01*
X1771767Y3791107D01*
X1768395Y3792504D01*
D02*
G37*
G36*
X1971595Y3767104D02*
X1967945D01*
X1964573Y3765707D01*
X1961993Y3763127D01*
X1960596Y3759755D01*
Y3756105D01*
X1961993Y3752733D01*
X1964573Y3750153D01*
X1967945Y3748756D01*
X1971595D01*
X1974967Y3750153D01*
X1977547Y3752733D01*
X1978944Y3756105D01*
Y3759755D01*
X1977547Y3763127D01*
X1974967Y3765707D01*
X1971595Y3767104D01*
D02*
G37*
G36*
Y3741704D02*
X1967945D01*
X1964573Y3740307D01*
X1961993Y3737727D01*
X1960596Y3734355D01*
Y3730705D01*
X1961993Y3727333D01*
X1964573Y3724753D01*
X1967945Y3723356D01*
X1971595D01*
X1974967Y3724753D01*
X1977547Y3727333D01*
X1978944Y3730705D01*
Y3734355D01*
X1977547Y3737727D01*
X1974967Y3740307D01*
X1971595Y3741704D01*
D02*
G37*
G36*
Y3716304D02*
X1967945D01*
X1964573Y3714908D01*
X1961993Y3712327D01*
X1960596Y3708955D01*
Y3705305D01*
X1961993Y3701933D01*
X1964573Y3699353D01*
X1967945Y3697956D01*
X1971595D01*
X1974967Y3699353D01*
X1977547Y3701933D01*
X1978944Y3705305D01*
Y3708955D01*
X1977547Y3712327D01*
X1974967Y3714908D01*
X1971595Y3716304D01*
D02*
G37*
G36*
Y3690904D02*
X1967945D01*
X1964573Y3689507D01*
X1961993Y3686927D01*
X1960596Y3683555D01*
Y3679905D01*
X1961993Y3676533D01*
X1964573Y3673953D01*
X1967945Y3672556D01*
X1971595D01*
X1974967Y3673953D01*
X1977547Y3676533D01*
X1978944Y3679905D01*
Y3683555D01*
X1977547Y3686927D01*
X1974967Y3689507D01*
X1971595Y3690904D01*
D02*
G37*
G36*
X3315451Y4607560D02*
X3314700D01*
Y4598670D01*
X3323590D01*
Y4599421D01*
X3322043Y4603155D01*
X3319185Y4606013D01*
X3315451Y4607560D01*
D02*
G37*
G36*
X3312160D02*
X3311409D01*
X3307675Y4606013D01*
X3304817Y4603155D01*
X3303270Y4599421D01*
Y4598670D01*
X3312160D01*
Y4607560D01*
D02*
G37*
G36*
X2770681Y4597445D02*
X2769930D01*
Y4588556D01*
X2778820D01*
Y4589307D01*
X2777273Y4593041D01*
X2774415Y4595899D01*
X2770681Y4597445D01*
D02*
G37*
G36*
X2767390D02*
X2766639D01*
X2762905Y4595899D01*
X2760046Y4593041D01*
X2758500Y4589307D01*
Y4588556D01*
X2767390D01*
Y4597445D01*
D02*
G37*
G36*
X3323590Y4596130D02*
X3314700D01*
Y4587240D01*
X3315451D01*
X3319185Y4588787D01*
X3322043Y4591645D01*
X3323590Y4595379D01*
Y4596130D01*
D02*
G37*
G36*
X3312160D02*
X3303270D01*
Y4595379D01*
X3304817Y4591645D01*
X3307675Y4588787D01*
X3311409Y4587240D01*
X3312160D01*
Y4596130D01*
D02*
G37*
G36*
X2778820Y4586016D02*
X2769930D01*
Y4577126D01*
X2770681D01*
X2774415Y4578672D01*
X2777273Y4581530D01*
X2778820Y4585265D01*
Y4586016D01*
D02*
G37*
G36*
X2767390D02*
X2758500D01*
Y4585265D01*
X2760046Y4581530D01*
X2762905Y4578672D01*
X2766639Y4577126D01*
X2767390D01*
Y4586016D01*
D02*
G37*
G36*
X3315249Y4581144D02*
X3311611D01*
X3308250Y4579752D01*
X3305678Y4577180D01*
X3304286Y4573819D01*
Y4570181D01*
X3305678Y4566820D01*
X3308250Y4564248D01*
X3311611Y4562856D01*
X3315249D01*
X3318610Y4564248D01*
X3321182Y4566820D01*
X3322574Y4570181D01*
Y4573819D01*
X3321182Y4577180D01*
X3318610Y4579752D01*
X3315249Y4581144D01*
D02*
G37*
G36*
X2330948Y4561840D02*
X2330450D01*
Y4554220D01*
X2338070D01*
Y4554718D01*
X2336717Y4557986D01*
X2334216Y4560486D01*
X2330948Y4561840D01*
D02*
G37*
G36*
X2327910D02*
X2327412D01*
X2324144Y4560486D01*
X2321643Y4557986D01*
X2320290Y4554718D01*
Y4554220D01*
X2327910D01*
Y4561840D01*
D02*
G37*
G36*
X2770479Y4571029D02*
X2766841D01*
X2763480Y4569637D01*
X2760908Y4567065D01*
X2759516Y4563705D01*
Y4560067D01*
X2760908Y4556706D01*
X2763480Y4554134D01*
X2766841Y4552741D01*
X2770479D01*
X2773839Y4554134D01*
X2776412Y4556706D01*
X2777804Y4560067D01*
Y4563705D01*
X2776412Y4567065D01*
X2773839Y4569637D01*
X2770479Y4571029D01*
D02*
G37*
G36*
X2338070Y4551680D02*
X2330450D01*
Y4544060D01*
X2330948D01*
X2334216Y4545414D01*
X2336717Y4547914D01*
X2338070Y4551182D01*
Y4551680D01*
D02*
G37*
G36*
X2327910D02*
X2320290D01*
Y4551182D01*
X2321643Y4547914D01*
X2324144Y4545414D01*
X2327412Y4544060D01*
X2327910D01*
Y4551680D01*
D02*
G37*
G36*
X3315249Y4555744D02*
X3311611D01*
X3308250Y4554352D01*
X3305678Y4551780D01*
X3304286Y4548419D01*
Y4544781D01*
X3305678Y4541420D01*
X3308250Y4538848D01*
X3311611Y4537456D01*
X3315249D01*
X3318610Y4538848D01*
X3321182Y4541420D01*
X3322574Y4544781D01*
Y4548419D01*
X3321182Y4551780D01*
X3318610Y4554352D01*
X3315249Y4555744D01*
D02*
G37*
G36*
X2305548Y4540250D02*
X2305050D01*
Y4532630D01*
X2312670D01*
Y4533128D01*
X2311317Y4536396D01*
X2308816Y4538896D01*
X2305548Y4540250D01*
D02*
G37*
G36*
X2302510D02*
X2302012D01*
X2298744Y4538896D01*
X2296243Y4536396D01*
X2294890Y4533128D01*
Y4532630D01*
X2302510D01*
Y4540250D01*
D02*
G37*
G36*
X2770479Y4545630D02*
X2766841D01*
X2763480Y4544237D01*
X2760908Y4541665D01*
X2759516Y4538304D01*
Y4534667D01*
X2760908Y4531306D01*
X2763480Y4528734D01*
X2766841Y4527342D01*
X2770479D01*
X2773839Y4528734D01*
X2776412Y4531306D01*
X2777804Y4534667D01*
Y4538304D01*
X2776412Y4541665D01*
X2773839Y4544237D01*
X2770479Y4545630D01*
D02*
G37*
G36*
X2312670Y4530090D02*
X2305050D01*
Y4522470D01*
X2305548D01*
X2308816Y4523824D01*
X2311317Y4526324D01*
X2312670Y4529592D01*
Y4530090D01*
D02*
G37*
G36*
X2302510D02*
X2294890D01*
Y4529592D01*
X2296243Y4526324D01*
X2298744Y4523824D01*
X2302012Y4522470D01*
X2302510D01*
Y4530090D01*
D02*
G37*
G36*
X2329678Y4525010D02*
X2329180D01*
Y4517390D01*
X2336800D01*
Y4517888D01*
X2335447Y4521156D01*
X2332946Y4523657D01*
X2329678Y4525010D01*
D02*
G37*
G36*
X2326640D02*
X2326142D01*
X2322874Y4523657D01*
X2320373Y4521156D01*
X2319020Y4517888D01*
Y4517390D01*
X2326640D01*
Y4525010D01*
D02*
G37*
G36*
X2530591Y4521200D02*
X2529840D01*
Y4512310D01*
X2538730D01*
Y4513061D01*
X2537183Y4516795D01*
X2534325Y4519653D01*
X2530591Y4521200D01*
D02*
G37*
G36*
X2527300D02*
X2526549D01*
X2522815Y4519653D01*
X2519957Y4516795D01*
X2518410Y4513061D01*
Y4512310D01*
X2527300D01*
Y4521200D01*
D02*
G37*
G36*
X3315249Y4530344D02*
X3311611D01*
X3308250Y4528952D01*
X3305678Y4526380D01*
X3304286Y4523019D01*
Y4519381D01*
X3305678Y4516020D01*
X3308250Y4513448D01*
X3311611Y4512056D01*
X3315249D01*
X3318610Y4513448D01*
X3321182Y4516020D01*
X3322574Y4519381D01*
Y4523019D01*
X3321182Y4526380D01*
X3318610Y4528952D01*
X3315249Y4530344D01*
D02*
G37*
G36*
X2336800Y4514850D02*
X2329180D01*
Y4507230D01*
X2329678D01*
X2332946Y4508583D01*
X2335447Y4511084D01*
X2336800Y4514352D01*
Y4514850D01*
D02*
G37*
G36*
X2326640D02*
X2319020D01*
Y4514352D01*
X2320373Y4511084D01*
X2322874Y4508583D01*
X2326142Y4507230D01*
X2326640D01*
Y4514850D01*
D02*
G37*
G36*
X3084109Y4522724D02*
X3080471D01*
X3077110Y4521332D01*
X3074538Y4518760D01*
X3073146Y4515399D01*
Y4511761D01*
X3074538Y4508400D01*
X3077110Y4505828D01*
X3080471Y4504436D01*
X3084109D01*
X3087470Y4505828D01*
X3090042Y4508400D01*
X3091434Y4511761D01*
Y4515399D01*
X3090042Y4518760D01*
X3087470Y4521332D01*
X3084109Y4522724D01*
D02*
G37*
G36*
X2770479Y4520229D02*
X2766841D01*
X2763480Y4518837D01*
X2760908Y4516265D01*
X2759516Y4512904D01*
Y4509267D01*
X2760908Y4505906D01*
X2763480Y4503334D01*
X2766841Y4501942D01*
X2770479D01*
X2773839Y4503334D01*
X2776412Y4505906D01*
X2777804Y4509267D01*
Y4512904D01*
X2776412Y4516265D01*
X2773839Y4518837D01*
X2770479Y4520229D01*
D02*
G37*
G36*
X2538730Y4509770D02*
X2529840D01*
Y4500880D01*
X2530591D01*
X2534325Y4502427D01*
X2537183Y4505285D01*
X2538730Y4509019D01*
Y4509770D01*
D02*
G37*
G36*
X2527300D02*
X2518410D01*
Y4509019D01*
X2519957Y4505285D01*
X2522815Y4502427D01*
X2526549Y4500880D01*
X2527300D01*
Y4509770D01*
D02*
G37*
G36*
X3084109Y4497324D02*
X3080471D01*
X3077110Y4495932D01*
X3074538Y4493360D01*
X3073146Y4489999D01*
Y4486361D01*
X3074538Y4483000D01*
X3077110Y4480428D01*
X3080471Y4479036D01*
X3084109D01*
X3087470Y4480428D01*
X3090042Y4483000D01*
X3091434Y4486361D01*
Y4489999D01*
X3090042Y4493360D01*
X3087470Y4495932D01*
X3084109Y4497324D01*
D02*
G37*
G36*
X2530389Y4494784D02*
X2526751D01*
X2523390Y4493392D01*
X2520818Y4490820D01*
X2519426Y4487459D01*
Y4483821D01*
X2520818Y4480460D01*
X2523390Y4477888D01*
X2526751Y4476496D01*
X2530389D01*
X2533750Y4477888D01*
X2536322Y4480460D01*
X2537714Y4483821D01*
Y4487459D01*
X2536322Y4490820D01*
X2533750Y4493392D01*
X2530389Y4494784D01*
D02*
G37*
G36*
X3084109Y4471924D02*
X3080471D01*
X3077110Y4470532D01*
X3074538Y4467960D01*
X3073146Y4464599D01*
Y4460961D01*
X3074538Y4457600D01*
X3077110Y4455028D01*
X3080471Y4453636D01*
X3084109D01*
X3087470Y4455028D01*
X3090042Y4457600D01*
X3091434Y4460961D01*
Y4464599D01*
X3090042Y4467960D01*
X3087470Y4470532D01*
X3084109Y4471924D01*
D02*
G37*
G36*
X2530389Y4469384D02*
X2526751D01*
X2523390Y4467992D01*
X2520818Y4465420D01*
X2519426Y4462059D01*
Y4458421D01*
X2520818Y4455060D01*
X2523390Y4452488D01*
X2526751Y4451096D01*
X2530389D01*
X2533750Y4452488D01*
X2536322Y4455060D01*
X2537714Y4458421D01*
Y4462059D01*
X2536322Y4465420D01*
X2533750Y4467992D01*
X2530389Y4469384D01*
D02*
G37*
G36*
X3084311Y4447540D02*
X3083560D01*
Y4438650D01*
X3092450D01*
Y4439401D01*
X3090903Y4443135D01*
X3088045Y4445993D01*
X3084311Y4447540D01*
D02*
G37*
G36*
X3081020D02*
X3080269D01*
X3076535Y4445993D01*
X3073677Y4443135D01*
X3072130Y4439401D01*
Y4438650D01*
X3081020D01*
Y4447540D01*
D02*
G37*
G36*
X3092450Y4436110D02*
X3083560D01*
Y4427220D01*
X3084311D01*
X3088045Y4428767D01*
X3090903Y4431625D01*
X3092450Y4435359D01*
Y4436110D01*
D02*
G37*
G36*
X3081020D02*
X3072130D01*
Y4435359D01*
X3073677Y4431625D01*
X3076535Y4428767D01*
X3080269Y4427220D01*
X3081020D01*
Y4436110D01*
D02*
G37*
G36*
X2530389Y4443984D02*
X2526751D01*
X2523390Y4442592D01*
X2520818Y4440020D01*
X2519426Y4436659D01*
Y4433021D01*
X2520818Y4429660D01*
X2523390Y4427088D01*
X2526751Y4425696D01*
X2530389D01*
X2533750Y4427088D01*
X2536322Y4429660D01*
X2537714Y4433021D01*
Y4436659D01*
X2536322Y4440020D01*
X2533750Y4442592D01*
X2530389Y4443984D01*
D02*
G37*
G36*
X2773221Y4339636D02*
X2772470D01*
Y4330746D01*
X2781360D01*
Y4331497D01*
X2779813Y4335231D01*
X2776955Y4338089D01*
X2773221Y4339636D01*
D02*
G37*
G36*
X2769930D02*
X2769179D01*
X2765445Y4338089D01*
X2762586Y4335231D01*
X2761040Y4331497D01*
Y4330746D01*
X2769930D01*
Y4339636D01*
D02*
G37*
G36*
X2781360Y4328206D02*
X2772470D01*
Y4319315D01*
X2773221D01*
X2776955Y4320862D01*
X2779813Y4323720D01*
X2781360Y4327455D01*
Y4328206D01*
D02*
G37*
G36*
X2769930D02*
X2761040D01*
Y4327455D01*
X2762586Y4323720D01*
X2765445Y4320862D01*
X2769179Y4319315D01*
X2769930D01*
Y4328206D01*
D02*
G37*
G36*
X2773018Y4313220D02*
X2769381D01*
X2766020Y4311827D01*
X2763448Y4309255D01*
X2762056Y4305894D01*
Y4302257D01*
X2763448Y4298896D01*
X2766020Y4296324D01*
X2769381Y4294932D01*
X2773018D01*
X2776379Y4296324D01*
X2778952Y4298896D01*
X2780344Y4302257D01*
Y4305894D01*
X2778952Y4309255D01*
X2776379Y4311827D01*
X2773018Y4313220D01*
D02*
G37*
G36*
Y4287820D02*
X2769381D01*
X2766020Y4286427D01*
X2763448Y4283855D01*
X2762056Y4280494D01*
Y4276857D01*
X2763448Y4273496D01*
X2766020Y4270923D01*
X2769381Y4269532D01*
X2773018D01*
X2776379Y4270923D01*
X2778952Y4273496D01*
X2780344Y4276857D01*
Y4280494D01*
X2778952Y4283855D01*
X2776379Y4286427D01*
X2773018Y4287820D01*
D02*
G37*
G36*
Y4262419D02*
X2769381D01*
X2766020Y4261028D01*
X2763448Y4258455D01*
X2762056Y4255094D01*
Y4251457D01*
X2763448Y4248096D01*
X2766020Y4245524D01*
X2769381Y4244131D01*
X2773018D01*
X2776379Y4245524D01*
X2778952Y4248096D01*
X2780344Y4251457D01*
Y4255094D01*
X2778952Y4258455D01*
X2776379Y4261028D01*
X2773018Y4262419D01*
D02*
G37*
G36*
X3338109Y4214114D02*
X3334471D01*
X3331110Y4212722D01*
X3328538Y4210150D01*
X3327146Y4206789D01*
Y4203151D01*
X3328538Y4199790D01*
X3331110Y4197218D01*
X3334471Y4195826D01*
X3338109D01*
X3341470Y4197218D01*
X3344042Y4199790D01*
X3345434Y4203151D01*
Y4206789D01*
X3344042Y4210150D01*
X3341470Y4212722D01*
X3338109Y4214114D01*
D02*
G37*
G36*
X2525511Y4203700D02*
X2524760D01*
Y4194810D01*
X2533650D01*
Y4195561D01*
X2532103Y4199295D01*
X2529245Y4202153D01*
X2525511Y4203700D01*
D02*
G37*
G36*
X2522220D02*
X2521469D01*
X2517735Y4202153D01*
X2514877Y4199295D01*
X2513330Y4195561D01*
Y4194810D01*
X2522220D01*
Y4203700D01*
D02*
G37*
G36*
X2533650Y4192270D02*
X2524760D01*
Y4183380D01*
X2525511D01*
X2529245Y4184927D01*
X2532103Y4187785D01*
X2533650Y4191519D01*
Y4192270D01*
D02*
G37*
G36*
X2522220D02*
X2513330D01*
Y4191519D01*
X2514877Y4187785D01*
X2517735Y4184927D01*
X2521469Y4183380D01*
X2522220D01*
Y4192270D01*
D02*
G37*
G36*
X3338109Y4188714D02*
X3334471D01*
X3331110Y4187322D01*
X3328538Y4184750D01*
X3327146Y4181389D01*
Y4177751D01*
X3328538Y4174390D01*
X3331110Y4171818D01*
X3334471Y4170426D01*
X3338109D01*
X3341470Y4171818D01*
X3344042Y4174390D01*
X3345434Y4177751D01*
Y4181389D01*
X3344042Y4184750D01*
X3341470Y4187322D01*
X3338109Y4188714D01*
D02*
G37*
G36*
X2525309Y4177284D02*
X2521671D01*
X2518310Y4175892D01*
X2515738Y4173320D01*
X2514346Y4169959D01*
Y4166321D01*
X2515738Y4162960D01*
X2518310Y4160388D01*
X2521671Y4158996D01*
X2525309D01*
X2528670Y4160388D01*
X2531242Y4162960D01*
X2532634Y4166321D01*
Y4169959D01*
X2531242Y4173320D01*
X2528670Y4175892D01*
X2525309Y4177284D01*
D02*
G37*
G36*
X3338109Y4163314D02*
X3334471D01*
X3331110Y4161922D01*
X3328538Y4159350D01*
X3327146Y4155989D01*
Y4152351D01*
X3328538Y4148990D01*
X3331110Y4146418D01*
X3334471Y4145026D01*
X3338109D01*
X3341470Y4146418D01*
X3344042Y4148990D01*
X3345434Y4152351D01*
Y4155989D01*
X3344042Y4159350D01*
X3341470Y4161922D01*
X3338109Y4163314D01*
D02*
G37*
G36*
X2525309Y4151884D02*
X2521671D01*
X2518310Y4150492D01*
X2515738Y4147920D01*
X2514346Y4144559D01*
Y4140921D01*
X2515738Y4137560D01*
X2518310Y4134988D01*
X2521671Y4133596D01*
X2525309D01*
X2528670Y4134988D01*
X2531242Y4137560D01*
X2532634Y4140921D01*
Y4144559D01*
X2531242Y4147920D01*
X2528670Y4150492D01*
X2525309Y4151884D01*
D02*
G37*
G36*
X3338311Y4138930D02*
X3337560D01*
Y4130040D01*
X3346450D01*
Y4130791D01*
X3344903Y4134525D01*
X3342045Y4137383D01*
X3338311Y4138930D01*
D02*
G37*
G36*
X3335020D02*
X3334269D01*
X3330535Y4137383D01*
X3327677Y4134525D01*
X3326130Y4130791D01*
Y4130040D01*
X3335020D01*
Y4138930D01*
D02*
G37*
G36*
X3346450Y4127500D02*
X3337560D01*
Y4118610D01*
X3338311D01*
X3342045Y4120157D01*
X3344903Y4123015D01*
X3346450Y4126749D01*
Y4127500D01*
D02*
G37*
G36*
X3335020D02*
X3326130D01*
Y4126749D01*
X3327677Y4123015D01*
X3330535Y4120157D01*
X3334269Y4118610D01*
X3335020D01*
Y4127500D01*
D02*
G37*
G36*
X2525309Y4126484D02*
X2521671D01*
X2518310Y4125092D01*
X2515738Y4122520D01*
X2514346Y4119159D01*
Y4115521D01*
X2515738Y4112160D01*
X2518310Y4109588D01*
X2521671Y4108196D01*
X2525309D01*
X2528670Y4109588D01*
X2531242Y4112160D01*
X2532634Y4115521D01*
Y4119159D01*
X2531242Y4122520D01*
X2528670Y4125092D01*
X2525309Y4126484D01*
D02*
G37*
G36*
X2783321Y4015740D02*
X2782570D01*
Y4006850D01*
X2791460D01*
Y4007601D01*
X2789913Y4011335D01*
X2787055Y4014193D01*
X2783321Y4015740D01*
D02*
G37*
G36*
X2780030D02*
X2779279D01*
X2775545Y4014193D01*
X2772687Y4011335D01*
X2771140Y4007601D01*
Y4006850D01*
X2780030D01*
Y4015740D01*
D02*
G37*
G36*
X2791460Y4004310D02*
X2782570D01*
Y3995420D01*
X2783321D01*
X2787055Y3996967D01*
X2789913Y3999825D01*
X2791460Y4003559D01*
Y4004310D01*
D02*
G37*
G36*
X2780030D02*
X2771140D01*
Y4003559D01*
X2772687Y3999825D01*
X2775545Y3996967D01*
X2779279Y3995420D01*
X2780030D01*
Y4004310D01*
D02*
G37*
G36*
X2783119Y3989324D02*
X2779481D01*
X2776120Y3987932D01*
X2773548Y3985360D01*
X2772156Y3981999D01*
Y3978361D01*
X2773548Y3975000D01*
X2776120Y3972428D01*
X2779481Y3971036D01*
X2783119D01*
X2786480Y3972428D01*
X2789052Y3975000D01*
X2790444Y3978361D01*
Y3981999D01*
X2789052Y3985360D01*
X2786480Y3987932D01*
X2783119Y3989324D01*
D02*
G37*
G36*
Y3963924D02*
X2779481D01*
X2776120Y3962532D01*
X2773548Y3959960D01*
X2772156Y3956599D01*
Y3952961D01*
X2773548Y3949600D01*
X2776120Y3947028D01*
X2779481Y3945636D01*
X2783119D01*
X2786480Y3947028D01*
X2789052Y3949600D01*
X2790444Y3952961D01*
Y3956599D01*
X2789052Y3959960D01*
X2786480Y3962532D01*
X2783119Y3963924D01*
D02*
G37*
G36*
X3089189Y3946144D02*
X3085551D01*
X3082190Y3944752D01*
X3079618Y3942180D01*
X3078226Y3938819D01*
Y3935181D01*
X3079618Y3931820D01*
X3082190Y3929248D01*
X3085551Y3927856D01*
X3089189D01*
X3092550Y3929248D01*
X3095122Y3931820D01*
X3096514Y3935181D01*
Y3938819D01*
X3095122Y3942180D01*
X3092550Y3944752D01*
X3089189Y3946144D01*
D02*
G37*
G36*
X2783119Y3938524D02*
X2779481D01*
X2776120Y3937132D01*
X2773548Y3934560D01*
X2772156Y3931199D01*
Y3927561D01*
X2773548Y3924200D01*
X2776120Y3921628D01*
X2779481Y3920236D01*
X2783119D01*
X2786480Y3921628D01*
X2789052Y3924200D01*
X2790444Y3927561D01*
Y3931199D01*
X2789052Y3934560D01*
X2786480Y3937132D01*
X2783119Y3938524D01*
D02*
G37*
G36*
X3089189Y3920744D02*
X3085551D01*
X3082190Y3919352D01*
X3079618Y3916780D01*
X3078226Y3913419D01*
Y3909781D01*
X3079618Y3906420D01*
X3082190Y3903848D01*
X3085551Y3902456D01*
X3089189D01*
X3092550Y3903848D01*
X3095122Y3906420D01*
X3096514Y3909781D01*
Y3913419D01*
X3095122Y3916780D01*
X3092550Y3919352D01*
X3089189Y3920744D01*
D02*
G37*
G36*
Y3895344D02*
X3085551D01*
X3082190Y3893952D01*
X3079618Y3891380D01*
X3078226Y3888019D01*
Y3884381D01*
X3079618Y3881020D01*
X3082190Y3878448D01*
X3085551Y3877056D01*
X3089189D01*
X3092550Y3878448D01*
X3095122Y3881020D01*
X3096514Y3884381D01*
Y3888019D01*
X3095122Y3891380D01*
X3092550Y3893952D01*
X3089189Y3895344D01*
D02*
G37*
G36*
X3089391Y3870960D02*
X3088640D01*
Y3862070D01*
X3097530D01*
Y3862821D01*
X3095983Y3866555D01*
X3093125Y3869413D01*
X3089391Y3870960D01*
D02*
G37*
G36*
X3086100D02*
X3085349D01*
X3081615Y3869413D01*
X3078757Y3866555D01*
X3077210Y3862821D01*
Y3862070D01*
X3086100D01*
Y3870960D01*
D02*
G37*
G36*
X3097530Y3859530D02*
X3088640D01*
Y3850640D01*
X3089391D01*
X3093125Y3852187D01*
X3095983Y3855045D01*
X3097530Y3858779D01*
Y3859530D01*
D02*
G37*
G36*
X3086100D02*
X3077210D01*
Y3858779D01*
X3078757Y3855045D01*
X3081615Y3852187D01*
X3085349Y3850640D01*
X3086100D01*
Y3859530D01*
D02*
G37*
G36*
X2533131Y3830320D02*
X2532380D01*
Y3821430D01*
X2541270D01*
Y3822181D01*
X2539723Y3825915D01*
X2536865Y3828773D01*
X2533131Y3830320D01*
D02*
G37*
G36*
X2529840D02*
X2529089D01*
X2525355Y3828773D01*
X2522497Y3825915D01*
X2520950Y3822181D01*
Y3821430D01*
X2529840D01*
Y3830320D01*
D02*
G37*
G36*
X2541270Y3818890D02*
X2532380D01*
Y3810000D01*
X2533131D01*
X2536865Y3811547D01*
X2539723Y3814405D01*
X2541270Y3818139D01*
Y3818890D01*
D02*
G37*
G36*
X2529840D02*
X2520950D01*
Y3818139D01*
X2522497Y3814405D01*
X2525355Y3811547D01*
X2529089Y3810000D01*
X2529840D01*
Y3818890D01*
D02*
G37*
G36*
X2532929Y3803904D02*
X2529291D01*
X2525930Y3802512D01*
X2523358Y3799940D01*
X2521966Y3796579D01*
Y3792941D01*
X2523358Y3789580D01*
X2525930Y3787008D01*
X2529291Y3785616D01*
X2532929D01*
X2536290Y3787008D01*
X2538862Y3789580D01*
X2540254Y3792941D01*
Y3796579D01*
X2538862Y3799940D01*
X2536290Y3802512D01*
X2532929Y3803904D01*
D02*
G37*
G36*
X3321861Y3777025D02*
X3321110D01*
Y3768135D01*
X3330000D01*
Y3768886D01*
X3328453Y3772621D01*
X3325595Y3775479D01*
X3321861Y3777025D01*
D02*
G37*
G36*
X3318570D02*
X3317819D01*
X3314084Y3775479D01*
X3311227Y3772621D01*
X3309680Y3768886D01*
Y3768135D01*
X3318570D01*
Y3777025D01*
D02*
G37*
G36*
X2532929Y3778504D02*
X2529291D01*
X2525930Y3777112D01*
X2523358Y3774540D01*
X2521966Y3771179D01*
Y3767541D01*
X2523358Y3764180D01*
X2525930Y3761608D01*
X2529291Y3760216D01*
X2532929D01*
X2536290Y3761608D01*
X2538862Y3764180D01*
X2540254Y3767541D01*
Y3771179D01*
X2538862Y3774540D01*
X2536290Y3777112D01*
X2532929Y3778504D01*
D02*
G37*
G36*
X3330000Y3765595D02*
X3321110D01*
Y3756706D01*
X3321861D01*
X3325595Y3758252D01*
X3328453Y3761110D01*
X3330000Y3764845D01*
Y3765595D01*
D02*
G37*
G36*
X3318570D02*
X3309680D01*
Y3764845D01*
X3311227Y3761110D01*
X3314084Y3758252D01*
X3317819Y3756706D01*
X3318570D01*
Y3765595D01*
D02*
G37*
G36*
X2792211Y3754120D02*
X2791460D01*
Y3745230D01*
X2800350D01*
Y3745981D01*
X2798803Y3749715D01*
X2795945Y3752573D01*
X2792211Y3754120D01*
D02*
G37*
G36*
X2788920D02*
X2788169D01*
X2784435Y3752573D01*
X2781577Y3749715D01*
X2780030Y3745981D01*
Y3745230D01*
X2788920D01*
Y3754120D01*
D02*
G37*
G36*
X2532929Y3753104D02*
X2529291D01*
X2525930Y3751712D01*
X2523358Y3749140D01*
X2521966Y3745779D01*
Y3742141D01*
X2523358Y3738780D01*
X2525930Y3736208D01*
X2529291Y3734816D01*
X2532929D01*
X2536290Y3736208D01*
X2538862Y3738780D01*
X2540254Y3742141D01*
Y3745779D01*
X2538862Y3749140D01*
X2536290Y3751712D01*
X2532929Y3753104D01*
D02*
G37*
G36*
X2800350Y3742690D02*
X2791460D01*
Y3733800D01*
X2792211D01*
X2795945Y3735347D01*
X2798803Y3738205D01*
X2800350Y3741939D01*
Y3742690D01*
D02*
G37*
G36*
X2788920D02*
X2780030D01*
Y3741939D01*
X2781577Y3738205D01*
X2784435Y3735347D01*
X2788169Y3733800D01*
X2788920D01*
Y3742690D01*
D02*
G37*
G36*
X3321659Y3750609D02*
X3318021D01*
X3314660Y3749218D01*
X3312088Y3746645D01*
X3310696Y3743284D01*
Y3739647D01*
X3312088Y3736286D01*
X3314660Y3733714D01*
X3318021Y3732321D01*
X3321659D01*
X3325020Y3733714D01*
X3327592Y3736286D01*
X3328984Y3739647D01*
Y3743284D01*
X3327592Y3746645D01*
X3325020Y3749218D01*
X3321659Y3750609D01*
D02*
G37*
G36*
X2792009Y3727704D02*
X2788371D01*
X2785010Y3726312D01*
X2782438Y3723740D01*
X2781046Y3720379D01*
Y3716741D01*
X2782438Y3713380D01*
X2785010Y3710808D01*
X2788371Y3709416D01*
X2792009D01*
X2795370Y3710808D01*
X2797942Y3713380D01*
X2799334Y3716741D01*
Y3720379D01*
X2797942Y3723740D01*
X2795370Y3726312D01*
X2792009Y3727704D01*
D02*
G37*
G36*
X3321659Y3725209D02*
X3318021D01*
X3314660Y3723817D01*
X3312088Y3721245D01*
X3310696Y3717885D01*
Y3714247D01*
X3312088Y3710886D01*
X3314660Y3708314D01*
X3318021Y3706921D01*
X3321659D01*
X3325020Y3708314D01*
X3327592Y3710886D01*
X3328984Y3714247D01*
Y3717885D01*
X3327592Y3721245D01*
X3325020Y3723817D01*
X3321659Y3725209D01*
D02*
G37*
G36*
X2792009Y3702304D02*
X2788371D01*
X2785010Y3700912D01*
X2782438Y3698340D01*
X2781046Y3694979D01*
Y3691341D01*
X2782438Y3687980D01*
X2785010Y3685408D01*
X2788371Y3684016D01*
X2792009D01*
X2795370Y3685408D01*
X2797942Y3687980D01*
X2799334Y3691341D01*
Y3694979D01*
X2797942Y3698340D01*
X2795370Y3700912D01*
X2792009Y3702304D01*
D02*
G37*
G36*
X3321659Y3699810D02*
X3318021D01*
X3314660Y3698417D01*
X3312088Y3695845D01*
X3310696Y3692484D01*
Y3688847D01*
X3312088Y3685486D01*
X3314660Y3682914D01*
X3318021Y3681522D01*
X3321659D01*
X3325020Y3682914D01*
X3327592Y3685486D01*
X3328984Y3688847D01*
Y3692484D01*
X3327592Y3695845D01*
X3325020Y3698417D01*
X3321659Y3699810D01*
D02*
G37*
G36*
X2792009Y3676904D02*
X2788371D01*
X2785010Y3675512D01*
X2782438Y3672940D01*
X2781046Y3669579D01*
Y3665941D01*
X2782438Y3662580D01*
X2785010Y3660008D01*
X2788371Y3658616D01*
X2792009D01*
X2795370Y3660008D01*
X2797942Y3662580D01*
X2799334Y3665941D01*
Y3669579D01*
X2797942Y3672940D01*
X2795370Y3675512D01*
X2792009Y3676904D01*
D02*
G37*
%LPD*%
D45*
X1856940Y4366260D02*
D03*
X1844440Y4588510D02*
D03*
D46*
X1881940Y4366260D02*
D03*
X1869440Y4588510D02*
D03*
D56*
X2024780Y4574540D02*
D03*
X2074780D02*
D03*
D58*
X2055930Y3961130D02*
D03*
X2043430D02*
D03*
X2043630Y4388050D02*
D03*
Y4400550D02*
D03*
D59*
X2528570Y4434840D02*
D03*
Y4460240D02*
D03*
Y4485640D02*
D03*
Y4511040D02*
D03*
X2771200Y4253275D02*
D03*
Y4278676D02*
D03*
Y4304076D02*
D03*
Y4329475D02*
D03*
X3087370Y3860800D02*
D03*
Y3886200D02*
D03*
Y3911600D02*
D03*
Y3937000D02*
D03*
X3336290Y4128770D02*
D03*
Y4154170D02*
D03*
Y4179570D02*
D03*
Y4204970D02*
D03*
X2790190Y3667760D02*
D03*
Y3693160D02*
D03*
Y3718560D02*
D03*
Y3743960D02*
D03*
X2768660Y4511086D02*
D03*
Y4536486D02*
D03*
Y4561885D02*
D03*
Y4587285D02*
D03*
X3313430Y4521200D02*
D03*
Y4546600D02*
D03*
Y4572000D02*
D03*
Y4597400D02*
D03*
X2531110Y3820160D02*
D03*
Y3794760D02*
D03*
Y3769360D02*
D03*
Y3743960D02*
D03*
X2523490Y4193540D02*
D03*
Y4168140D02*
D03*
Y4142740D02*
D03*
Y4117340D02*
D03*
X2781300Y3929380D02*
D03*
Y3954780D02*
D03*
Y3980180D02*
D03*
Y4005580D02*
D03*
X3319840Y3690666D02*
D03*
Y3716065D02*
D03*
Y3741465D02*
D03*
Y3766866D02*
D03*
X3082290Y4513580D02*
D03*
Y4488180D02*
D03*
Y4462780D02*
D03*
Y4437380D02*
D03*
D61*
X1694180Y4124960D02*
D03*
X3451860D02*
D03*
D62*
X1969770Y4037330D02*
D03*
Y4062730D02*
D03*
Y3834130D02*
D03*
Y3808730D02*
D03*
Y3783330D02*
D03*
Y3707130D02*
D03*
Y3732530D02*
D03*
Y3757930D02*
D03*
Y3681730D02*
D03*
X1766570Y4062730D02*
D03*
Y4037330D02*
D03*
Y4011930D02*
D03*
Y3783330D02*
D03*
Y3808730D02*
D03*
Y3834130D02*
D03*
Y3859530D02*
D03*
Y3884930D02*
D03*
Y3910330D02*
D03*
Y3935730D02*
D03*
Y3961130D02*
D03*
Y3986530D02*
D03*
X1969770Y4011930D02*
D03*
Y3986530D02*
D03*
Y3961130D02*
D03*
Y3935730D02*
D03*
Y3910330D02*
D03*
Y3884930D02*
D03*
Y3859530D02*
D03*
D64*
X1913870Y4447510D02*
D03*
D65*
Y4483110D02*
D03*
Y4518710D02*
D03*
X1791970Y4531360D02*
D03*
Y4434860D02*
D03*
D66*
X1722755Y3860165D02*
D03*
X1880870Y4311650D02*
D03*
X1837690Y4198620D02*
D03*
X1847850Y4315460D02*
D03*
X2329180Y4552950D02*
D03*
X2327910Y4516120D02*
D03*
X2303780Y4531360D02*
D03*
X2138680Y4498340D02*
D03*
Y4513580D02*
D03*
X2151380Y4530090D02*
D03*
X2073910Y4155440D02*
D03*
X2128520Y4196080D02*
D03*
X2095500Y4305300D02*
D03*
X1822450Y3961130D02*
D03*
X2032000Y4071620D02*
D03*
D67*
X2253130Y4525010D02*
D03*
Y4538010D02*
D03*
Y4512010D02*
D03*
X2240130D02*
D03*
Y4538010D02*
D03*
Y4525010D02*
D03*
M02*
