G04*
G04 #@! TF.GenerationSoftware,Altium Limited,Altium Designer,24.7.2 (38)*
G04*
G04 Layer_Physical_Order=3*
G04 Layer_Color=16440176*
%FSLAX44Y44*%
%MOMM*%
G71*
G04*
G04 #@! TF.SameCoordinates,47DF3F7B-CD24-4F9F-A129-F279A797EA3D*
G04*
G04*
G04 #@! TF.FilePolarity,Positive*
G04*
G01*
G75*
%ADD45R,1.2000X1.2000*%
%ADD46C,1.2000*%
%ADD56C,1.9500*%
%ADD58C,1.0000*%
%ADD59C,1.5240*%
%ADD61C,4.5000*%
%ADD62C,1.5300*%
%ADD64R,2.1000X2.1000*%
%ADD65C,2.1000*%
%ADD66C,1.2700*%
%ADD67C,0.5000*%
G36*
X3356610Y4668520D02*
Y4455160D01*
X3441700Y4370070D01*
Y4146835D01*
X3437109Y4144184D01*
X3432636Y4139711D01*
X3429473Y4134233D01*
X3427836Y4128123D01*
Y4121797D01*
X3429473Y4115687D01*
X3432636Y4110209D01*
X3437109Y4105736D01*
X3441700Y4103085D01*
Y3992880D01*
X3446780Y3987800D01*
X3387090Y3928110D01*
Y3594100D01*
X1741170D01*
X1736090Y3589020D01*
X1734820Y3590290D01*
Y4672701D01*
X1735719Y4673597D01*
X3356610Y4668520D01*
D02*
G37*
%LPC*%
G36*
X1852980Y4597050D02*
X1845710D01*
Y4589780D01*
X1852980D01*
Y4597050D01*
D02*
G37*
G36*
X1843170D02*
X1835900D01*
Y4589780D01*
X1843170D01*
Y4597050D01*
D02*
G37*
G36*
X3315249Y4606544D02*
X3311611D01*
X3308250Y4605152D01*
X3305678Y4602580D01*
X3304286Y4599219D01*
Y4595581D01*
X3305678Y4592220D01*
X3308250Y4589648D01*
X3311611Y4588256D01*
X3315249D01*
X3318610Y4589648D01*
X3321182Y4592220D01*
X3322574Y4595581D01*
Y4599219D01*
X3321182Y4602580D01*
X3318610Y4605152D01*
X3315249Y4606544D01*
D02*
G37*
G36*
X1870937Y4596034D02*
X1867943D01*
X1865178Y4594889D01*
X1863062Y4592772D01*
X1861916Y4590007D01*
Y4587014D01*
X1863062Y4584248D01*
X1865178Y4582131D01*
X1867943Y4580986D01*
X1870937D01*
X1873702Y4582131D01*
X1875818Y4584248D01*
X1876964Y4587014D01*
Y4590007D01*
X1875818Y4592772D01*
X1873702Y4594889D01*
X1870937Y4596034D01*
D02*
G37*
G36*
X1852980Y4587240D02*
X1845710D01*
Y4579970D01*
X1852980D01*
Y4587240D01*
D02*
G37*
G36*
X1843170D02*
X1835900D01*
Y4579970D01*
X1843170D01*
Y4587240D01*
D02*
G37*
G36*
X2770479Y4596429D02*
X2766841D01*
X2763480Y4595038D01*
X2760908Y4592465D01*
X2759516Y4589104D01*
Y4585467D01*
X2760908Y4582106D01*
X2763480Y4579534D01*
X2766841Y4578141D01*
X2770479D01*
X2773839Y4579534D01*
X2776412Y4582106D01*
X2777804Y4585467D01*
Y4589104D01*
X2776412Y4592465D01*
X2773839Y4595038D01*
X2770479Y4596429D01*
D02*
G37*
G36*
X2077225Y4586830D02*
X2076050D01*
Y4575810D01*
X2087070D01*
Y4576985D01*
X2085199Y4581502D01*
X2081742Y4584959D01*
X2077225Y4586830D01*
D02*
G37*
G36*
X2073510D02*
X2072335D01*
X2067818Y4584959D01*
X2064361Y4581502D01*
X2062490Y4576985D01*
Y4575810D01*
X2073510D01*
Y4586830D01*
D02*
G37*
G36*
X3315451Y4582160D02*
X3314700D01*
Y4573270D01*
X3323590D01*
Y4574021D01*
X3322043Y4577755D01*
X3319185Y4580613D01*
X3315451Y4582160D01*
D02*
G37*
G36*
X3312160D02*
X3311409D01*
X3307675Y4580613D01*
X3304817Y4577755D01*
X3303270Y4574021D01*
Y4573270D01*
X3312160D01*
Y4582160D01*
D02*
G37*
G36*
X2027023Y4585814D02*
X2022538D01*
X2018394Y4584098D01*
X2015222Y4580926D01*
X2013506Y4576783D01*
Y4572297D01*
X2015222Y4568154D01*
X2018394Y4564982D01*
X2022538Y4563266D01*
X2027023D01*
X2031166Y4564982D01*
X2034338Y4568154D01*
X2036054Y4572297D01*
Y4576783D01*
X2034338Y4580926D01*
X2031166Y4584098D01*
X2027023Y4585814D01*
D02*
G37*
G36*
X2770681Y4572046D02*
X2769930D01*
Y4563156D01*
X2778820D01*
Y4563907D01*
X2777273Y4567641D01*
X2774415Y4570499D01*
X2770681Y4572046D01*
D02*
G37*
G36*
X2767390D02*
X2766639D01*
X2762905Y4570499D01*
X2760046Y4567641D01*
X2758500Y4563907D01*
Y4563156D01*
X2767390D01*
Y4572046D01*
D02*
G37*
G36*
X2087070Y4573270D02*
X2076050D01*
Y4562250D01*
X2077225D01*
X2081742Y4564121D01*
X2085199Y4567578D01*
X2087070Y4572095D01*
Y4573270D01*
D02*
G37*
G36*
X2073510D02*
X2062490D01*
Y4572095D01*
X2064361Y4567578D01*
X2067818Y4564121D01*
X2072335Y4562250D01*
X2073510D01*
Y4573270D01*
D02*
G37*
G36*
X3323590Y4570730D02*
X3314700D01*
Y4561840D01*
X3315451D01*
X3319185Y4563387D01*
X3322043Y4566245D01*
X3323590Y4569979D01*
Y4570730D01*
D02*
G37*
G36*
X3312160D02*
X3303270D01*
Y4569979D01*
X3304817Y4566245D01*
X3307675Y4563387D01*
X3311409Y4561840D01*
X3312160D01*
Y4570730D01*
D02*
G37*
G36*
X2778820Y4560616D02*
X2769930D01*
Y4551725D01*
X2770681D01*
X2774415Y4553272D01*
X2777273Y4556130D01*
X2778820Y4559865D01*
Y4560616D01*
D02*
G37*
G36*
X2767390D02*
X2758500D01*
Y4559865D01*
X2760046Y4556130D01*
X2762905Y4553272D01*
X2766639Y4551725D01*
X2767390D01*
Y4560616D01*
D02*
G37*
G36*
X2330746Y4560824D02*
X2327614D01*
X2324720Y4559625D01*
X2322505Y4557410D01*
X2321306Y4554516D01*
Y4551384D01*
X2322505Y4548490D01*
X2324720Y4546275D01*
X2327614Y4545076D01*
X2330746D01*
X2333640Y4546275D01*
X2335855Y4548490D01*
X2337054Y4551384D01*
Y4554516D01*
X2335855Y4557410D01*
X2333640Y4559625D01*
X2330746Y4560824D01*
D02*
G37*
G36*
X2254400Y4542939D02*
Y4539280D01*
X2258059D01*
X2257403Y4540865D01*
X2255985Y4542283D01*
X2254400Y4542939D01*
D02*
G37*
G36*
X2251860D02*
X2250275Y4542283D01*
X2248857Y4540865D01*
X2248201Y4539280D01*
X2251860D01*
Y4542939D01*
D02*
G37*
G36*
X2241400D02*
Y4539280D01*
X2245059D01*
X2244403Y4540865D01*
X2242985Y4542283D01*
X2241400Y4542939D01*
D02*
G37*
G36*
X2238860D02*
X2237275Y4542283D01*
X2235857Y4540865D01*
X2235201Y4539280D01*
X2238860D01*
Y4542939D01*
D02*
G37*
G36*
X3315249Y4555744D02*
X3311611D01*
X3308250Y4554352D01*
X3305678Y4551780D01*
X3304286Y4548419D01*
Y4544781D01*
X3305678Y4541420D01*
X3308250Y4538848D01*
X3311611Y4537456D01*
X3315249D01*
X3318610Y4538848D01*
X3321182Y4541420D01*
X3322574Y4544781D01*
Y4548419D01*
X3321182Y4551780D01*
X3318610Y4554352D01*
X3315249Y4555744D01*
D02*
G37*
G36*
X2258059Y4536740D02*
X2254400D01*
Y4533081D01*
X2255985Y4533737D01*
X2257403Y4535155D01*
X2258059Y4536740D01*
D02*
G37*
G36*
X2251860D02*
X2248201D01*
X2248857Y4535155D01*
X2250275Y4533737D01*
X2251860Y4533081D01*
Y4536740D01*
D02*
G37*
G36*
X2245059D02*
X2241400D01*
Y4533081D01*
X2242985Y4533737D01*
X2244403Y4535155D01*
X2245059Y4536740D01*
D02*
G37*
G36*
X2238860D02*
X2235201D01*
X2235857Y4535155D01*
X2237275Y4533737D01*
X2238860Y4533081D01*
Y4536740D01*
D02*
G37*
G36*
X2770479Y4545630D02*
X2766841D01*
X2763480Y4544237D01*
X2760908Y4541665D01*
X2759516Y4538304D01*
Y4534667D01*
X2760908Y4531306D01*
X2763480Y4528734D01*
X2766841Y4527342D01*
X2770479D01*
X2773839Y4528734D01*
X2776412Y4531306D01*
X2777804Y4534667D01*
Y4538304D01*
X2776412Y4541665D01*
X2773839Y4544237D01*
X2770479Y4545630D01*
D02*
G37*
G36*
X2254400Y4529939D02*
Y4526280D01*
X2258059D01*
X2257403Y4527865D01*
X2255985Y4529283D01*
X2254400Y4529939D01*
D02*
G37*
G36*
X2251860D02*
X2250275Y4529283D01*
X2248857Y4527865D01*
X2248201Y4526280D01*
X2251860D01*
Y4529939D01*
D02*
G37*
G36*
X2241400D02*
Y4526280D01*
X2245059D01*
X2244403Y4527865D01*
X2242985Y4529283D01*
X2241400Y4529939D01*
D02*
G37*
G36*
X2238860D02*
X2237275Y4529283D01*
X2235857Y4527865D01*
X2235201Y4526280D01*
X2238860D01*
Y4529939D01*
D02*
G37*
G36*
X2305346Y4539234D02*
X2302214D01*
X2299320Y4538035D01*
X2297105Y4535820D01*
X2295906Y4532926D01*
Y4529794D01*
X2297105Y4526900D01*
X2299320Y4524685D01*
X2302214Y4523486D01*
X2305346D01*
X2308240Y4524685D01*
X2310455Y4526900D01*
X2311654Y4529794D01*
Y4532926D01*
X2310455Y4535820D01*
X2308240Y4538035D01*
X2305346Y4539234D01*
D02*
G37*
G36*
X2152946Y4537964D02*
X2149814D01*
X2146920Y4536765D01*
X2144705Y4534550D01*
X2143506Y4531656D01*
Y4528524D01*
X2144705Y4525630D01*
X2146920Y4523415D01*
X2149814Y4522216D01*
X2152946D01*
X2155840Y4523415D01*
X2158055Y4525630D01*
X2159254Y4528524D01*
Y4531656D01*
X2158055Y4534550D01*
X2155840Y4536765D01*
X2152946Y4537964D01*
D02*
G37*
G36*
X2258059Y4523740D02*
X2254400D01*
Y4520081D01*
X2255985Y4520737D01*
X2257403Y4522155D01*
X2258059Y4523740D01*
D02*
G37*
G36*
X2251860D02*
X2248201D01*
X2248857Y4522155D01*
X2250275Y4520737D01*
X2251860Y4520081D01*
Y4523740D01*
D02*
G37*
G36*
X2245059D02*
X2241400D01*
Y4520081D01*
X2242985Y4520737D01*
X2244403Y4522155D01*
X2245059Y4523740D01*
D02*
G37*
G36*
X2238860D02*
X2235201D01*
X2235857Y4522155D01*
X2237275Y4520737D01*
X2238860Y4520081D01*
Y4523740D01*
D02*
G37*
G36*
X1794362Y4543384D02*
X1789578D01*
X1785159Y4541554D01*
X1781776Y4538171D01*
X1779946Y4533752D01*
Y4528968D01*
X1781776Y4524549D01*
X1785159Y4521166D01*
X1789578Y4519336D01*
X1794362D01*
X1798781Y4521166D01*
X1802164Y4524549D01*
X1803994Y4528968D01*
Y4533752D01*
X1802164Y4538171D01*
X1798781Y4541554D01*
X1794362Y4543384D01*
D02*
G37*
G36*
X3084311Y4523740D02*
X3083560D01*
Y4514850D01*
X3092450D01*
Y4515601D01*
X3090903Y4519335D01*
X3088045Y4522193D01*
X3084311Y4523740D01*
D02*
G37*
G36*
X3081020D02*
X3080269D01*
X3076535Y4522193D01*
X3073677Y4519335D01*
X3072130Y4515601D01*
Y4514850D01*
X3081020D01*
Y4523740D01*
D02*
G37*
G36*
X2254400Y4516939D02*
Y4513280D01*
X2258059D01*
X2257403Y4514865D01*
X2255985Y4516283D01*
X2254400Y4516939D01*
D02*
G37*
G36*
X2251860D02*
X2250275Y4516283D01*
X2248857Y4514865D01*
X2248201Y4513280D01*
X2251860D01*
Y4516939D01*
D02*
G37*
G36*
X2241400D02*
Y4513280D01*
X2245059D01*
X2244403Y4514865D01*
X2242985Y4516283D01*
X2241400Y4516939D01*
D02*
G37*
G36*
X2238860D02*
X2237275Y4516283D01*
X2235857Y4514865D01*
X2235201Y4513280D01*
X2238860D01*
Y4516939D01*
D02*
G37*
G36*
X3315249Y4530344D02*
X3311611D01*
X3308250Y4528952D01*
X3305678Y4526380D01*
X3304286Y4523019D01*
Y4519381D01*
X3305678Y4516020D01*
X3308250Y4513448D01*
X3311611Y4512056D01*
X3315249D01*
X3318610Y4513448D01*
X3321182Y4516020D01*
X3322574Y4519381D01*
Y4523019D01*
X3321182Y4526380D01*
X3318610Y4528952D01*
X3315249Y4530344D01*
D02*
G37*
G36*
X2329476Y4523994D02*
X2326344D01*
X2323450Y4522795D01*
X2321235Y4520580D01*
X2320036Y4517686D01*
Y4514554D01*
X2321235Y4511660D01*
X2323450Y4509445D01*
X2326344Y4508246D01*
X2329476D01*
X2332370Y4509445D01*
X2334585Y4511660D01*
X2335784Y4514554D01*
Y4517686D01*
X2334585Y4520580D01*
X2332370Y4522795D01*
X2329476Y4523994D01*
D02*
G37*
G36*
X2258059Y4510740D02*
X2254400D01*
Y4507081D01*
X2255985Y4507737D01*
X2257403Y4509155D01*
X2258059Y4510740D01*
D02*
G37*
G36*
X2251860D02*
X2248201D01*
X2248857Y4509155D01*
X2250275Y4507737D01*
X2251860Y4507081D01*
Y4510740D01*
D02*
G37*
G36*
X2245059D02*
X2241400D01*
Y4507081D01*
X2242985Y4507737D01*
X2244403Y4509155D01*
X2245059Y4510740D01*
D02*
G37*
G36*
X2238860D02*
X2235201D01*
X2235857Y4509155D01*
X2237275Y4507737D01*
X2238860Y4507081D01*
Y4510740D01*
D02*
G37*
G36*
X1916261Y4530734D02*
X1911478D01*
X1907059Y4528904D01*
X1903676Y4525522D01*
X1901846Y4521102D01*
Y4516319D01*
X1903676Y4511899D01*
X1907059Y4508517D01*
X1911478Y4506686D01*
X1916261D01*
X1920681Y4508517D01*
X1924063Y4511899D01*
X1925894Y4516319D01*
Y4521102D01*
X1924063Y4525522D01*
X1920681Y4528904D01*
X1916261Y4530734D01*
D02*
G37*
G36*
X3092450Y4512310D02*
X3083560D01*
Y4503420D01*
X3084311D01*
X3088045Y4504967D01*
X3090903Y4507825D01*
X3092450Y4511559D01*
Y4512310D01*
D02*
G37*
G36*
X3081020D02*
X3072130D01*
Y4511559D01*
X3073677Y4507825D01*
X3076535Y4504967D01*
X3080269Y4503420D01*
X3081020D01*
Y4512310D01*
D02*
G37*
G36*
X2770479Y4520229D02*
X2766841D01*
X2763480Y4518837D01*
X2760908Y4516265D01*
X2759516Y4512904D01*
Y4509267D01*
X2760908Y4505906D01*
X2763480Y4503334D01*
X2766841Y4501942D01*
X2770479D01*
X2773839Y4503334D01*
X2776412Y4505906D01*
X2777804Y4509267D01*
Y4512904D01*
X2776412Y4516265D01*
X2773839Y4518837D01*
X2770479Y4520229D01*
D02*
G37*
G36*
X2530389Y4520184D02*
X2526751D01*
X2523390Y4518792D01*
X2520818Y4516220D01*
X2519426Y4512859D01*
Y4509221D01*
X2520818Y4505860D01*
X2523390Y4503288D01*
X2526751Y4501896D01*
X2530389D01*
X2533750Y4503288D01*
X2536322Y4505860D01*
X2537714Y4509221D01*
Y4512859D01*
X2536322Y4516220D01*
X2533750Y4518792D01*
X2530389Y4520184D01*
D02*
G37*
G36*
X2140246Y4521454D02*
X2137114D01*
X2134220Y4520255D01*
X2132005Y4518040D01*
X2130806Y4515146D01*
Y4512014D01*
X2132005Y4509120D01*
X2134220Y4506905D01*
X2134967Y4506595D01*
Y4505325D01*
X2134220Y4505015D01*
X2132005Y4502800D01*
X2130806Y4499906D01*
Y4496774D01*
X2132005Y4493880D01*
X2134220Y4491665D01*
X2137114Y4490466D01*
X2140246D01*
X2143140Y4491665D01*
X2145355Y4493880D01*
X2146554Y4496774D01*
Y4499906D01*
X2145355Y4502800D01*
X2143140Y4505015D01*
X2142392Y4505325D01*
Y4506595D01*
X2143140Y4506905D01*
X2145355Y4509120D01*
X2146554Y4512014D01*
Y4515146D01*
X2145355Y4518040D01*
X2143140Y4520255D01*
X2140246Y4521454D01*
D02*
G37*
G36*
X2530591Y4495800D02*
X2529840D01*
Y4486910D01*
X2538730D01*
Y4487661D01*
X2537183Y4491395D01*
X2534325Y4494253D01*
X2530591Y4495800D01*
D02*
G37*
G36*
X2527300D02*
X2526549D01*
X2522815Y4494253D01*
X2519957Y4491395D01*
X2518410Y4487661D01*
Y4486910D01*
X2527300D01*
Y4495800D01*
D02*
G37*
G36*
X1915586Y4496150D02*
X1915140D01*
Y4484380D01*
X1926910D01*
Y4484827D01*
X1926021Y4488143D01*
X1924304Y4491117D01*
X1921876Y4493545D01*
X1918903Y4495262D01*
X1915586Y4496150D01*
D02*
G37*
G36*
X1912600D02*
X1912153D01*
X1908836Y4495262D01*
X1905863Y4493545D01*
X1903435Y4491117D01*
X1901718Y4488143D01*
X1900830Y4484827D01*
Y4484380D01*
X1912600D01*
Y4496150D01*
D02*
G37*
G36*
X3084109Y4497324D02*
X3080471D01*
X3077110Y4495932D01*
X3074538Y4493360D01*
X3073146Y4489999D01*
Y4486361D01*
X3074538Y4483000D01*
X3077110Y4480428D01*
X3080471Y4479036D01*
X3084109D01*
X3087470Y4480428D01*
X3090042Y4483000D01*
X3091434Y4486361D01*
Y4489999D01*
X3090042Y4493360D01*
X3087470Y4495932D01*
X3084109Y4497324D01*
D02*
G37*
G36*
X2538730Y4484370D02*
X2529840D01*
Y4475480D01*
X2530591D01*
X2534325Y4477027D01*
X2537183Y4479885D01*
X2538730Y4483619D01*
Y4484370D01*
D02*
G37*
G36*
X2527300D02*
X2518410D01*
Y4483619D01*
X2519957Y4479885D01*
X2522815Y4477027D01*
X2526549Y4475480D01*
X2527300D01*
Y4484370D01*
D02*
G37*
G36*
X1926910Y4481840D02*
X1915140D01*
Y4470070D01*
X1915586D01*
X1918903Y4470959D01*
X1921876Y4472675D01*
X1924304Y4475103D01*
X1926021Y4478077D01*
X1926910Y4481393D01*
Y4481840D01*
D02*
G37*
G36*
X1912600D02*
X1900830D01*
Y4481393D01*
X1901718Y4478077D01*
X1903435Y4475103D01*
X1905863Y4472675D01*
X1908836Y4470959D01*
X1912153Y4470070D01*
X1912600D01*
Y4481840D01*
D02*
G37*
G36*
X3084109Y4471924D02*
X3080471D01*
X3077110Y4470532D01*
X3074538Y4467960D01*
X3073146Y4464599D01*
Y4460961D01*
X3074538Y4457600D01*
X3077110Y4455028D01*
X3080471Y4453636D01*
X3084109D01*
X3087470Y4455028D01*
X3090042Y4457600D01*
X3091434Y4460961D01*
Y4464599D01*
X3090042Y4467960D01*
X3087470Y4470532D01*
X3084109Y4471924D01*
D02*
G37*
G36*
X2530389Y4469384D02*
X2526751D01*
X2523390Y4467992D01*
X2520818Y4465420D01*
X2519426Y4462059D01*
Y4458421D01*
X2520818Y4455060D01*
X2523390Y4452488D01*
X2526751Y4451096D01*
X2530389D01*
X2533750Y4452488D01*
X2536322Y4455060D01*
X2537714Y4458421D01*
Y4462059D01*
X2536322Y4465420D01*
X2533750Y4467992D01*
X2530389Y4469384D01*
D02*
G37*
G36*
X1925894Y4459534D02*
X1901846D01*
Y4435486D01*
X1925894D01*
Y4459534D01*
D02*
G37*
G36*
X3084109Y4446524D02*
X3080471D01*
X3077110Y4445132D01*
X3074538Y4442560D01*
X3073146Y4439199D01*
Y4435561D01*
X3074538Y4432200D01*
X3077110Y4429628D01*
X3080471Y4428236D01*
X3084109D01*
X3087470Y4429628D01*
X3090042Y4432200D01*
X3091434Y4435561D01*
Y4439199D01*
X3090042Y4442560D01*
X3087470Y4445132D01*
X3084109Y4446524D01*
D02*
G37*
G36*
X2530389Y4443984D02*
X2526751D01*
X2523390Y4442592D01*
X2520818Y4440020D01*
X2519426Y4436659D01*
Y4433021D01*
X2520818Y4429660D01*
X2523390Y4427088D01*
X2526751Y4425696D01*
X2530389D01*
X2533750Y4427088D01*
X2536322Y4429660D01*
X2537714Y4433021D01*
Y4436659D01*
X2536322Y4440020D01*
X2533750Y4442592D01*
X2530389Y4443984D01*
D02*
G37*
G36*
X1794362Y4446884D02*
X1789578D01*
X1785159Y4445054D01*
X1781776Y4441671D01*
X1779946Y4437252D01*
Y4432469D01*
X1781776Y4428049D01*
X1785159Y4424667D01*
X1789578Y4422836D01*
X1794362D01*
X1798781Y4424667D01*
X1802164Y4428049D01*
X1803994Y4432469D01*
Y4437252D01*
X1802164Y4441671D01*
X1798781Y4445054D01*
X1794362Y4446884D01*
D02*
G37*
G36*
X2044928Y4407074D02*
X2042332D01*
X2039935Y4406081D01*
X2038099Y4404246D01*
X2037106Y4401848D01*
Y4399252D01*
X2038099Y4396855D01*
X2039202Y4395752D01*
X2039359Y4394442D01*
X2039106Y4394189D01*
X2037238Y4392321D01*
X2036090Y4389550D01*
Y4389320D01*
X2043630D01*
X2051170D01*
Y4389550D01*
X2050022Y4392321D01*
X2048155Y4394189D01*
X2047901Y4394442D01*
X2048058Y4395752D01*
X2049161Y4396855D01*
X2050154Y4399252D01*
Y4401848D01*
X2049161Y4404246D01*
X2047326Y4406081D01*
X2044928Y4407074D01*
D02*
G37*
G36*
X2051170Y4386780D02*
X2044900D01*
Y4380510D01*
X2045130D01*
X2047901Y4381658D01*
X2050022Y4383779D01*
X2051170Y4386550D01*
Y4386780D01*
D02*
G37*
G36*
X2042360D02*
X2036090D01*
Y4386550D01*
X2037238Y4383779D01*
X2039359Y4381658D01*
X2042130Y4380510D01*
X2042360D01*
Y4386780D01*
D02*
G37*
G36*
X1865480Y4374800D02*
X1858210D01*
Y4367530D01*
X1865480D01*
Y4374800D01*
D02*
G37*
G36*
X1855670D02*
X1848400D01*
Y4367530D01*
X1855670D01*
Y4374800D01*
D02*
G37*
G36*
X1883436Y4373784D02*
X1880443D01*
X1877678Y4372639D01*
X1875561Y4370522D01*
X1874416Y4367757D01*
Y4364763D01*
X1875561Y4361998D01*
X1877678Y4359882D01*
X1880443Y4358736D01*
X1883436D01*
X1886202Y4359882D01*
X1888318Y4361998D01*
X1889464Y4364763D01*
Y4367757D01*
X1888318Y4370522D01*
X1886202Y4372639D01*
X1883436Y4373784D01*
D02*
G37*
G36*
X1865480Y4364990D02*
X1858210D01*
Y4357720D01*
X1865480D01*
Y4364990D01*
D02*
G37*
G36*
X1855670D02*
X1848400D01*
Y4357720D01*
X1855670D01*
Y4364990D01*
D02*
G37*
G36*
X2773018Y4338619D02*
X2769381D01*
X2766020Y4337227D01*
X2763448Y4334655D01*
X2762056Y4331294D01*
Y4327657D01*
X2763448Y4324296D01*
X2766020Y4321724D01*
X2769381Y4320331D01*
X2773018D01*
X2776379Y4321724D01*
X2778952Y4324296D01*
X2780344Y4327657D01*
Y4331294D01*
X2778952Y4334655D01*
X2776379Y4337227D01*
X2773018Y4338619D01*
D02*
G37*
G36*
X1849618Y4324350D02*
X1849120D01*
Y4316730D01*
X1856740D01*
Y4317228D01*
X1855387Y4320496D01*
X1852886Y4322997D01*
X1849618Y4324350D01*
D02*
G37*
G36*
X1846580D02*
X1846082D01*
X1842814Y4322997D01*
X1840313Y4320496D01*
X1838960Y4317228D01*
Y4316730D01*
X1846580D01*
Y4324350D01*
D02*
G37*
G36*
X2097268Y4314190D02*
X2096770D01*
Y4306570D01*
X2104390D01*
Y4307068D01*
X2103037Y4310336D01*
X2100536Y4312837D01*
X2097268Y4314190D01*
D02*
G37*
G36*
X2094230D02*
X2093732D01*
X2090464Y4312837D01*
X2087963Y4310336D01*
X2086610Y4307068D01*
Y4306570D01*
X2094230D01*
Y4314190D01*
D02*
G37*
G36*
X1856740D02*
X1849120D01*
Y4306570D01*
X1849618D01*
X1852886Y4307923D01*
X1855387Y4310424D01*
X1856740Y4313692D01*
Y4314190D01*
D02*
G37*
G36*
X1846580D02*
X1838960D01*
Y4313692D01*
X1840313Y4310424D01*
X1842814Y4307923D01*
X1846082Y4306570D01*
X1846580D01*
Y4314190D01*
D02*
G37*
G36*
X2773221Y4314236D02*
X2772470D01*
Y4305345D01*
X2781360D01*
Y4306096D01*
X2779813Y4309831D01*
X2776955Y4312689D01*
X2773221Y4314236D01*
D02*
G37*
G36*
X2769930D02*
X2769179D01*
X2765445Y4312689D01*
X2762586Y4309831D01*
X2761040Y4306096D01*
Y4305345D01*
X2769930D01*
Y4314236D01*
D02*
G37*
G36*
X1882436Y4319524D02*
X1879304D01*
X1876410Y4318325D01*
X1874195Y4316110D01*
X1872996Y4313216D01*
Y4310084D01*
X1874195Y4307190D01*
X1876410Y4304975D01*
X1879304Y4303776D01*
X1882436D01*
X1885330Y4304975D01*
X1887545Y4307190D01*
X1888744Y4310084D01*
Y4313216D01*
X1887545Y4316110D01*
X1885330Y4318325D01*
X1882436Y4319524D01*
D02*
G37*
G36*
X2104390Y4304030D02*
X2096770D01*
Y4296410D01*
X2097268D01*
X2100536Y4297763D01*
X2103037Y4300264D01*
X2104390Y4303532D01*
Y4304030D01*
D02*
G37*
G36*
X2094230D02*
X2086610D01*
Y4303532D01*
X2087963Y4300264D01*
X2090464Y4297763D01*
X2093732Y4296410D01*
X2094230D01*
Y4304030D01*
D02*
G37*
G36*
X2781360Y4302805D02*
X2772470D01*
Y4293915D01*
X2773221D01*
X2776955Y4295462D01*
X2779813Y4298320D01*
X2781360Y4302055D01*
Y4302805D01*
D02*
G37*
G36*
X2769930D02*
X2761040D01*
Y4302055D01*
X2762586Y4298320D01*
X2765445Y4295462D01*
X2769179Y4293915D01*
X2769930D01*
Y4302805D01*
D02*
G37*
G36*
X2773018Y4287820D02*
X2769381D01*
X2766020Y4286427D01*
X2763448Y4283855D01*
X2762056Y4280494D01*
Y4276857D01*
X2763448Y4273496D01*
X2766020Y4270923D01*
X2769381Y4269532D01*
X2773018D01*
X2776379Y4270923D01*
X2778952Y4273496D01*
X2780344Y4276857D01*
Y4280494D01*
X2778952Y4283855D01*
X2776379Y4286427D01*
X2773018Y4287820D01*
D02*
G37*
G36*
Y4262419D02*
X2769381D01*
X2766020Y4261028D01*
X2763448Y4258455D01*
X2762056Y4255094D01*
Y4251457D01*
X2763448Y4248096D01*
X2766020Y4245524D01*
X2769381Y4244131D01*
X2773018D01*
X2776379Y4245524D01*
X2778952Y4248096D01*
X2780344Y4251457D01*
Y4255094D01*
X2778952Y4258455D01*
X2776379Y4261028D01*
X2773018Y4262419D01*
D02*
G37*
G36*
X3338311Y4215130D02*
X3337560D01*
Y4206240D01*
X3346450D01*
Y4206991D01*
X3344903Y4210725D01*
X3342045Y4213583D01*
X3338311Y4215130D01*
D02*
G37*
G36*
X3335020D02*
X3334269D01*
X3330535Y4213583D01*
X3327677Y4210725D01*
X3326130Y4206991D01*
Y4206240D01*
X3335020D01*
Y4215130D01*
D02*
G37*
G36*
X1839458Y4207510D02*
X1838960D01*
Y4199890D01*
X1846580D01*
Y4200388D01*
X1845227Y4203656D01*
X1842726Y4206157D01*
X1839458Y4207510D01*
D02*
G37*
G36*
X1836420D02*
X1835922D01*
X1832654Y4206157D01*
X1830153Y4203656D01*
X1828800Y4200388D01*
Y4199890D01*
X1836420D01*
Y4207510D01*
D02*
G37*
G36*
X3346450Y4203700D02*
X3337560D01*
Y4194810D01*
X3338311D01*
X3342045Y4196357D01*
X3344903Y4199215D01*
X3346450Y4202949D01*
Y4203700D01*
D02*
G37*
G36*
X3335020D02*
X3326130D01*
Y4202949D01*
X3327677Y4199215D01*
X3330535Y4196357D01*
X3334269Y4194810D01*
X3335020D01*
Y4203700D01*
D02*
G37*
G36*
X1846580Y4197350D02*
X1838960D01*
Y4189730D01*
X1839458D01*
X1842726Y4191083D01*
X1845227Y4193584D01*
X1846580Y4196852D01*
Y4197350D01*
D02*
G37*
G36*
X1836420D02*
X1828800D01*
Y4196852D01*
X1830153Y4193584D01*
X1832654Y4191083D01*
X1835922Y4189730D01*
X1836420D01*
Y4197350D01*
D02*
G37*
G36*
X2130086Y4203954D02*
X2126954D01*
X2124060Y4202755D01*
X2121845Y4200540D01*
X2120646Y4197646D01*
Y4194514D01*
X2121845Y4191620D01*
X2124060Y4189405D01*
X2126954Y4188206D01*
X2130086D01*
X2132980Y4189405D01*
X2135195Y4191620D01*
X2136394Y4194514D01*
Y4197646D01*
X2135195Y4200540D01*
X2132980Y4202755D01*
X2130086Y4203954D01*
D02*
G37*
G36*
X2525309Y4202684D02*
X2521671D01*
X2518310Y4201292D01*
X2515738Y4198720D01*
X2514346Y4195359D01*
Y4191721D01*
X2515738Y4188360D01*
X2518310Y4185788D01*
X2521671Y4184396D01*
X2525309D01*
X2528670Y4185788D01*
X2531242Y4188360D01*
X2532634Y4191721D01*
Y4195359D01*
X2531242Y4198720D01*
X2528670Y4201292D01*
X2525309Y4202684D01*
D02*
G37*
G36*
X3338109Y4188714D02*
X3334471D01*
X3331110Y4187322D01*
X3328538Y4184750D01*
X3327146Y4181389D01*
Y4177751D01*
X3328538Y4174390D01*
X3331110Y4171818D01*
X3334471Y4170426D01*
X3338109D01*
X3341470Y4171818D01*
X3344042Y4174390D01*
X3345434Y4177751D01*
Y4181389D01*
X3344042Y4184750D01*
X3341470Y4187322D01*
X3338109Y4188714D01*
D02*
G37*
G36*
X2525511Y4178300D02*
X2524760D01*
Y4169410D01*
X2533650D01*
Y4170161D01*
X2532103Y4173895D01*
X2529245Y4176753D01*
X2525511Y4178300D01*
D02*
G37*
G36*
X2522220D02*
X2521469D01*
X2517735Y4176753D01*
X2514877Y4173895D01*
X2513330Y4170161D01*
Y4169410D01*
X2522220D01*
Y4178300D01*
D02*
G37*
G36*
X2533650Y4166870D02*
X2524760D01*
Y4157980D01*
X2525511D01*
X2529245Y4159527D01*
X2532103Y4162385D01*
X2533650Y4166119D01*
Y4166870D01*
D02*
G37*
G36*
X2522220D02*
X2513330D01*
Y4166119D01*
X2514877Y4162385D01*
X2517735Y4159527D01*
X2521469Y4157980D01*
X2522220D01*
Y4166870D01*
D02*
G37*
G36*
X2075678Y4164330D02*
X2075180D01*
Y4156710D01*
X2082800D01*
Y4157208D01*
X2081447Y4160476D01*
X2078946Y4162977D01*
X2075678Y4164330D01*
D02*
G37*
G36*
X2072640D02*
X2072142D01*
X2068874Y4162977D01*
X2066373Y4160476D01*
X2065020Y4157208D01*
Y4156710D01*
X2072640D01*
Y4164330D01*
D02*
G37*
G36*
X2082800Y4154170D02*
X2075180D01*
Y4146550D01*
X2075678D01*
X2078946Y4147903D01*
X2081447Y4150404D01*
X2082800Y4153672D01*
Y4154170D01*
D02*
G37*
G36*
X2072640D02*
X2065020D01*
Y4153672D01*
X2066373Y4150404D01*
X2068874Y4147903D01*
X2072142Y4146550D01*
X2072640D01*
Y4154170D01*
D02*
G37*
G36*
X3338109Y4163314D02*
X3334471D01*
X3331110Y4161922D01*
X3328538Y4159350D01*
X3327146Y4155989D01*
Y4152351D01*
X3328538Y4148990D01*
X3331110Y4146418D01*
X3334471Y4145026D01*
X3338109D01*
X3341470Y4146418D01*
X3344042Y4148990D01*
X3345434Y4152351D01*
Y4155989D01*
X3344042Y4159350D01*
X3341470Y4161922D01*
X3338109Y4163314D01*
D02*
G37*
G36*
X2525309Y4151884D02*
X2521671D01*
X2518310Y4150492D01*
X2515738Y4147920D01*
X2514346Y4144559D01*
Y4140921D01*
X2515738Y4137560D01*
X2518310Y4134988D01*
X2521671Y4133596D01*
X2525309D01*
X2528670Y4134988D01*
X2531242Y4137560D01*
X2532634Y4140921D01*
Y4144559D01*
X2531242Y4147920D01*
X2528670Y4150492D01*
X2525309Y4151884D01*
D02*
G37*
G36*
X3338109Y4137914D02*
X3334471D01*
X3331110Y4136522D01*
X3328538Y4133950D01*
X3327146Y4130589D01*
Y4126951D01*
X3328538Y4123590D01*
X3331110Y4121018D01*
X3334471Y4119626D01*
X3338109D01*
X3341470Y4121018D01*
X3344042Y4123590D01*
X3345434Y4126951D01*
Y4130589D01*
X3344042Y4133950D01*
X3341470Y4136522D01*
X3338109Y4137914D01*
D02*
G37*
G36*
X2525309Y4126484D02*
X2521671D01*
X2518310Y4125092D01*
X2515738Y4122520D01*
X2514346Y4119159D01*
Y4115521D01*
X2515738Y4112160D01*
X2518310Y4109588D01*
X2521671Y4108196D01*
X2525309D01*
X2528670Y4109588D01*
X2531242Y4112160D01*
X2532634Y4115521D01*
Y4119159D01*
X2531242Y4122520D01*
X2528670Y4125092D01*
X2525309Y4126484D01*
D02*
G37*
G36*
X2033566Y4079494D02*
X2030434D01*
X2027540Y4078295D01*
X2025325Y4076080D01*
X2024126Y4073186D01*
Y4070054D01*
X2025325Y4067160D01*
X2027540Y4064945D01*
X2030434Y4063746D01*
X2033566D01*
X2036460Y4064945D01*
X2038675Y4067160D01*
X2039874Y4070054D01*
Y4073186D01*
X2038675Y4076080D01*
X2036460Y4078295D01*
X2033566Y4079494D01*
D02*
G37*
G36*
X1971595Y4071904D02*
X1967945D01*
X1964573Y4070508D01*
X1961993Y4067927D01*
X1960596Y4064555D01*
Y4060905D01*
X1961993Y4057533D01*
X1964573Y4054953D01*
X1967945Y4053556D01*
X1971595D01*
X1974967Y4054953D01*
X1977547Y4057533D01*
X1978944Y4060905D01*
Y4064555D01*
X1977547Y4067927D01*
X1974967Y4070508D01*
X1971595Y4071904D01*
D02*
G37*
G36*
X1768395D02*
X1764745D01*
X1761373Y4070508D01*
X1758793Y4067927D01*
X1757396Y4064555D01*
Y4060905D01*
X1758793Y4057533D01*
X1761373Y4054953D01*
X1764745Y4053556D01*
X1768395D01*
X1771767Y4054953D01*
X1774347Y4057533D01*
X1775744Y4060905D01*
Y4064555D01*
X1774347Y4067927D01*
X1771767Y4070508D01*
X1768395Y4071904D01*
D02*
G37*
G36*
X1971595Y4046504D02*
X1967945D01*
X1964573Y4045107D01*
X1961993Y4042527D01*
X1960596Y4039155D01*
Y4035505D01*
X1961993Y4032133D01*
X1964573Y4029553D01*
X1967945Y4028156D01*
X1971595D01*
X1974967Y4029553D01*
X1977547Y4032133D01*
X1978944Y4035505D01*
Y4039155D01*
X1977547Y4042527D01*
X1974967Y4045107D01*
X1971595Y4046504D01*
D02*
G37*
G36*
X1768395D02*
X1764745D01*
X1761373Y4045107D01*
X1758793Y4042527D01*
X1757396Y4039155D01*
Y4035505D01*
X1758793Y4032133D01*
X1761373Y4029553D01*
X1764745Y4028156D01*
X1768395D01*
X1771767Y4029553D01*
X1774347Y4032133D01*
X1775744Y4035505D01*
Y4039155D01*
X1774347Y4042527D01*
X1771767Y4045107D01*
X1768395Y4046504D01*
D02*
G37*
G36*
X1971595Y4021104D02*
X1967945D01*
X1964573Y4019707D01*
X1961993Y4017127D01*
X1960596Y4013755D01*
Y4010105D01*
X1961993Y4006733D01*
X1964573Y4004153D01*
X1967945Y4002756D01*
X1971595D01*
X1974967Y4004153D01*
X1977547Y4006733D01*
X1978944Y4010105D01*
Y4013755D01*
X1977547Y4017127D01*
X1974967Y4019707D01*
X1971595Y4021104D01*
D02*
G37*
G36*
X1768395D02*
X1764745D01*
X1761373Y4019707D01*
X1758793Y4017127D01*
X1757396Y4013755D01*
Y4010105D01*
X1758793Y4006733D01*
X1761373Y4004153D01*
X1764745Y4002756D01*
X1768395D01*
X1771767Y4004153D01*
X1774347Y4006733D01*
X1775744Y4010105D01*
Y4013755D01*
X1774347Y4017127D01*
X1771767Y4019707D01*
X1768395Y4021104D01*
D02*
G37*
G36*
X2783119Y4014724D02*
X2779481D01*
X2776120Y4013332D01*
X2773548Y4010760D01*
X2772156Y4007399D01*
Y4003761D01*
X2773548Y4000400D01*
X2776120Y3997828D01*
X2779481Y3996436D01*
X2783119D01*
X2786480Y3997828D01*
X2789052Y4000400D01*
X2790444Y4003761D01*
Y4007399D01*
X2789052Y4010760D01*
X2786480Y4013332D01*
X2783119Y4014724D01*
D02*
G37*
G36*
X2783321Y3990340D02*
X2782570D01*
Y3981450D01*
X2791460D01*
Y3982201D01*
X2789913Y3985935D01*
X2787055Y3988793D01*
X2783321Y3990340D01*
D02*
G37*
G36*
X2780030D02*
X2779279D01*
X2775545Y3988793D01*
X2772687Y3985935D01*
X2771140Y3982201D01*
Y3981450D01*
X2780030D01*
Y3990340D01*
D02*
G37*
G36*
X1971595Y3995704D02*
X1967945D01*
X1964573Y3994307D01*
X1961993Y3991727D01*
X1960596Y3988355D01*
Y3984705D01*
X1961993Y3981333D01*
X1964573Y3978753D01*
X1967945Y3977356D01*
X1971595D01*
X1974967Y3978753D01*
X1977547Y3981333D01*
X1978944Y3984705D01*
Y3988355D01*
X1977547Y3991727D01*
X1974967Y3994307D01*
X1971595Y3995704D01*
D02*
G37*
G36*
X1768395D02*
X1764745D01*
X1761373Y3994307D01*
X1758793Y3991727D01*
X1757396Y3988355D01*
Y3984705D01*
X1758793Y3981333D01*
X1761373Y3978753D01*
X1764745Y3977356D01*
X1768395D01*
X1771767Y3978753D01*
X1774347Y3981333D01*
X1775744Y3984705D01*
Y3988355D01*
X1774347Y3991727D01*
X1771767Y3994307D01*
X1768395Y3995704D01*
D02*
G37*
G36*
X2791460Y3978910D02*
X2782570D01*
Y3970020D01*
X2783321D01*
X2787055Y3971567D01*
X2789913Y3974425D01*
X2791460Y3978159D01*
Y3978910D01*
D02*
G37*
G36*
X2780030D02*
X2771140D01*
Y3978159D01*
X2772687Y3974425D01*
X2775545Y3971567D01*
X2779279Y3970020D01*
X2780030D01*
Y3978910D01*
D02*
G37*
G36*
X2042160Y3968670D02*
X2041930D01*
X2039159Y3967522D01*
X2037038Y3965401D01*
X2035890Y3962630D01*
Y3962400D01*
X2042160D01*
Y3968670D01*
D02*
G37*
G36*
X2044930D02*
X2044700D01*
Y3961130D01*
Y3953590D01*
X2044930D01*
X2047701Y3954738D01*
X2049569Y3956606D01*
X2049823Y3956859D01*
X2051132Y3956702D01*
X2052234Y3955599D01*
X2054632Y3954606D01*
X2057228D01*
X2059626Y3955599D01*
X2061461Y3957434D01*
X2062454Y3959832D01*
Y3962428D01*
X2061461Y3964825D01*
X2059626Y3966661D01*
X2057228Y3967654D01*
X2054632D01*
X2052234Y3966661D01*
X2051132Y3965558D01*
X2049823Y3965401D01*
X2049569Y3965654D01*
X2047701Y3967522D01*
X2044930Y3968670D01*
D02*
G37*
G36*
X2042160Y3959860D02*
X2035890D01*
Y3959630D01*
X2037038Y3956859D01*
X2039159Y3954738D01*
X2041930Y3953590D01*
X2042160D01*
Y3959860D01*
D02*
G37*
G36*
X1824016Y3969004D02*
X1820884D01*
X1817990Y3967805D01*
X1815775Y3965590D01*
X1814576Y3962696D01*
Y3959564D01*
X1815775Y3956670D01*
X1817990Y3954455D01*
X1820884Y3953256D01*
X1824016D01*
X1826910Y3954455D01*
X1829125Y3956670D01*
X1830324Y3959564D01*
Y3962696D01*
X1829125Y3965590D01*
X1826910Y3967805D01*
X1824016Y3969004D01*
D02*
G37*
G36*
X1971595Y3970304D02*
X1967945D01*
X1964573Y3968907D01*
X1961993Y3966327D01*
X1960596Y3962955D01*
Y3959305D01*
X1961993Y3955933D01*
X1964573Y3953353D01*
X1967945Y3951956D01*
X1971595D01*
X1974967Y3953353D01*
X1977547Y3955933D01*
X1978944Y3959305D01*
Y3962955D01*
X1977547Y3966327D01*
X1974967Y3968907D01*
X1971595Y3970304D01*
D02*
G37*
G36*
X1768395D02*
X1764745D01*
X1761373Y3968907D01*
X1758793Y3966327D01*
X1757396Y3962955D01*
Y3959305D01*
X1758793Y3955933D01*
X1761373Y3953353D01*
X1764745Y3951956D01*
X1768395D01*
X1771767Y3953353D01*
X1774347Y3955933D01*
X1775744Y3959305D01*
Y3962955D01*
X1774347Y3966327D01*
X1771767Y3968907D01*
X1768395Y3970304D01*
D02*
G37*
G36*
X2783119Y3963924D02*
X2779481D01*
X2776120Y3962532D01*
X2773548Y3959960D01*
X2772156Y3956599D01*
Y3952961D01*
X2773548Y3949600D01*
X2776120Y3947028D01*
X2779481Y3945636D01*
X2783119D01*
X2786480Y3947028D01*
X2789052Y3949600D01*
X2790444Y3952961D01*
Y3956599D01*
X2789052Y3959960D01*
X2786480Y3962532D01*
X2783119Y3963924D01*
D02*
G37*
G36*
X3089391Y3947160D02*
X3088640D01*
Y3938270D01*
X3097530D01*
Y3939021D01*
X3095983Y3942755D01*
X3093125Y3945613D01*
X3089391Y3947160D01*
D02*
G37*
G36*
X3086100D02*
X3085349D01*
X3081615Y3945613D01*
X3078757Y3942755D01*
X3077210Y3939021D01*
Y3938270D01*
X3086100D01*
Y3947160D01*
D02*
G37*
G36*
X3097530Y3935730D02*
X3088640D01*
Y3926840D01*
X3089391D01*
X3093125Y3928387D01*
X3095983Y3931245D01*
X3097530Y3934979D01*
Y3935730D01*
D02*
G37*
G36*
X3086100D02*
X3077210D01*
Y3934979D01*
X3078757Y3931245D01*
X3081615Y3928387D01*
X3085349Y3926840D01*
X3086100D01*
Y3935730D01*
D02*
G37*
G36*
X1971595Y3944904D02*
X1967945D01*
X1964573Y3943507D01*
X1961993Y3940927D01*
X1960596Y3937555D01*
Y3933905D01*
X1961993Y3930533D01*
X1964573Y3927953D01*
X1967945Y3926556D01*
X1971595D01*
X1974967Y3927953D01*
X1977547Y3930533D01*
X1978944Y3933905D01*
Y3937555D01*
X1977547Y3940927D01*
X1974967Y3943507D01*
X1971595Y3944904D01*
D02*
G37*
G36*
X1768395D02*
X1764745D01*
X1761373Y3943507D01*
X1758793Y3940927D01*
X1757396Y3937555D01*
Y3933905D01*
X1758793Y3930533D01*
X1761373Y3927953D01*
X1764745Y3926556D01*
X1768395D01*
X1771767Y3927953D01*
X1774347Y3930533D01*
X1775744Y3933905D01*
Y3937555D01*
X1774347Y3940927D01*
X1771767Y3943507D01*
X1768395Y3944904D01*
D02*
G37*
G36*
X2783119Y3938524D02*
X2779481D01*
X2776120Y3937132D01*
X2773548Y3934560D01*
X2772156Y3931199D01*
Y3927561D01*
X2773548Y3924200D01*
X2776120Y3921628D01*
X2779481Y3920236D01*
X2783119D01*
X2786480Y3921628D01*
X2789052Y3924200D01*
X2790444Y3927561D01*
Y3931199D01*
X2789052Y3934560D01*
X2786480Y3937132D01*
X2783119Y3938524D01*
D02*
G37*
G36*
X3089189Y3920744D02*
X3085551D01*
X3082190Y3919352D01*
X3079618Y3916780D01*
X3078226Y3913419D01*
Y3909781D01*
X3079618Y3906420D01*
X3082190Y3903848D01*
X3085551Y3902456D01*
X3089189D01*
X3092550Y3903848D01*
X3095122Y3906420D01*
X3096514Y3909781D01*
Y3913419D01*
X3095122Y3916780D01*
X3092550Y3919352D01*
X3089189Y3920744D01*
D02*
G37*
G36*
X1971595Y3919504D02*
X1967945D01*
X1964573Y3918107D01*
X1961993Y3915527D01*
X1960596Y3912155D01*
Y3908505D01*
X1961993Y3905133D01*
X1964573Y3902552D01*
X1967945Y3901156D01*
X1971595D01*
X1974967Y3902552D01*
X1977547Y3905133D01*
X1978944Y3908505D01*
Y3912155D01*
X1977547Y3915527D01*
X1974967Y3918107D01*
X1971595Y3919504D01*
D02*
G37*
G36*
X1768395D02*
X1764745D01*
X1761373Y3918107D01*
X1758793Y3915527D01*
X1757396Y3912155D01*
Y3908505D01*
X1758793Y3905133D01*
X1761373Y3902552D01*
X1764745Y3901156D01*
X1768395D01*
X1771767Y3902552D01*
X1774347Y3905133D01*
X1775744Y3908505D01*
Y3912155D01*
X1774347Y3915527D01*
X1771767Y3918107D01*
X1768395Y3919504D01*
D02*
G37*
G36*
X3089189Y3895344D02*
X3085551D01*
X3082190Y3893952D01*
X3079618Y3891380D01*
X3078226Y3888019D01*
Y3884381D01*
X3079618Y3881020D01*
X3082190Y3878448D01*
X3085551Y3877056D01*
X3089189D01*
X3092550Y3878448D01*
X3095122Y3881020D01*
X3096514Y3884381D01*
Y3888019D01*
X3095122Y3891380D01*
X3092550Y3893952D01*
X3089189Y3895344D01*
D02*
G37*
G36*
X1971595Y3894104D02*
X1967945D01*
X1964573Y3892708D01*
X1961993Y3890127D01*
X1960596Y3886755D01*
Y3883105D01*
X1961993Y3879733D01*
X1964573Y3877153D01*
X1967945Y3875756D01*
X1971595D01*
X1974967Y3877153D01*
X1977547Y3879733D01*
X1978944Y3883105D01*
Y3886755D01*
X1977547Y3890127D01*
X1974967Y3892708D01*
X1971595Y3894104D01*
D02*
G37*
G36*
X1768395D02*
X1764745D01*
X1761373Y3892708D01*
X1758793Y3890127D01*
X1757396Y3886755D01*
Y3883105D01*
X1758793Y3879733D01*
X1761373Y3877153D01*
X1764745Y3875756D01*
X1768395D01*
X1771767Y3877153D01*
X1774347Y3879733D01*
X1775744Y3883105D01*
Y3886755D01*
X1774347Y3890127D01*
X1771767Y3892708D01*
X1768395Y3894104D01*
D02*
G37*
G36*
X3089189Y3869944D02*
X3085551D01*
X3082190Y3868552D01*
X3079618Y3865980D01*
X3078226Y3862619D01*
Y3858981D01*
X3079618Y3855620D01*
X3082190Y3853048D01*
X3085551Y3851656D01*
X3089189D01*
X3092550Y3853048D01*
X3095122Y3855620D01*
X3096514Y3858981D01*
Y3862619D01*
X3095122Y3865980D01*
X3092550Y3868552D01*
X3089189Y3869944D01*
D02*
G37*
G36*
X1971595Y3868704D02*
X1967945D01*
X1964573Y3867307D01*
X1961993Y3864727D01*
X1960596Y3861355D01*
Y3857705D01*
X1961993Y3854333D01*
X1964573Y3851753D01*
X1967945Y3850356D01*
X1971595D01*
X1974967Y3851753D01*
X1977547Y3854333D01*
X1978944Y3857705D01*
Y3861355D01*
X1977547Y3864727D01*
X1974967Y3867307D01*
X1971595Y3868704D01*
D02*
G37*
G36*
X1768395D02*
X1764745D01*
X1761373Y3867307D01*
X1758793Y3864727D01*
X1757396Y3861355D01*
Y3857705D01*
X1758793Y3854333D01*
X1761373Y3851753D01*
X1764745Y3850356D01*
X1768395D01*
X1771767Y3851753D01*
X1774347Y3854333D01*
X1775744Y3857705D01*
Y3861355D01*
X1774347Y3864727D01*
X1771767Y3867307D01*
X1768395Y3868704D01*
D02*
G37*
G36*
X1971595Y3843304D02*
X1967945D01*
X1964573Y3841907D01*
X1961993Y3839327D01*
X1960596Y3835955D01*
Y3832305D01*
X1961993Y3828933D01*
X1964573Y3826353D01*
X1967945Y3824956D01*
X1971595D01*
X1974967Y3826353D01*
X1977547Y3828933D01*
X1978944Y3832305D01*
Y3835955D01*
X1977547Y3839327D01*
X1974967Y3841907D01*
X1971595Y3843304D01*
D02*
G37*
G36*
X1768395D02*
X1764745D01*
X1761373Y3841907D01*
X1758793Y3839327D01*
X1757396Y3835955D01*
Y3832305D01*
X1758793Y3828933D01*
X1761373Y3826353D01*
X1764745Y3824956D01*
X1768395D01*
X1771767Y3826353D01*
X1774347Y3828933D01*
X1775744Y3832305D01*
Y3835955D01*
X1774347Y3839327D01*
X1771767Y3841907D01*
X1768395Y3843304D01*
D02*
G37*
G36*
X2532929Y3829304D02*
X2529291D01*
X2525930Y3827912D01*
X2523358Y3825340D01*
X2521966Y3821979D01*
Y3818341D01*
X2523358Y3814980D01*
X2525930Y3812408D01*
X2529291Y3811016D01*
X2532929D01*
X2536290Y3812408D01*
X2538862Y3814980D01*
X2540254Y3818341D01*
Y3821979D01*
X2538862Y3825340D01*
X2536290Y3827912D01*
X2532929Y3829304D01*
D02*
G37*
G36*
X1971595Y3817904D02*
X1967945D01*
X1964573Y3816507D01*
X1961993Y3813927D01*
X1960596Y3810555D01*
Y3806905D01*
X1961993Y3803533D01*
X1964573Y3800952D01*
X1967945Y3799556D01*
X1971595D01*
X1974967Y3800952D01*
X1977547Y3803533D01*
X1978944Y3806905D01*
Y3810555D01*
X1977547Y3813927D01*
X1974967Y3816507D01*
X1971595Y3817904D01*
D02*
G37*
G36*
X1768395D02*
X1764745D01*
X1761373Y3816507D01*
X1758793Y3813927D01*
X1757396Y3810555D01*
Y3806905D01*
X1758793Y3803533D01*
X1761373Y3800952D01*
X1764745Y3799556D01*
X1768395D01*
X1771767Y3800952D01*
X1774347Y3803533D01*
X1775744Y3806905D01*
Y3810555D01*
X1774347Y3813927D01*
X1771767Y3816507D01*
X1768395Y3817904D01*
D02*
G37*
G36*
X2533131Y3804920D02*
X2532380D01*
Y3796030D01*
X2541270D01*
Y3796781D01*
X2539723Y3800515D01*
X2536865Y3803373D01*
X2533131Y3804920D01*
D02*
G37*
G36*
X2529840D02*
X2529089D01*
X2525355Y3803373D01*
X2522497Y3800515D01*
X2520950Y3796781D01*
Y3796030D01*
X2529840D01*
Y3804920D01*
D02*
G37*
G36*
X2541270Y3793490D02*
X2532380D01*
Y3784600D01*
X2533131D01*
X2536865Y3786147D01*
X2539723Y3789005D01*
X2541270Y3792739D01*
Y3793490D01*
D02*
G37*
G36*
X2529840D02*
X2520950D01*
Y3792739D01*
X2522497Y3789005D01*
X2525355Y3786147D01*
X2529089Y3784600D01*
X2529840D01*
Y3793490D01*
D02*
G37*
G36*
X1971595Y3792504D02*
X1967945D01*
X1964573Y3791107D01*
X1961993Y3788527D01*
X1960596Y3785155D01*
Y3781505D01*
X1961993Y3778133D01*
X1964573Y3775553D01*
X1967945Y3774156D01*
X1971595D01*
X1974967Y3775553D01*
X1977547Y3778133D01*
X1978944Y3781505D01*
Y3785155D01*
X1977547Y3788527D01*
X1974967Y3791107D01*
X1971595Y3792504D01*
D02*
G37*
G36*
X1768395D02*
X1764745D01*
X1761373Y3791107D01*
X1758793Y3788527D01*
X1757396Y3785155D01*
Y3781505D01*
X1758793Y3778133D01*
X1761373Y3775553D01*
X1764745Y3774156D01*
X1768395D01*
X1771767Y3775553D01*
X1774347Y3778133D01*
X1775744Y3781505D01*
Y3785155D01*
X1774347Y3788527D01*
X1771767Y3791107D01*
X1768395Y3792504D01*
D02*
G37*
G36*
X2532929Y3778504D02*
X2529291D01*
X2525930Y3777112D01*
X2523358Y3774540D01*
X2521966Y3771179D01*
Y3767541D01*
X2523358Y3764180D01*
X2525930Y3761608D01*
X2529291Y3760216D01*
X2532929D01*
X2536290Y3761608D01*
X2538862Y3764180D01*
X2540254Y3767541D01*
Y3771179D01*
X2538862Y3774540D01*
X2536290Y3777112D01*
X2532929Y3778504D01*
D02*
G37*
G36*
X1971797Y3768120D02*
X1971040D01*
Y3759200D01*
X1979960D01*
Y3759957D01*
X1978409Y3763702D01*
X1975542Y3766569D01*
X1971797Y3768120D01*
D02*
G37*
G36*
X1968500D02*
X1967743D01*
X1963998Y3766569D01*
X1961131Y3763702D01*
X1959580Y3759957D01*
Y3759200D01*
X1968500D01*
Y3768120D01*
D02*
G37*
G36*
X3321659Y3776010D02*
X3318021D01*
X3314660Y3774617D01*
X3312088Y3772045D01*
X3310696Y3768684D01*
Y3765047D01*
X3312088Y3761686D01*
X3314660Y3759113D01*
X3318021Y3757722D01*
X3321659D01*
X3325020Y3759113D01*
X3327592Y3761686D01*
X3328984Y3765047D01*
Y3768684D01*
X3327592Y3772045D01*
X3325020Y3774617D01*
X3321659Y3776010D01*
D02*
G37*
G36*
X1979960Y3756660D02*
X1971040D01*
Y3747740D01*
X1971797D01*
X1975542Y3749291D01*
X1978409Y3752158D01*
X1979960Y3755903D01*
Y3756660D01*
D02*
G37*
G36*
X1968500D02*
X1959580D01*
Y3755903D01*
X1961131Y3752158D01*
X1963998Y3749291D01*
X1967743Y3747740D01*
X1968500D01*
Y3756660D01*
D02*
G37*
G36*
X3321861Y3751625D02*
X3321110D01*
Y3742736D01*
X3330000D01*
Y3743487D01*
X3328453Y3747221D01*
X3325595Y3750079D01*
X3321861Y3751625D01*
D02*
G37*
G36*
X3318570D02*
X3317819D01*
X3314084Y3750079D01*
X3311227Y3747221D01*
X3309680Y3743487D01*
Y3742736D01*
X3318570D01*
Y3751625D01*
D02*
G37*
G36*
X2792009Y3753104D02*
X2788371D01*
X2785010Y3751712D01*
X2782438Y3749140D01*
X2781046Y3745779D01*
Y3742141D01*
X2782438Y3738780D01*
X2785010Y3736208D01*
X2788371Y3734816D01*
X2792009D01*
X2795370Y3736208D01*
X2797942Y3738780D01*
X2799334Y3742141D01*
Y3745779D01*
X2797942Y3749140D01*
X2795370Y3751712D01*
X2792009Y3753104D01*
D02*
G37*
G36*
X2532929D02*
X2529291D01*
X2525930Y3751712D01*
X2523358Y3749140D01*
X2521966Y3745779D01*
Y3742141D01*
X2523358Y3738780D01*
X2525930Y3736208D01*
X2529291Y3734816D01*
X2532929D01*
X2536290Y3736208D01*
X2538862Y3738780D01*
X2540254Y3742141D01*
Y3745779D01*
X2538862Y3749140D01*
X2536290Y3751712D01*
X2532929Y3753104D01*
D02*
G37*
G36*
X3330000Y3740196D02*
X3321110D01*
Y3731306D01*
X3321861D01*
X3325595Y3732852D01*
X3328453Y3735710D01*
X3330000Y3739445D01*
Y3740196D01*
D02*
G37*
G36*
X3318570D02*
X3309680D01*
Y3739445D01*
X3311227Y3735710D01*
X3314084Y3732852D01*
X3317819Y3731306D01*
X3318570D01*
Y3740196D01*
D02*
G37*
G36*
X1971595Y3741704D02*
X1967945D01*
X1964573Y3740307D01*
X1961993Y3737727D01*
X1960596Y3734355D01*
Y3730705D01*
X1961993Y3727333D01*
X1964573Y3724753D01*
X1967945Y3723356D01*
X1971595D01*
X1974967Y3724753D01*
X1977547Y3727333D01*
X1978944Y3730705D01*
Y3734355D01*
X1977547Y3737727D01*
X1974967Y3740307D01*
X1971595Y3741704D01*
D02*
G37*
G36*
X2792211Y3728720D02*
X2791460D01*
Y3719830D01*
X2800350D01*
Y3720581D01*
X2798803Y3724315D01*
X2795945Y3727173D01*
X2792211Y3728720D01*
D02*
G37*
G36*
X2788920D02*
X2788169D01*
X2784435Y3727173D01*
X2781577Y3724315D01*
X2780030Y3720581D01*
Y3719830D01*
X2788920D01*
Y3728720D01*
D02*
G37*
G36*
X2800350Y3717290D02*
X2791460D01*
Y3708400D01*
X2792211D01*
X2795945Y3709947D01*
X2798803Y3712805D01*
X2800350Y3716539D01*
Y3717290D01*
D02*
G37*
G36*
X2788920D02*
X2780030D01*
Y3716539D01*
X2781577Y3712805D01*
X2784435Y3709947D01*
X2788169Y3708400D01*
X2788920D01*
Y3717290D01*
D02*
G37*
G36*
X3321659Y3725209D02*
X3318021D01*
X3314660Y3723817D01*
X3312088Y3721245D01*
X3310696Y3717885D01*
Y3714247D01*
X3312088Y3710886D01*
X3314660Y3708314D01*
X3318021Y3706921D01*
X3321659D01*
X3325020Y3708314D01*
X3327592Y3710886D01*
X3328984Y3714247D01*
Y3717885D01*
X3327592Y3721245D01*
X3325020Y3723817D01*
X3321659Y3725209D01*
D02*
G37*
G36*
X1971595Y3716304D02*
X1967945D01*
X1964573Y3714908D01*
X1961993Y3712327D01*
X1960596Y3708955D01*
Y3705305D01*
X1961993Y3701933D01*
X1964573Y3699353D01*
X1967945Y3697956D01*
X1971595D01*
X1974967Y3699353D01*
X1977547Y3701933D01*
X1978944Y3705305D01*
Y3708955D01*
X1977547Y3712327D01*
X1974967Y3714908D01*
X1971595Y3716304D01*
D02*
G37*
G36*
X2792009Y3702304D02*
X2788371D01*
X2785010Y3700912D01*
X2782438Y3698340D01*
X2781046Y3694979D01*
Y3691341D01*
X2782438Y3687980D01*
X2785010Y3685408D01*
X2788371Y3684016D01*
X2792009D01*
X2795370Y3685408D01*
X2797942Y3687980D01*
X2799334Y3691341D01*
Y3694979D01*
X2797942Y3698340D01*
X2795370Y3700912D01*
X2792009Y3702304D01*
D02*
G37*
G36*
X3321659Y3699810D02*
X3318021D01*
X3314660Y3698417D01*
X3312088Y3695845D01*
X3310696Y3692484D01*
Y3688847D01*
X3312088Y3685486D01*
X3314660Y3682914D01*
X3318021Y3681522D01*
X3321659D01*
X3325020Y3682914D01*
X3327592Y3685486D01*
X3328984Y3688847D01*
Y3692484D01*
X3327592Y3695845D01*
X3325020Y3698417D01*
X3321659Y3699810D01*
D02*
G37*
G36*
X1971595Y3690904D02*
X1967945D01*
X1964573Y3689507D01*
X1961993Y3686927D01*
X1960596Y3683555D01*
Y3679905D01*
X1961993Y3676533D01*
X1964573Y3673953D01*
X1967945Y3672556D01*
X1971595D01*
X1974967Y3673953D01*
X1977547Y3676533D01*
X1978944Y3679905D01*
Y3683555D01*
X1977547Y3686927D01*
X1974967Y3689507D01*
X1971595Y3690904D01*
D02*
G37*
G36*
X2792009Y3676904D02*
X2788371D01*
X2785010Y3675512D01*
X2782438Y3672940D01*
X2781046Y3669579D01*
Y3665941D01*
X2782438Y3662580D01*
X2785010Y3660008D01*
X2788371Y3658616D01*
X2792009D01*
X2795370Y3660008D01*
X2797942Y3662580D01*
X2799334Y3665941D01*
Y3669579D01*
X2797942Y3672940D01*
X2795370Y3675512D01*
X2792009Y3676904D01*
D02*
G37*
%LPD*%
D45*
X1856940Y4366260D02*
D03*
X1844440Y4588510D02*
D03*
D46*
X1881940Y4366260D02*
D03*
X1869440Y4588510D02*
D03*
D56*
X2024780Y4574540D02*
D03*
X2074780D02*
D03*
D58*
X2055930Y3961130D02*
D03*
X2043430D02*
D03*
X2043630Y4388050D02*
D03*
Y4400550D02*
D03*
D59*
X2528570Y4434840D02*
D03*
Y4460240D02*
D03*
Y4485640D02*
D03*
Y4511040D02*
D03*
X2771200Y4253275D02*
D03*
Y4278676D02*
D03*
Y4304076D02*
D03*
Y4329475D02*
D03*
X3087370Y3860800D02*
D03*
Y3886200D02*
D03*
Y3911600D02*
D03*
Y3937000D02*
D03*
X3336290Y4128770D02*
D03*
Y4154170D02*
D03*
Y4179570D02*
D03*
Y4204970D02*
D03*
X2790190Y3667760D02*
D03*
Y3693160D02*
D03*
Y3718560D02*
D03*
Y3743960D02*
D03*
X2768660Y4511086D02*
D03*
Y4536486D02*
D03*
Y4561885D02*
D03*
Y4587285D02*
D03*
X3313430Y4521200D02*
D03*
Y4546600D02*
D03*
Y4572000D02*
D03*
Y4597400D02*
D03*
X2531110Y3820160D02*
D03*
Y3794760D02*
D03*
Y3769360D02*
D03*
Y3743960D02*
D03*
X2523490Y4193540D02*
D03*
Y4168140D02*
D03*
Y4142740D02*
D03*
Y4117340D02*
D03*
X2781300Y3929380D02*
D03*
Y3954780D02*
D03*
Y3980180D02*
D03*
Y4005580D02*
D03*
X3319840Y3690666D02*
D03*
Y3716065D02*
D03*
Y3741465D02*
D03*
Y3766866D02*
D03*
X3082290Y4513580D02*
D03*
Y4488180D02*
D03*
Y4462780D02*
D03*
Y4437380D02*
D03*
D61*
X1694180Y4124960D02*
D03*
X3451860D02*
D03*
D62*
X1969770Y4037330D02*
D03*
Y4062730D02*
D03*
Y3834130D02*
D03*
Y3808730D02*
D03*
Y3783330D02*
D03*
Y3707130D02*
D03*
Y3732530D02*
D03*
Y3757930D02*
D03*
Y3681730D02*
D03*
X1766570Y4062730D02*
D03*
Y4037330D02*
D03*
Y4011930D02*
D03*
Y3783330D02*
D03*
Y3808730D02*
D03*
Y3834130D02*
D03*
Y3859530D02*
D03*
Y3884930D02*
D03*
Y3910330D02*
D03*
Y3935730D02*
D03*
Y3961130D02*
D03*
Y3986530D02*
D03*
X1969770Y4011930D02*
D03*
Y3986530D02*
D03*
Y3961130D02*
D03*
Y3935730D02*
D03*
Y3910330D02*
D03*
Y3884930D02*
D03*
Y3859530D02*
D03*
D64*
X1913870Y4447510D02*
D03*
D65*
Y4483110D02*
D03*
Y4518710D02*
D03*
X1791970Y4531360D02*
D03*
Y4434860D02*
D03*
D66*
X1722755Y3860165D02*
D03*
X1880870Y4311650D02*
D03*
X1837690Y4198620D02*
D03*
X1847850Y4315460D02*
D03*
X2329180Y4552950D02*
D03*
X2327910Y4516120D02*
D03*
X2303780Y4531360D02*
D03*
X2138680Y4498340D02*
D03*
Y4513580D02*
D03*
X2151380Y4530090D02*
D03*
X2073910Y4155440D02*
D03*
X2128520Y4196080D02*
D03*
X2095500Y4305300D02*
D03*
X1822450Y3961130D02*
D03*
X2032000Y4071620D02*
D03*
D67*
X2253130Y4525010D02*
D03*
Y4538010D02*
D03*
Y4512010D02*
D03*
X2240130D02*
D03*
Y4538010D02*
D03*
Y4525010D02*
D03*
M02*
