G04*
G04 #@! TF.GenerationSoftware,Altium Limited,Altium Designer,24.7.2 (38)*
G04*
G04 Layer_Color=128*
%FSLAX44Y44*%
%MOMM*%
G71*
G04*
G04 #@! TF.SameCoordinates,47DF3F7B-CD24-4F9F-A129-F279A797EA3D*
G04*
G04*
G04 #@! TF.FilePolarity,Positive*
G04*
G01*
G75*
%ADD16C,0.1270*%
D16*
X2018280Y4574540D02*
X2031280D01*
X2024780Y4568040D02*
Y4581040D01*
X2068280Y4574540D02*
X2081280D01*
X2074780Y4568040D02*
Y4581040D01*
X2053430Y3961130D02*
X2058430D01*
X2055930Y3958630D02*
Y3963630D01*
X2040930Y3961130D02*
X2045930D01*
X2043430Y3958630D02*
Y3963630D01*
X2523744Y4434840D02*
X2533396D01*
X2528570Y4430014D02*
Y4439666D01*
X2523744Y4460240D02*
X2533396D01*
X2528570Y4455414D02*
Y4465066D01*
X2523744Y4485640D02*
X2533396D01*
X2528570Y4480814D02*
Y4490466D01*
X2523744Y4511040D02*
X2533396D01*
X2528570Y4506214D02*
Y4515866D01*
X2766374Y4253275D02*
X2776026D01*
X2771200Y4248449D02*
Y4258102D01*
X2766374Y4278676D02*
X2776026D01*
X2771200Y4273849D02*
Y4283502D01*
X2766374Y4304076D02*
X2776026D01*
X2771200Y4299250D02*
Y4308901D01*
X2766374Y4329475D02*
X2776026D01*
X2771200Y4324649D02*
Y4334301D01*
X3082544Y3860800D02*
X3092196D01*
X3087370Y3855974D02*
Y3865626D01*
X3082544Y3886200D02*
X3092196D01*
X3087370Y3881374D02*
Y3891026D01*
X3082544Y3911600D02*
X3092196D01*
X3087370Y3906774D02*
Y3916426D01*
X3082544Y3937000D02*
X3092196D01*
X3087370Y3932174D02*
Y3941826D01*
X3331464Y4128770D02*
X3341116D01*
X3336290Y4123944D02*
Y4133596D01*
X3331464Y4154170D02*
X3341116D01*
X3336290Y4149344D02*
Y4158996D01*
X3331464Y4179570D02*
X3341116D01*
X3336290Y4174744D02*
Y4184396D01*
X3331464Y4204970D02*
X3341116D01*
X3336290Y4200144D02*
Y4209796D01*
X2785364Y3667760D02*
X2795016D01*
X2790190Y3662934D02*
Y3672586D01*
X2785364Y3693160D02*
X2795016D01*
X2790190Y3688334D02*
Y3697986D01*
X2785364Y3718560D02*
X2795016D01*
X2790190Y3713734D02*
Y3723386D01*
X2785364Y3743960D02*
X2795016D01*
X2790190Y3739134D02*
Y3748786D01*
X2763834Y4511086D02*
X2773486D01*
X2768660Y4506259D02*
Y4515912D01*
X2763834Y4536486D02*
X2773486D01*
X2768660Y4531660D02*
Y4541312D01*
X2763834Y4561885D02*
X2773486D01*
X2768660Y4557060D02*
Y4566711D01*
X2763834Y4587285D02*
X2773486D01*
X2768660Y4582459D02*
Y4592112D01*
X3308604Y4521200D02*
X3318256D01*
X3313430Y4516374D02*
Y4526026D01*
X3308604Y4546600D02*
X3318256D01*
X3313430Y4541774D02*
Y4551426D01*
X3308604Y4572000D02*
X3318256D01*
X3313430Y4567174D02*
Y4576826D01*
X3308604Y4597400D02*
X3318256D01*
X3313430Y4592574D02*
Y4602226D01*
X2526284Y3820160D02*
X2535936D01*
X2531110Y3815334D02*
Y3824986D01*
X2526284Y3794760D02*
X2535936D01*
X2531110Y3789934D02*
Y3799586D01*
X2526284Y3769360D02*
X2535936D01*
X2531110Y3764534D02*
Y3774186D01*
X2526284Y3743960D02*
X2535936D01*
X2531110Y3739134D02*
Y3748786D01*
X2518664Y4193540D02*
X2528316D01*
X2523490Y4188714D02*
Y4198366D01*
X2518664Y4168140D02*
X2528316D01*
X2523490Y4163314D02*
Y4172966D01*
X2518664Y4142740D02*
X2528316D01*
X2523490Y4137914D02*
Y4147566D01*
X2518664Y4117340D02*
X2528316D01*
X2523490Y4112514D02*
Y4122166D01*
X2776474Y3929380D02*
X2786126D01*
X2781300Y3924554D02*
Y3934206D01*
X2776474Y3954780D02*
X2786126D01*
X2781300Y3949954D02*
Y3959606D01*
X2776474Y3980180D02*
X2786126D01*
X2781300Y3975354D02*
Y3985006D01*
X2776474Y4005580D02*
X2786126D01*
X2781300Y4000754D02*
Y4010406D01*
X3315014Y3690666D02*
X3324666D01*
X3319840Y3685840D02*
Y3695492D01*
X3315014Y3716065D02*
X3324666D01*
X3319840Y3711240D02*
Y3720891D01*
X3315014Y3741465D02*
X3324666D01*
X3319840Y3736639D02*
Y3746292D01*
X3315014Y3766866D02*
X3324666D01*
X3319840Y3762039D02*
Y3771692D01*
X3077464Y4513580D02*
X3087116D01*
X3082290Y4508754D02*
Y4518406D01*
X3077464Y4488180D02*
X3087116D01*
X3082290Y4483354D02*
Y4493006D01*
X3077464Y4462780D02*
X3087116D01*
X3082290Y4457954D02*
Y4467606D01*
X3077464Y4437380D02*
X3087116D01*
X3082290Y4432554D02*
Y4442206D01*
X1671680Y4124960D02*
X1716680D01*
X1694180Y4102460D02*
Y4147460D01*
X3429360Y4124960D02*
X3474360D01*
X3451860Y4102460D02*
Y4147460D01*
X1853440Y4366260D02*
X1860440D01*
X1856940Y4362760D02*
Y4369760D01*
X1878440Y4366260D02*
X1885440D01*
X1881940Y4362760D02*
Y4369760D01*
X2041130Y4388050D02*
X2046130D01*
X2043630Y4385550D02*
Y4390550D01*
X2041130Y4400550D02*
X2046130D01*
X2043630Y4398050D02*
Y4403050D01*
X1964670Y4037330D02*
X1974870D01*
X1969770Y4032230D02*
Y4042430D01*
X1964670Y4062730D02*
X1974870D01*
X1969770Y4057630D02*
Y4067830D01*
X1964670Y3834130D02*
X1974870D01*
X1969770Y3829030D02*
Y3839230D01*
X1964670Y3808730D02*
X1974870D01*
X1969770Y3803630D02*
Y3813830D01*
X1964670Y3783330D02*
X1974870D01*
X1969770Y3778230D02*
Y3788430D01*
X1964670Y3707130D02*
X1974870D01*
X1969770Y3702030D02*
Y3712230D01*
X1964670Y3732530D02*
X1974870D01*
X1969770Y3727430D02*
Y3737630D01*
X1964670Y3757930D02*
X1974870D01*
X1969770Y3752830D02*
Y3763030D01*
X1964670Y3681730D02*
X1974870D01*
X1969770Y3676630D02*
Y3686830D01*
X1761470Y4062730D02*
X1771670D01*
X1766570Y4057630D02*
Y4067830D01*
X1761470Y4037330D02*
X1771670D01*
X1766570Y4032230D02*
Y4042430D01*
X1761470Y4011930D02*
X1771670D01*
X1766570Y4006830D02*
Y4017030D01*
X1761470Y3783330D02*
X1771670D01*
X1766570Y3778230D02*
Y3788430D01*
X1761470Y3808730D02*
X1771670D01*
X1766570Y3803630D02*
Y3813830D01*
X1761470Y3834130D02*
X1771670D01*
X1766570Y3829030D02*
Y3839230D01*
X1761470Y3859530D02*
X1771670D01*
X1766570Y3854430D02*
Y3864630D01*
X1761470Y3884930D02*
X1771670D01*
X1766570Y3879830D02*
Y3890030D01*
X1761470Y3910330D02*
X1771670D01*
X1766570Y3905230D02*
Y3915430D01*
X1761470Y3935730D02*
X1771670D01*
X1766570Y3930630D02*
Y3940830D01*
X1761470Y3961130D02*
X1771670D01*
X1766570Y3956030D02*
Y3966230D01*
X1761470Y3986530D02*
X1771670D01*
X1766570Y3981430D02*
Y3991630D01*
X1964670Y4011930D02*
X1974870D01*
X1969770Y4006830D02*
Y4017030D01*
X1964670Y3986530D02*
X1974870D01*
X1969770Y3981430D02*
Y3991630D01*
X1964670Y3961130D02*
X1974870D01*
X1969770Y3956030D02*
Y3966230D01*
X1964670Y3935730D02*
X1974870D01*
X1969770Y3930630D02*
Y3940830D01*
X1964670Y3910330D02*
X1974870D01*
X1969770Y3905230D02*
Y3915430D01*
X1964670Y3884930D02*
X1974870D01*
X1969770Y3879830D02*
Y3890030D01*
X1964670Y3859530D02*
X1974870D01*
X1969770Y3854430D02*
Y3864630D01*
X1906870Y4447510D02*
X1920870D01*
X1913870Y4440510D02*
Y4454510D01*
X1906870Y4483110D02*
X1920870D01*
X1913870Y4476110D02*
Y4490110D01*
X1906870Y4518710D02*
X1920870D01*
X1913870Y4511710D02*
Y4525710D01*
X1784970Y4531360D02*
X1798970D01*
X1791970Y4524360D02*
Y4538360D01*
X1784970Y4434860D02*
X1798970D01*
X1791970Y4427860D02*
Y4441860D01*
X1865940Y4588510D02*
X1872940D01*
X1869440Y4585010D02*
Y4592010D01*
X1840940Y4588510D02*
X1847940D01*
X1844440Y4585010D02*
Y4592010D01*
X1719199Y3860165D02*
X1726311D01*
X1722755Y3856609D02*
Y3863721D01*
X1877314Y4311650D02*
X1884426D01*
X1880870Y4308094D02*
Y4315206D01*
X1834134Y4198620D02*
X1841246D01*
X1837690Y4195064D02*
Y4202176D01*
X1844294Y4315460D02*
X1851406D01*
X1847850Y4311904D02*
Y4319016D01*
X2325624Y4552950D02*
X2332736D01*
X2329180Y4549394D02*
Y4556506D01*
X2324354Y4516120D02*
X2331466D01*
X2327910Y4512564D02*
Y4519676D01*
X2300224Y4531360D02*
X2307336D01*
X2303780Y4527804D02*
Y4534916D01*
X2135124Y4498340D02*
X2142236D01*
X2138680Y4494784D02*
Y4501896D01*
X2135124Y4513580D02*
X2142236D01*
X2138680Y4510024D02*
Y4517136D01*
X2147824Y4530090D02*
X2154936D01*
X2151380Y4526534D02*
Y4533646D01*
X2252130Y4525010D02*
X2254130D01*
X2253130Y4524010D02*
Y4526010D01*
X2252130Y4538010D02*
X2254130D01*
X2253130Y4537010D02*
Y4539010D01*
X2252130Y4512010D02*
X2254130D01*
X2253130Y4511010D02*
Y4513010D01*
X2239130Y4512010D02*
X2241130D01*
X2240130Y4511010D02*
Y4513010D01*
X2239130Y4538010D02*
X2241130D01*
X2240130Y4537010D02*
Y4539010D01*
X2239130Y4525010D02*
X2241130D01*
X2240130Y4524010D02*
Y4526010D01*
X2070354Y4155440D02*
X2077466D01*
X2073910Y4151884D02*
Y4158996D01*
X2124964Y4196080D02*
X2132076D01*
X2128520Y4192524D02*
Y4199636D01*
X2091944Y4305300D02*
X2099056D01*
X2095500Y4301744D02*
Y4308856D01*
X1818894Y3961130D02*
X1826006D01*
X1822450Y3957574D02*
Y3964686D01*
X2028444Y4071620D02*
X2035556D01*
X2032000Y4068064D02*
Y4075176D01*
M02*
