G04*
G04 #@! TF.GenerationSoftware,Altium Limited,Altium Designer,24.7.2 (38)*
G04*
G04 Layer_Color=16711935*
%FSLAX44Y44*%
%MOMM*%
G71*
G04*
G04 #@! TF.SameCoordinates,47DF3F7B-CD24-4F9F-A129-F279A797EA3D*
G04*
G04*
G04 #@! TF.FilePolarity,Positive*
G04*
G01*
G75*
%ADD11C,0.2800*%
%ADD13C,0.2000*%
%ADD14C,0.1500*%
%ADD16C,0.1270*%
%ADD17C,0.1000*%
%ADD69C,0.0000*%
%ADD70C,0.0254*%
D11*
X2089180Y4559540D02*
G03*
X2089180Y4559540I-1400J0D01*
G01*
D13*
X1939920Y4446610D02*
G03*
X1939920Y4446610I-1000J0D01*
G01*
X1775560Y4250850D02*
X1788060D01*
Y4270850D01*
X1775560D02*
X1788060D01*
X1775560Y4250850D02*
Y4270850D01*
X2297530Y4518500D02*
X2310030D01*
X2297530Y4498500D02*
Y4518500D01*
Y4498500D02*
X2310030D01*
Y4518500D01*
X2309290Y4581510D02*
Y4595510D01*
Y4581510D02*
X2331290D01*
Y4595510D01*
X2309290D02*
X2331290D01*
X2176880Y4498500D02*
X2189380D01*
Y4518500D01*
X2176880D02*
X2189380D01*
X2176880Y4498500D02*
Y4518500D01*
X2265250Y4581510D02*
Y4595510D01*
Y4581510D02*
X2287250D01*
Y4595510D01*
X2265250D02*
X2287250D01*
X1746620Y4492420D02*
X1761120D01*
Y4514420D01*
X1746620D02*
X1761120D01*
X1746620Y4492420D02*
Y4514420D01*
X2067460Y4287680D02*
Y4307680D01*
X2054960Y4287680D02*
X2067460D01*
X2054960D02*
Y4307680D01*
X2067460D01*
D14*
X1903440Y4366260D02*
G03*
X1903440Y4366260I-34000J0D01*
G01*
X1890940Y4588510D02*
G03*
X1890940Y4588510I-34000J0D01*
G01*
D16*
X1957070Y3618230D02*
G03*
X1982470Y3643630I0J25400D01*
G01*
X1753870D02*
G03*
X1779270Y3618230I25400J0D01*
G01*
Y4126230D02*
G03*
X1753870Y4100830I0J-25400D01*
G01*
X1982470D02*
G03*
X1957070Y4126230I-25400J0D01*
G01*
X1999780Y4617540D02*
X2099780D01*
X1999780Y4534540D02*
Y4617540D01*
Y4534540D02*
X2099780D01*
Y4617540D01*
X1779270Y3618230D02*
X1957070D01*
X1753870Y3643630D02*
Y4100830D01*
X1779270Y4126230D02*
X1957070D01*
X1982470Y3643630D02*
Y4100830D01*
X1929120Y4419610D02*
Y4546610D01*
X1776720D02*
X1929120D01*
X1776720Y4419610D02*
Y4546610D01*
Y4419610D02*
X1929120D01*
D17*
X2240630Y4541010D02*
G03*
X2240630Y4541010I-5000J0D01*
G01*
X1889360Y4246540D02*
X1902860D01*
X1889360Y4267540D02*
X1902860D01*
X1889360Y4246540D02*
Y4267540D01*
X1902860Y4246540D02*
Y4267540D01*
X1805460Y4275540D02*
X1872460D01*
X1805460Y4238540D02*
X1872460D01*
Y4275540D01*
X1805460Y4238540D02*
Y4275540D01*
X2226630Y4500010D02*
X2266630D01*
X2226630Y4550010D02*
X2266630D01*
Y4500010D02*
Y4550010D01*
X2226630Y4500010D02*
Y4550010D01*
D69*
X2026298Y4298823D02*
G03*
X2026298Y4298823I-1270J0D01*
G01*
D70*
X2012849Y4301363D02*
X2021231D01*
Y4319270D01*
X2012849D02*
X2021231D01*
X2012849Y4301363D02*
Y4319270D01*
X1989849Y4301363D02*
X1998231D01*
Y4319270D01*
X1989849D02*
X1998231D01*
X1989849Y4301363D02*
Y4319270D01*
X1966849Y4301363D02*
X1975231D01*
Y4319270D01*
X1966849D02*
X1975231D01*
X1966849Y4301363D02*
Y4319270D01*
X1978546Y4264279D02*
X2009534D01*
X1978546Y4246372D02*
Y4264279D01*
Y4246372D02*
X2009534D01*
Y4264279D01*
X1960512Y4301363D02*
X2027568D01*
X1960512Y4264279D02*
Y4301363D01*
Y4264279D02*
X2027568D01*
Y4301363D01*
M02*
