G04*
G04 #@! TF.GenerationSoftware,Altium Limited,Altium Designer,24.7.2 (38)*
G04*
G04 Layer_Physical_Order=1*
G04 Layer_Color=255*
%FSLAX44Y44*%
%MOMM*%
G71*
G04*
G04 #@! TF.SameCoordinates,47DF3F7B-CD24-4F9F-A129-F279A797EA3D*
G04*
G04*
G04 #@! TF.FilePolarity,Positive*
G04*
G01*
G75*
%ADD12C,0.2540*%
%ADD18R,1.2621X0.9578*%
%ADD19R,1.5000X1.4000*%
%ADD20R,1.0000X2.2000*%
%ADD21R,3.3000X2.2000*%
%ADD22R,0.9500X1.4500*%
G04:AMPARAMS|DCode=23|XSize=0.65mm|YSize=1.65mm|CornerRadius=0.0488mm|HoleSize=0mm|Usage=FLASHONLY|Rotation=90.000|XOffset=0mm|YOffset=0mm|HoleType=Round|Shape=RoundedRectangle|*
%AMROUNDEDRECTD23*
21,1,0.6500,1.5525,0,0,90.0*
21,1,0.5525,1.6500,0,0,90.0*
1,1,0.0975,0.7763,0.2763*
1,1,0.0975,0.7763,-0.2763*
1,1,0.0975,-0.7763,-0.2763*
1,1,0.0975,-0.7763,0.2763*
%
%ADD23ROUNDEDRECTD23*%
G04:AMPARAMS|DCode=24|XSize=2.4mm|YSize=3.1mm|CornerRadius=0.048mm|HoleSize=0mm|Usage=FLASHONLY|Rotation=0.000|XOffset=0mm|YOffset=0mm|HoleType=Round|Shape=RoundedRectangle|*
%AMROUNDEDRECTD24*
21,1,2.4000,3.0040,0,0,0.0*
21,1,2.3040,3.1000,0,0,0.0*
1,1,0.0960,1.1520,-1.5020*
1,1,0.0960,-1.1520,-1.5020*
1,1,0.0960,-1.1520,1.5020*
1,1,0.0960,1.1520,1.5020*
%
%ADD24ROUNDEDRECTD24*%
%ADD25R,1.0500X0.6000*%
%ADD26O,1.6000X0.3600*%
%ADD27R,1.6000X0.3600*%
%ADD28R,0.8890X1.4732*%
%ADD29R,3.1496X1.4732*%
%ADD45R,1.2000X1.2000*%
%ADD46C,1.2000*%
%ADD52R,0.9000X0.6000*%
%ADD53R,0.6000X0.9000*%
%ADD54C,0.3810*%
%ADD55C,0.5080*%
%ADD56C,1.9500*%
%ADD57R,1.9500X1.9500*%
%ADD58C,1.0000*%
%ADD59C,1.5240*%
%ADD60R,1.5240X1.5240*%
%ADD61C,4.5000*%
%ADD62C,1.5300*%
%ADD63R,1.5300X1.5300*%
%ADD64R,2.1000X2.1000*%
%ADD65C,2.1000*%
%ADD66C,1.2700*%
%ADD67C,0.5000*%
G36*
X2341880Y4425950D02*
X2280258D01*
X2279772Y4427123D01*
X2329924Y4477276D01*
X2329924Y4477276D01*
X2330542Y4478200D01*
X2330759Y4479290D01*
X2330759Y4479290D01*
Y4508731D01*
X2330949Y4508783D01*
X2332745Y4509819D01*
X2334211Y4511285D01*
X2335247Y4513081D01*
X2335784Y4515083D01*
Y4517157D01*
X2335247Y4519159D01*
X2334211Y4520955D01*
X2332745Y4522421D01*
X2330949Y4523457D01*
X2328947Y4523994D01*
X2326873D01*
X2324871Y4523457D01*
X2323075Y4522421D01*
X2321609Y4520955D01*
X2320573Y4519159D01*
X2320522Y4518969D01*
X2311615D01*
Y4522085D01*
X2298923D01*
X2298437Y4523258D01*
X2299765Y4524586D01*
X2300741Y4524023D01*
X2302743Y4523486D01*
X2304817D01*
X2306819Y4524023D01*
X2308615Y4525059D01*
X2310081Y4526525D01*
X2311117Y4528321D01*
X2311654Y4530323D01*
Y4532397D01*
X2311117Y4534399D01*
X2310081Y4536195D01*
X2308615Y4537661D01*
X2306819Y4538698D01*
X2304817Y4539234D01*
X2302743D01*
X2300741Y4538698D01*
X2298945Y4537661D01*
X2297479Y4536195D01*
X2296443Y4534399D01*
X2295906Y4532397D01*
Y4530323D01*
X2296231Y4529110D01*
X2288630Y4521509D01*
X2284676D01*
X2284537Y4522207D01*
X2284093Y4522873D01*
X2283427Y4523317D01*
X2282643Y4523474D01*
X2267117D01*
X2266333Y4523317D01*
X2265667Y4522873D01*
X2265223Y4522207D01*
X2265067Y4521422D01*
Y4515898D01*
X2265223Y4515113D01*
X2265667Y4514447D01*
X2266333Y4514003D01*
X2267117Y4513847D01*
X2282643D01*
X2283427Y4514003D01*
X2284093Y4514447D01*
X2284537Y4515113D01*
X2284676Y4515811D01*
X2289810D01*
X2289810Y4515811D01*
X2289810Y4515811D01*
X2295945D01*
Y4509827D01*
X2295945Y4509459D01*
X2295057Y4508557D01*
X2294929D01*
Y4502498D01*
X2303780D01*
X2312631D01*
Y4508557D01*
X2312503D01*
X2311615Y4509459D01*
X2311615Y4509827D01*
Y4513271D01*
X2320522D01*
X2320573Y4513081D01*
X2321609Y4511285D01*
X2323075Y4509819D01*
X2324871Y4508783D01*
X2325061Y4508731D01*
Y4480470D01*
X2270541Y4425950D01*
X2160270D01*
Y4508120D01*
X2173051D01*
X2174279Y4507951D01*
Y4502498D01*
X2183130D01*
X2191981D01*
Y4508557D01*
X2191853D01*
X2190965Y4509459D01*
Y4515164D01*
X2208712D01*
X2208723Y4515113D01*
X2209167Y4514447D01*
X2209833Y4514003D01*
X2210618Y4513847D01*
X2226142D01*
X2226927Y4514003D01*
X2227593Y4514447D01*
X2228037Y4515113D01*
X2228193Y4515898D01*
Y4521422D01*
X2228037Y4522207D01*
X2227593Y4522873D01*
X2226927Y4523317D01*
X2226142Y4523474D01*
X2210618D01*
X2209833Y4523317D01*
X2209167Y4522873D01*
X2208723Y4522207D01*
X2208712Y4522156D01*
X2193681D01*
X2192891Y4523426D01*
X2192997Y4523640D01*
X2193015Y4523915D01*
X2193153Y4524153D01*
X2193055Y4524521D01*
X2193080Y4524900D01*
X2192899Y4525107D01*
X2192828Y4525373D01*
X2192339Y4526013D01*
X2192239Y4526070D01*
X2192195Y4526176D01*
X2191705Y4526379D01*
X2191246Y4526645D01*
X2192425Y4527876D01*
X2208710D01*
X2208723Y4527813D01*
X2209167Y4527147D01*
X2209833Y4526703D01*
X2210618Y4526547D01*
X2226142D01*
X2226927Y4526703D01*
X2227593Y4527147D01*
X2228037Y4527813D01*
X2228193Y4528597D01*
Y4534123D01*
X2228037Y4534907D01*
X2227593Y4535573D01*
X2226927Y4536017D01*
X2226142Y4536173D01*
X2210618D01*
X2209833Y4536017D01*
X2209167Y4535573D01*
X2208723Y4534907D01*
X2208567Y4534123D01*
Y4533574D01*
X2160270D01*
Y4617720D01*
X2341880D01*
Y4425950D01*
D02*
G37*
G36*
X2191518Y4524371D02*
X2190891Y4523101D01*
X2184400D01*
Y4515772D01*
X2183130D01*
Y4514502D01*
X2174279D01*
Y4509770D01*
X2155190D01*
X2151380Y4505960D01*
Y4486910D01*
X2122170D01*
Y4525010D01*
X2145325D01*
X2146545Y4523789D01*
X2148341Y4522753D01*
X2150343Y4522216D01*
X2152417D01*
X2154419Y4522753D01*
X2156215Y4523789D01*
X2157435Y4525010D01*
X2191029D01*
X2191518Y4524371D01*
D02*
G37*
%LPC*%
G36*
X2316814Y4597284D02*
X2304266D01*
Y4591359D01*
X2292274D01*
Y4597284D01*
X2279726D01*
Y4579736D01*
X2292274D01*
Y4585661D01*
X2295421D01*
Y4550930D01*
X2286999Y4542508D01*
X2286319Y4542790D01*
X2276150D01*
Y4538211D01*
X2280808D01*
X2281286Y4537098D01*
X2280540Y4536173D01*
X2267117D01*
X2266333Y4536017D01*
X2265667Y4535573D01*
X2265223Y4534907D01*
X2265067Y4534123D01*
Y4528597D01*
X2265223Y4527813D01*
X2265667Y4527147D01*
X2266333Y4526703D01*
X2267117Y4526547D01*
X2282643D01*
X2283427Y4526703D01*
X2284093Y4527147D01*
X2284537Y4527813D01*
X2284693Y4528597D01*
Y4532145D01*
X2300284Y4547736D01*
X2300284Y4547736D01*
X2300902Y4548660D01*
X2301119Y4549750D01*
X2301119Y4549750D01*
Y4585661D01*
X2304266D01*
Y4579736D01*
X2316814D01*
Y4597284D01*
D02*
G37*
G36*
X2273790Y4598300D02*
X2267770D01*
Y4589780D01*
X2273790D01*
Y4598300D01*
D02*
G37*
G36*
X2265230D02*
X2259210D01*
Y4589780D01*
X2265230D01*
Y4598300D01*
D02*
G37*
G36*
X2273790Y4587240D02*
X2267770D01*
Y4578720D01*
X2273790D01*
Y4587240D01*
D02*
G37*
G36*
X2265230D02*
X2259210D01*
Y4578720D01*
X2265230D01*
Y4587240D01*
D02*
G37*
G36*
X2282643Y4549909D02*
X2276150D01*
Y4545330D01*
X2285729D01*
Y4546823D01*
X2285494Y4548004D01*
X2284825Y4549005D01*
X2283824Y4549674D01*
X2282643Y4549909D01*
D02*
G37*
G36*
X2273610D02*
X2267117D01*
X2265936Y4549674D01*
X2264935Y4549005D01*
X2264266Y4548004D01*
X2264031Y4546823D01*
Y4545330D01*
X2273610D01*
Y4549909D01*
D02*
G37*
G36*
X2336314Y4597284D02*
X2323766D01*
Y4579736D01*
X2326544D01*
Y4560396D01*
X2326141Y4560287D01*
X2324345Y4559251D01*
X2322879Y4557785D01*
X2321843Y4555989D01*
X2321306Y4553987D01*
Y4551913D01*
X2321843Y4549911D01*
X2322879Y4548115D01*
X2324345Y4546649D01*
X2326141Y4545612D01*
X2328143Y4545076D01*
X2330217D01*
X2332219Y4545612D01*
X2334015Y4546649D01*
X2335481Y4548115D01*
X2336517Y4549911D01*
X2337054Y4551913D01*
Y4553987D01*
X2336517Y4555989D01*
X2335481Y4557785D01*
X2334015Y4559251D01*
X2333536Y4559527D01*
Y4579736D01*
X2336314D01*
Y4597284D01*
D02*
G37*
G36*
X2226142Y4548873D02*
X2210618D01*
X2209833Y4548717D01*
X2209167Y4548273D01*
X2208723Y4547607D01*
X2208567Y4546823D01*
Y4541298D01*
X2208723Y4540513D01*
X2209167Y4539847D01*
X2209833Y4539403D01*
X2210618Y4539247D01*
X2226142D01*
X2226927Y4539403D01*
X2227593Y4539847D01*
X2228037Y4540513D01*
X2228193Y4541298D01*
Y4546823D01*
X2228037Y4547607D01*
X2227593Y4548273D01*
X2226927Y4548717D01*
X2226142Y4548873D01*
D02*
G37*
G36*
X2273610Y4542790D02*
X2264031D01*
Y4541298D01*
X2264266Y4540116D01*
X2264935Y4539115D01*
X2265936Y4538446D01*
X2267117Y4538211D01*
X2273610D01*
Y4542790D01*
D02*
G37*
G36*
X2258150Y4543109D02*
X2247900D01*
Y4526280D01*
X2261229D01*
Y4540030D01*
X2260995Y4541208D01*
X2260327Y4542207D01*
X2259328Y4542875D01*
X2258150Y4543109D01*
D02*
G37*
G36*
X2245360D02*
X2235110D01*
X2233932Y4542875D01*
X2232933Y4542207D01*
X2232265Y4541208D01*
X2232031Y4540030D01*
Y4526280D01*
X2245360D01*
Y4543109D01*
D02*
G37*
G36*
X2261229Y4523740D02*
X2247900D01*
Y4506911D01*
X2258150D01*
X2259328Y4507145D01*
X2260327Y4507813D01*
X2260995Y4508812D01*
X2261229Y4509990D01*
Y4523740D01*
D02*
G37*
G36*
X2245360D02*
X2232031D01*
Y4509990D01*
X2232265Y4508812D01*
X2232933Y4507813D01*
X2233932Y4507145D01*
X2235110Y4506911D01*
X2245360D01*
Y4523740D01*
D02*
G37*
G36*
X2282643Y4510773D02*
X2267117D01*
X2266333Y4510617D01*
X2265667Y4510173D01*
X2265223Y4509507D01*
X2265067Y4508723D01*
Y4503198D01*
X2265223Y4502413D01*
X2265667Y4501747D01*
X2266333Y4501303D01*
X2267117Y4501147D01*
X2282643D01*
X2283427Y4501303D01*
X2284093Y4501747D01*
X2284537Y4502413D01*
X2284693Y4503198D01*
Y4508723D01*
X2284537Y4509507D01*
X2284093Y4510173D01*
X2283427Y4510617D01*
X2282643Y4510773D01*
D02*
G37*
G36*
X2226142D02*
X2210618D01*
X2209833Y4510617D01*
X2209167Y4510173D01*
X2208723Y4509507D01*
X2208567Y4508723D01*
Y4503198D01*
X2208723Y4502413D01*
X2209167Y4501747D01*
X2209833Y4501303D01*
X2210618Y4501147D01*
X2226142D01*
X2226927Y4501303D01*
X2227593Y4501747D01*
X2228037Y4502413D01*
X2228193Y4503198D01*
Y4508723D01*
X2228037Y4509507D01*
X2227593Y4510173D01*
X2226927Y4510617D01*
X2226142Y4510773D01*
D02*
G37*
G36*
X2312631Y4499958D02*
X2305050D01*
Y4493899D01*
X2312631D01*
Y4499958D01*
D02*
G37*
G36*
X2302510D02*
X2294929D01*
Y4493899D01*
X2302510D01*
Y4499958D01*
D02*
G37*
G36*
X2191981D02*
X2184400D01*
Y4493899D01*
X2191981D01*
Y4499958D01*
D02*
G37*
G36*
X2181860D02*
X2174279D01*
Y4493899D01*
X2181860D01*
Y4499958D01*
D02*
G37*
G36*
X2181860Y4523101D02*
X2174279D01*
Y4517042D01*
X2181860D01*
Y4523101D01*
D02*
G37*
G36*
X2139950Y4522443D02*
Y4514850D01*
X2147543D01*
X2146964Y4517011D01*
X2145794Y4519039D01*
X2144139Y4520694D01*
X2142111Y4521864D01*
X2139950Y4522443D01*
D02*
G37*
G36*
X2137410D02*
X2135249Y4521864D01*
X2133221Y4520694D01*
X2131566Y4519039D01*
X2130396Y4517011D01*
X2129817Y4514850D01*
X2137410D01*
Y4522443D01*
D02*
G37*
G36*
X2147543Y4512310D02*
X2129817D01*
X2130396Y4510149D01*
X2131566Y4508121D01*
X2132934Y4506754D01*
X2133109Y4505960D01*
X2132934Y4505166D01*
X2131566Y4503799D01*
X2130396Y4501772D01*
X2129817Y4499610D01*
X2147543D01*
X2146964Y4501772D01*
X2145794Y4503799D01*
X2144426Y4505166D01*
X2144251Y4505960D01*
X2144426Y4506754D01*
X2145794Y4508121D01*
X2146964Y4510149D01*
X2147543Y4512310D01*
D02*
G37*
G36*
Y4497070D02*
X2139950D01*
Y4489477D01*
X2142111Y4490056D01*
X2144139Y4491226D01*
X2145794Y4492881D01*
X2146964Y4494909D01*
X2147543Y4497070D01*
D02*
G37*
G36*
X2137410D02*
X2129817D01*
X2130396Y4494909D01*
X2131566Y4492881D01*
X2133221Y4491226D01*
X2135249Y4490056D01*
X2137410Y4489477D01*
Y4497070D01*
D02*
G37*
%LPD*%
D12*
X1704340Y3847962D02*
X1705828Y3846475D01*
X1754225D01*
X1704340Y3847962D02*
Y3910167D01*
X1725930Y3931757D01*
X1733215Y4040525D02*
Y4248518D01*
X1725930Y4033240D02*
X1733215Y4040525D01*
Y4248518D02*
X1752818Y4268122D01*
X1725930Y3931757D02*
Y4033240D01*
X1754225Y3846475D02*
X1766570Y3834130D01*
X1752818Y4268122D02*
X1781810D01*
X1722755Y3860165D02*
X1765935D01*
X1880570Y4311650D02*
X1880870D01*
X1861960Y4287040D02*
Y4293040D01*
X1880570Y4311650D01*
X1861960Y4287040D02*
X1875110D01*
X1895610Y4266540D01*
X1896110D01*
X1781810Y4268122D02*
X1783332D01*
X1802250Y4287040D01*
X1815960D01*
X2327910Y4479290D02*
Y4516120D01*
X2022906Y4380256D02*
X2228876D01*
X1986280Y4343630D02*
X2022906Y4380256D01*
X1986280Y4342130D02*
Y4343630D01*
X2228876Y4380256D02*
X2327910Y4479290D01*
X1971040Y4315460D02*
Y4318381D01*
X1986280Y4333621D02*
Y4342130D01*
X1971040Y4318381D02*
X1986280Y4333621D01*
X2304128Y4516120D02*
X2327910D01*
X2303780Y4515772D02*
X2304128Y4516120D01*
X2289810Y4518660D02*
X2300892D01*
X2289810D02*
X2302510Y4531360D01*
X2303780D01*
X2274880Y4518660D02*
X2289810D01*
X2300892D02*
X2303780Y4515772D01*
X2298270Y4588510D02*
X2310540D01*
X2286000D02*
X2298270D01*
X2279880Y4531360D02*
X2298270Y4549750D01*
Y4588510D01*
X2274880Y4531360D02*
X2279880D01*
X2152015Y4530725D02*
X2217745D01*
X2151380Y4530090D02*
X2152015Y4530725D01*
X2217745D02*
X2218380Y4531360D01*
X3337560Y4154170D02*
X3338830Y4152900D01*
X3336290Y4154170D02*
X3337560D01*
X3326130D02*
X3336290D01*
X3228340Y4251960D02*
X3326130Y4154170D01*
X3228340Y4251960D02*
Y4307840D01*
X3130550Y4405630D02*
X3228340Y4307840D01*
X2203210Y4114740D02*
X2239070D01*
X2331665Y4022144D01*
Y3735125D02*
Y4022144D01*
X2249220Y4121100D02*
X2396490Y3973830D01*
X2203210Y4121100D02*
X2249220D01*
X2396490Y3739701D02*
Y3973830D01*
Y3739701D02*
X2478844Y3657346D01*
X2476718Y3686864D02*
X2771086D01*
X2475230Y3688352D02*
Y3915410D01*
X2263180Y4127460D02*
X2475230Y3915410D01*
Y3688352D02*
X2476718Y3686864D01*
X2478844Y3657346D02*
X2858516D01*
X3087370Y3886200D01*
X2499360Y3744178D02*
Y3925570D01*
Y3744178D02*
X2500848Y3742690D01*
X2529840D01*
X2531110Y3743960D01*
X2331665Y3735125D02*
X2459990Y3606800D01*
X3235974D02*
X3319840Y3690666D01*
X2459990Y3606800D02*
X3235974D01*
X2203210Y4127460D02*
X2263180D01*
X2203210Y4133820D02*
X2291110D01*
X2499360Y3925570D01*
X2771086Y3686864D02*
X2790190Y3667760D01*
X2388482Y4140180D02*
X2599282Y3929380D01*
X2203210Y4140180D02*
X2388482D01*
X2599282Y3929380D02*
X2781300D01*
X2494290Y4146540D02*
X2523490Y4117340D01*
X2203210Y4146540D02*
X2494290D01*
X2769975Y4254500D02*
X2771200Y4253275D01*
X2411730Y4254500D02*
X2769975D01*
X2310130Y4152900D02*
X2411730Y4254500D01*
X2203210Y4152900D02*
X2310130D01*
X2532380Y4405630D02*
X3130550D01*
X2286010Y4159260D02*
X2532380Y4405630D01*
X2203210Y4159260D02*
X2286010D01*
X2221230Y4173468D02*
Y4240530D01*
X2203210Y4171980D02*
X2219742D01*
X2221230Y4173468D01*
X2702665Y4577080D02*
X2768660Y4511086D01*
X2221230Y4240530D02*
X2557780Y4577080D01*
X2702665D01*
X2214004Y4254894D02*
X2556810Y4597700D01*
X2214004Y4182797D02*
Y4254894D01*
X2209547Y4178340D02*
X2214004Y4182797D01*
X2203210Y4178340D02*
X2209547D01*
X2556810Y4597700D02*
X2947371D01*
X2259350Y4165620D02*
X2528570Y4434840D01*
X2203210Y4165620D02*
X2259350D01*
X2947371Y4597700D02*
X3082290Y4462780D01*
X2203210Y4263150D02*
X2586990Y4646930D01*
X3187700D01*
X2203210Y4184700D02*
Y4263150D01*
X3187700Y4646930D02*
X3313430Y4521200D01*
X2139661Y4139977D02*
X2149907D01*
X2125901Y4126218D02*
X2139661Y4139977D01*
X2149907D02*
X2150110Y4140180D01*
X1774210Y4513580D02*
X1791980Y4531350D01*
X1751915Y4513580D02*
X1774210D01*
X2128520Y4179436D02*
X2142134Y4165822D01*
X2128520Y4179436D02*
Y4196080D01*
X2149907Y4165822D02*
X2150110Y4165620D01*
X2142134Y4165822D02*
X2149907D01*
X1935698Y3986530D02*
X1969770D01*
X1932940Y3989288D02*
X1935698Y3986530D01*
X1932940Y3989288D02*
Y4086642D01*
X1934428Y4088130D01*
X2109366D01*
X2141586Y4120350D01*
X2142873D01*
X2143623Y4121100D01*
X2150110D01*
X1922998Y3961130D02*
X1969770D01*
X1921510Y3962618D02*
X1922998Y3961130D01*
X1921510Y3962618D02*
Y4107180D01*
X1923585Y4109255D01*
X2123307D01*
X2141309Y4127257D01*
X2149907D01*
X2150110Y4127460D01*
X1766570Y3986530D02*
X1769135D01*
X1908822Y4126218D01*
X2125901D01*
X1766570Y3961130D02*
X1822450D01*
X2032000Y4071620D02*
X2100790D01*
X2143910Y4114740D01*
X2150110D01*
X1765935Y3860165D02*
X1766570Y3859530D01*
X1910298Y3935730D02*
X1969770D01*
X1908810Y3937218D02*
X1910298Y3935730D01*
X1908810Y3937218D02*
Y4115852D01*
X1911520Y4118562D01*
X2125430D01*
X2139938Y4133070D01*
X2142873D01*
X2143623Y4133820D01*
X2150110D01*
D18*
X1781810Y4268122D02*
D03*
Y4253578D02*
D03*
X2303780Y4501228D02*
D03*
Y4515772D02*
D03*
X2183130D02*
D03*
Y4501228D02*
D03*
X2061210Y4304952D02*
D03*
Y4290408D02*
D03*
D19*
X1896110Y4247540D02*
D03*
Y4266540D02*
D03*
D20*
X1861960Y4287040D02*
D03*
X1838960D02*
D03*
X1815960D02*
D03*
D21*
X1838960Y4227040D02*
D03*
D22*
X2330040Y4588510D02*
D03*
X2310540D02*
D03*
X2286000D02*
D03*
X2266500D02*
D03*
D23*
X2274880Y4505960D02*
D03*
Y4518660D02*
D03*
Y4531360D02*
D03*
Y4544060D02*
D03*
X2218380Y4505960D02*
D03*
Y4518660D02*
D03*
Y4531360D02*
D03*
Y4544060D02*
D03*
D24*
X2246630Y4525010D02*
D03*
D25*
X1753870Y4512920D02*
D03*
Y4493920D02*
D03*
D26*
X2150110Y4184700D02*
D03*
Y4178340D02*
D03*
Y4171980D02*
D03*
Y4165620D02*
D03*
Y4159260D02*
D03*
Y4152900D02*
D03*
Y4146540D02*
D03*
Y4140180D02*
D03*
Y4133820D02*
D03*
Y4127460D02*
D03*
Y4121100D02*
D03*
Y4114740D02*
D03*
X2203210Y4184700D02*
D03*
Y4178340D02*
D03*
Y4171980D02*
D03*
Y4165620D02*
D03*
Y4159260D02*
D03*
Y4152900D02*
D03*
Y4146540D02*
D03*
Y4140180D02*
D03*
Y4133820D02*
D03*
Y4127460D02*
D03*
Y4121100D02*
D03*
D27*
Y4114740D02*
D03*
D28*
X2017040Y4315460D02*
D03*
X1994040D02*
D03*
X1971040D02*
D03*
D29*
X1994040Y4250182D02*
D03*
D45*
X1856940Y4366260D02*
D03*
X1844440Y4588510D02*
D03*
D46*
X1881940Y4366260D02*
D03*
X1869440Y4588510D02*
D03*
D52*
X2118360Y4133850D02*
D03*
Y4147820D02*
D03*
Y4175760D02*
D03*
Y4161790D02*
D03*
D53*
X2000250Y4342130D02*
D03*
X1986280D02*
D03*
D54*
X1838960Y4287040D02*
Y4306570D01*
X1847850Y4315460D01*
X1837690Y4198620D02*
Y4225770D01*
X1838960Y4227040D01*
X1781810Y4253578D02*
X1783332D01*
X1809870Y4227040D02*
X1838960D01*
X1783332Y4253578D02*
X1809870Y4227040D01*
X1895610Y4247540D02*
X1896110D01*
X1875110Y4227040D02*
X1895610Y4247540D01*
X1838960Y4227040D02*
X1875110D01*
X1996680Y4447500D02*
X2024780Y4419400D01*
Y4574540D01*
Y4419400D02*
X2043630Y4400550D01*
X2329180Y4552950D02*
X2330040Y4553810D01*
Y4588510D01*
X2184652Y4515772D02*
X2187540Y4518660D01*
X2218380D01*
X2183130Y4515772D02*
X2184652D01*
X2118360Y4154805D02*
Y4161790D01*
X2085340Y4154805D02*
X2118360D01*
Y4147820D02*
Y4154805D01*
X2124325Y4174665D02*
X2139730Y4159260D01*
X2118360Y4175760D02*
X2119455Y4174665D01*
X2124325D01*
X2086610Y4175760D02*
X2118360D01*
X2137307Y4152890D02*
X2144015D01*
X2139730Y4159260D02*
X2150110D01*
X2120900Y4154805D02*
X2135392D01*
X2137307Y4152890D01*
X2133840Y4146540D02*
X2150110D01*
X2119455Y4134945D02*
X2122245D01*
X2133840Y4146540D01*
X2118360Y4133850D02*
X2119455Y4134945D01*
X2077720Y4133850D02*
X2118360D01*
X2073910Y4155440D02*
X2085340D01*
X2014500Y4318000D02*
Y4325380D01*
X2000250Y4339630D02*
X2014500Y4325380D01*
Y4318000D02*
X2017040Y4315460D01*
X2000250Y4339630D02*
Y4342130D01*
X1881940Y4366260D02*
X1913880Y4398200D01*
Y4447500D01*
X1996680D01*
X1869440Y4563140D02*
X1913880Y4518700D01*
X1869440Y4563140D02*
Y4588510D01*
X1856940Y4366260D02*
Y4426160D01*
X1913880Y4483100D01*
X1844440Y4552539D02*
X1913880Y4483100D01*
X1844440Y4552539D02*
Y4588510D01*
X1909228Y4483100D02*
X1913880D01*
X1900669Y4491659D02*
X1909228Y4483100D01*
X1753870Y4491659D02*
X1900669D01*
X1913880Y4483100D02*
X1918532D01*
X1924882Y4489450D01*
D55*
X2063750Y4175760D02*
X2086610D01*
X2061210Y4150360D02*
Y4178300D01*
Y4272280D01*
Y4178300D02*
X2063750Y4175760D01*
X2061210Y4150360D02*
X2077720Y4133850D01*
X2061210Y4272280D02*
Y4290408D01*
Y4304952D02*
X2061384Y4305126D01*
X2095326D01*
X2095500Y4305300D01*
X1994040Y4250182D02*
X1997342Y4246880D01*
X2035810D01*
X2061210Y4272280D01*
X2024627Y4304952D02*
X2061210D01*
X2017040Y4312539D02*
X2024627Y4304952D01*
X2017040Y4312539D02*
Y4315460D01*
D56*
X2024780Y4574540D02*
D03*
D57*
X2074780D02*
D03*
D58*
X2055930Y3961130D02*
D03*
X2043430D02*
D03*
X2043630Y4388050D02*
D03*
Y4400550D02*
D03*
D59*
X2528570Y4434840D02*
D03*
Y4460240D02*
D03*
Y4485640D02*
D03*
X2771200Y4253275D02*
D03*
Y4278676D02*
D03*
Y4304076D02*
D03*
X3087370Y3886200D02*
D03*
Y3911600D02*
D03*
Y3937000D02*
D03*
X3336290Y4154170D02*
D03*
Y4179570D02*
D03*
Y4204970D02*
D03*
X2790190Y3667760D02*
D03*
Y3693160D02*
D03*
Y3718560D02*
D03*
X2768660Y4511086D02*
D03*
Y4536486D02*
D03*
Y4561885D02*
D03*
X3313430Y4521200D02*
D03*
Y4546600D02*
D03*
Y4572000D02*
D03*
X2531110Y3794760D02*
D03*
Y3769360D02*
D03*
Y3743960D02*
D03*
X2523490Y4168140D02*
D03*
Y4142740D02*
D03*
Y4117340D02*
D03*
X2781300Y3929380D02*
D03*
Y3954780D02*
D03*
Y3980180D02*
D03*
X3319840Y3690666D02*
D03*
Y3716065D02*
D03*
Y3741465D02*
D03*
X3082290Y4513580D02*
D03*
Y4488180D02*
D03*
Y4462780D02*
D03*
D60*
X2528570Y4511040D02*
D03*
X2771200Y4329475D02*
D03*
X3087370Y3860800D02*
D03*
X3336290Y4128770D02*
D03*
X2790190Y3743960D02*
D03*
X2768660Y4587285D02*
D03*
X3313430Y4597400D02*
D03*
X2531110Y3820160D02*
D03*
X2523490Y4193540D02*
D03*
X2781300Y4005580D02*
D03*
X3319840Y3766866D02*
D03*
X3082290Y4437380D02*
D03*
D61*
X1694180Y4124960D02*
D03*
X3451860D02*
D03*
D62*
X1969770Y4037330D02*
D03*
Y3834130D02*
D03*
Y3808730D02*
D03*
Y3783330D02*
D03*
Y3707130D02*
D03*
Y3732530D02*
D03*
Y3757930D02*
D03*
Y3681730D02*
D03*
X1766570Y4062730D02*
D03*
Y4037330D02*
D03*
Y4011930D02*
D03*
Y3808730D02*
D03*
Y3834130D02*
D03*
Y3859530D02*
D03*
Y3884930D02*
D03*
Y3910330D02*
D03*
Y3935730D02*
D03*
Y3961130D02*
D03*
Y3986530D02*
D03*
X1969770Y4011930D02*
D03*
Y3986530D02*
D03*
Y3961130D02*
D03*
Y3935730D02*
D03*
Y3910330D02*
D03*
Y3884930D02*
D03*
Y3859530D02*
D03*
D63*
Y4062730D02*
D03*
X1766570Y3783330D02*
D03*
D64*
X1913870Y4447510D02*
D03*
D65*
Y4483110D02*
D03*
Y4518710D02*
D03*
X1791970Y4531360D02*
D03*
Y4434860D02*
D03*
D66*
X1722755Y3860165D02*
D03*
X1880870Y4311650D02*
D03*
X1837690Y4198620D02*
D03*
X1847850Y4315460D02*
D03*
X2329180Y4552950D02*
D03*
X2327910Y4516120D02*
D03*
X2303780Y4531360D02*
D03*
X2138680Y4498340D02*
D03*
Y4513580D02*
D03*
X2151380Y4530090D02*
D03*
X2073910Y4155440D02*
D03*
X2128520Y4196080D02*
D03*
X2095500Y4305300D02*
D03*
X1822450Y3961130D02*
D03*
X2032000Y4071620D02*
D03*
D67*
X2253130Y4525010D02*
D03*
Y4538010D02*
D03*
Y4512010D02*
D03*
X2240130D02*
D03*
Y4538010D02*
D03*
Y4525010D02*
D03*
M02*
