M48
;Layer_Color=9474304
;FILE_FORMAT=2:5
INCH,TZ
;TYPE=PLATED
T01F00S00C0.01575
T02F00S00C0.01968
T03F00S00C0.02756
T04F00S00C0.02800
T05F00S00C0.03800
T06F00S00C0.04016
T07F00S00C0.05118
T08F00S00C0.05512
T09F00S00C0.17717
%
T01
X857701Y1748297
Y1740297
X866701
Y1748297
T02
X804500Y1559500
X809421
X804579Y1727579
Y1732500
T03
X726158Y1806500
X736000
X731079Y1719000
X740921
T04
X812000Y1427500
X827000Y1476000
X678250Y1519750
X717500Y1559500
X720726Y1686726
X778500Y1648500
X788500Y1649000
X816500Y1636000
X838000Y1652000
X825000Y1695000
X864500Y1713500
X800000Y1603000
X847000Y1740500
X878000Y1747500
X892000Y1734000
X891500Y1726500
X896500Y1772000
T05
X1307024Y1453018
Y1463018
Y1473018
Y1483018
X1215500Y1520000
Y1530000
Y1540000
Y1550000
X1095000Y1547000
Y1557000
X1098500Y1474000
Y1464000
Y1454000
Y1444000
X996500Y1474000
Y1484000
Y1494000
Y1504000
X872500Y1564000
X862500
X852500
X993500Y1621000
Y1631000
Y1641000
Y1651000
X1091024Y1674518
Y1684518
Y1694518
Y1704518
X1095000Y1577000
Y1567000
X1331500Y1625500
Y1635500
Y1645500
Y1655500
X1304500Y1780000
Y1790000
Y1800000
Y1810000
X1213500Y1777000
Y1767000
Y1757000
Y1747000
X1090024Y1776018
Y1786018
Y1796018
Y1806018
X995500Y1776000
Y1766000
Y1756000
Y1746000
T06
X695500Y1559500
Y1549500
Y1539500
Y1529500
Y1519500
Y1509500
Y1499500
Y1489500
X775500
Y1499500
Y1509500
Y1519500
Y1529500
Y1539500
Y1549500
Y1559500
Y1479500
Y1469500
Y1459500
Y1449500
Y1569500
Y1579500
Y1589500
Y1599500
X695500
Y1589500
Y1579500
Y1569500
T07
X805657Y1818500
X825342
T08
X705500Y1784000
Y1746008
X753492Y1750988
Y1765004
Y1779020
T09
X667000Y1624000
X1359000
M30
