G04*
G04 #@! TF.GenerationSoftware,Altium Limited,Altium Designer,24.7.2 (38)*
G04*
G04 Layer_Color=2752767*
%FSLAX44Y44*%
%MOMM*%
G71*
G04*
G04 #@! TF.SameCoordinates,47DF3F7B-CD24-4F9F-A129-F279A797EA3D*
G04*
G04*
G04 #@! TF.FilePolarity,Positive*
G04*
G01*
G75*
%ADD16C,0.1270*%
%ADD72C,0.1693*%
%ADD73C,0.1016*%
D16*
X2019700Y4569460D02*
Y4579620D01*
X2029860D01*
Y4569460D01*
X2019700D01*
X2021732Y4571492D02*
Y4577588D01*
X2027828D01*
Y4571492D01*
X2021732D01*
X2069700Y4569460D02*
Y4579620D01*
X2079860D01*
Y4569460D01*
X2069700D01*
X2071732Y4571492D02*
Y4577588D01*
X2077828D01*
Y4571492D01*
X2071732D01*
X2050850Y3956050D02*
X2053390D01*
X2055930Y3958590D01*
X2058470Y3956050D01*
X2061010D01*
Y3958590D01*
X2058470Y3961130D01*
X2061010Y3963670D01*
Y3966210D01*
X2058470D01*
X2055930Y3963670D01*
X2053390Y3966210D01*
X2050850D01*
Y3963670D01*
X2053390Y3961130D01*
X2050850Y3958590D01*
Y3956050D01*
X2038350D02*
X2040890D01*
X2043430Y3958590D01*
X2045970Y3956050D01*
X2048510D01*
Y3958590D01*
X2045970Y3961130D01*
X2048510Y3963670D01*
Y3966210D01*
X2045970D01*
X2043430Y3963670D01*
X2040890Y3966210D01*
X2038350D01*
Y3963670D01*
X2040890Y3961130D01*
X2038350Y3958590D01*
Y3956050D01*
X2523490Y4429760D02*
X2526030Y4434840D01*
X2523490Y4439920D01*
X2528570Y4437380D01*
X2533650Y4439920D01*
X2531110Y4434840D01*
X2533650Y4429760D01*
X2528570Y4432300D01*
X2523490Y4429760D01*
Y4455160D02*
X2526030Y4460240D01*
X2523490Y4465320D01*
X2528570Y4462780D01*
X2533650Y4465320D01*
X2531110Y4460240D01*
X2533650Y4455160D01*
X2528570Y4457700D01*
X2523490Y4455160D01*
Y4480560D02*
X2526030Y4485640D01*
X2523490Y4490720D01*
X2528570Y4488180D01*
X2533650Y4490720D01*
X2531110Y4485640D01*
X2533650Y4480560D01*
X2528570Y4483100D01*
X2523490Y4480560D01*
Y4505960D02*
X2526030Y4511040D01*
X2523490Y4516120D01*
X2528570Y4513580D01*
X2533650Y4516120D01*
X2531110Y4511040D01*
X2533650Y4505960D01*
X2528570Y4508500D01*
X2523490Y4505960D01*
X2766120Y4248195D02*
X2768660Y4253275D01*
X2766120Y4258355D01*
X2771200Y4255815D01*
X2776280Y4258355D01*
X2773740Y4253275D01*
X2776280Y4248195D01*
X2771200Y4250735D01*
X2766120Y4248195D01*
Y4273596D02*
X2768660Y4278676D01*
X2766120Y4283755D01*
X2771200Y4281216D01*
X2776280Y4283755D01*
X2773740Y4278676D01*
X2776280Y4273596D01*
X2771200Y4276136D01*
X2766120Y4273596D01*
Y4298995D02*
X2768660Y4304076D01*
X2766120Y4309156D01*
X2771200Y4306616D01*
X2776280Y4309156D01*
X2773740Y4304076D01*
X2776280Y4298995D01*
X2771200Y4301536D01*
X2766120Y4298995D01*
Y4324395D02*
X2768660Y4329475D01*
X2766120Y4334555D01*
X2771200Y4332015D01*
X2776280Y4334555D01*
X2773740Y4329475D01*
X2776280Y4324395D01*
X2771200Y4326935D01*
X2766120Y4324395D01*
X3082290Y3855720D02*
X3084830Y3860800D01*
X3082290Y3865880D01*
X3087370Y3863340D01*
X3092450Y3865880D01*
X3089910Y3860800D01*
X3092450Y3855720D01*
X3087370Y3858260D01*
X3082290Y3855720D01*
Y3881120D02*
X3084830Y3886200D01*
X3082290Y3891280D01*
X3087370Y3888740D01*
X3092450Y3891280D01*
X3089910Y3886200D01*
X3092450Y3881120D01*
X3087370Y3883660D01*
X3082290Y3881120D01*
Y3906520D02*
X3084830Y3911600D01*
X3082290Y3916680D01*
X3087370Y3914140D01*
X3092450Y3916680D01*
X3089910Y3911600D01*
X3092450Y3906520D01*
X3087370Y3909060D01*
X3082290Y3906520D01*
Y3931920D02*
X3084830Y3937000D01*
X3082290Y3942080D01*
X3087370Y3939540D01*
X3092450Y3942080D01*
X3089910Y3937000D01*
X3092450Y3931920D01*
X3087370Y3934460D01*
X3082290Y3931920D01*
X3331210Y4123690D02*
X3333750Y4128770D01*
X3331210Y4133850D01*
X3336290Y4131310D01*
X3341370Y4133850D01*
X3338830Y4128770D01*
X3341370Y4123690D01*
X3336290Y4126230D01*
X3331210Y4123690D01*
Y4149090D02*
X3333750Y4154170D01*
X3331210Y4159250D01*
X3336290Y4156710D01*
X3341370Y4159250D01*
X3338830Y4154170D01*
X3341370Y4149090D01*
X3336290Y4151630D01*
X3331210Y4149090D01*
Y4174490D02*
X3333750Y4179570D01*
X3331210Y4184650D01*
X3336290Y4182110D01*
X3341370Y4184650D01*
X3338830Y4179570D01*
X3341370Y4174490D01*
X3336290Y4177030D01*
X3331210Y4174490D01*
Y4199890D02*
X3333750Y4204970D01*
X3331210Y4210050D01*
X3336290Y4207510D01*
X3341370Y4210050D01*
X3338830Y4204970D01*
X3341370Y4199890D01*
X3336290Y4202430D01*
X3331210Y4199890D01*
X2785110Y3662680D02*
X2787650Y3667760D01*
X2785110Y3672840D01*
X2790190Y3670300D01*
X2795270Y3672840D01*
X2792730Y3667760D01*
X2795270Y3662680D01*
X2790190Y3665220D01*
X2785110Y3662680D01*
Y3688080D02*
X2787650Y3693160D01*
X2785110Y3698240D01*
X2790190Y3695700D01*
X2795270Y3698240D01*
X2792730Y3693160D01*
X2795270Y3688080D01*
X2790190Y3690620D01*
X2785110Y3688080D01*
Y3713480D02*
X2787650Y3718560D01*
X2785110Y3723640D01*
X2790190Y3721100D01*
X2795270Y3723640D01*
X2792730Y3718560D01*
X2795270Y3713480D01*
X2790190Y3716020D01*
X2785110Y3713480D01*
Y3738880D02*
X2787650Y3743960D01*
X2785110Y3749040D01*
X2790190Y3746500D01*
X2795270Y3749040D01*
X2792730Y3743960D01*
X2795270Y3738880D01*
X2790190Y3741420D01*
X2785110Y3738880D01*
X2763580Y4506006D02*
X2766120Y4511086D01*
X2763580Y4516165D01*
X2768660Y4513625D01*
X2773740Y4516165D01*
X2771200Y4511086D01*
X2773740Y4506006D01*
X2768660Y4508546D01*
X2763580Y4506006D01*
Y4531406D02*
X2766120Y4536486D01*
X2763580Y4541566D01*
X2768660Y4539026D01*
X2773740Y4541566D01*
X2771200Y4536486D01*
X2773740Y4531406D01*
X2768660Y4533946D01*
X2763580Y4531406D01*
Y4556805D02*
X2766120Y4561885D01*
X2763580Y4566966D01*
X2768660Y4564425D01*
X2773740Y4566966D01*
X2771200Y4561885D01*
X2773740Y4556805D01*
X2768660Y4559345D01*
X2763580Y4556805D01*
Y4582206D02*
X2766120Y4587285D01*
X2763580Y4592365D01*
X2768660Y4589825D01*
X2773740Y4592365D01*
X2771200Y4587285D01*
X2773740Y4582206D01*
X2768660Y4584745D01*
X2763580Y4582206D01*
X3308350Y4516120D02*
X3310890Y4521200D01*
X3308350Y4526280D01*
X3313430Y4523740D01*
X3318510Y4526280D01*
X3315970Y4521200D01*
X3318510Y4516120D01*
X3313430Y4518660D01*
X3308350Y4516120D01*
Y4541520D02*
X3310890Y4546600D01*
X3308350Y4551680D01*
X3313430Y4549140D01*
X3318510Y4551680D01*
X3315970Y4546600D01*
X3318510Y4541520D01*
X3313430Y4544060D01*
X3308350Y4541520D01*
Y4566920D02*
X3310890Y4572000D01*
X3308350Y4577080D01*
X3313430Y4574540D01*
X3318510Y4577080D01*
X3315970Y4572000D01*
X3318510Y4566920D01*
X3313430Y4569460D01*
X3308350Y4566920D01*
Y4592320D02*
X3310890Y4597400D01*
X3308350Y4602480D01*
X3313430Y4599940D01*
X3318510Y4602480D01*
X3315970Y4597400D01*
X3318510Y4592320D01*
X3313430Y4594860D01*
X3308350Y4592320D01*
X2526030Y3815080D02*
X2528570Y3820160D01*
X2526030Y3825240D01*
X2531110Y3822700D01*
X2536190Y3825240D01*
X2533650Y3820160D01*
X2536190Y3815080D01*
X2531110Y3817620D01*
X2526030Y3815080D01*
Y3789680D02*
X2528570Y3794760D01*
X2526030Y3799840D01*
X2531110Y3797300D01*
X2536190Y3799840D01*
X2533650Y3794760D01*
X2536190Y3789680D01*
X2531110Y3792220D01*
X2526030Y3789680D01*
Y3764280D02*
X2528570Y3769360D01*
X2526030Y3774440D01*
X2531110Y3771900D01*
X2536190Y3774440D01*
X2533650Y3769360D01*
X2536190Y3764280D01*
X2531110Y3766820D01*
X2526030Y3764280D01*
Y3738880D02*
X2528570Y3743960D01*
X2526030Y3749040D01*
X2531110Y3746500D01*
X2536190Y3749040D01*
X2533650Y3743960D01*
X2536190Y3738880D01*
X2531110Y3741420D01*
X2526030Y3738880D01*
X2518410Y4188460D02*
X2520950Y4193540D01*
X2518410Y4198620D01*
X2523490Y4196080D01*
X2528570Y4198620D01*
X2526030Y4193540D01*
X2528570Y4188460D01*
X2523490Y4191000D01*
X2518410Y4188460D01*
Y4163060D02*
X2520950Y4168140D01*
X2518410Y4173220D01*
X2523490Y4170680D01*
X2528570Y4173220D01*
X2526030Y4168140D01*
X2528570Y4163060D01*
X2523490Y4165600D01*
X2518410Y4163060D01*
Y4137660D02*
X2520950Y4142740D01*
X2518410Y4147820D01*
X2523490Y4145280D01*
X2528570Y4147820D01*
X2526030Y4142740D01*
X2528570Y4137660D01*
X2523490Y4140200D01*
X2518410Y4137660D01*
Y4112260D02*
X2520950Y4117340D01*
X2518410Y4122420D01*
X2523490Y4119880D01*
X2528570Y4122420D01*
X2526030Y4117340D01*
X2528570Y4112260D01*
X2523490Y4114800D01*
X2518410Y4112260D01*
X2776220Y3924300D02*
X2778760Y3929380D01*
X2776220Y3934460D01*
X2781300Y3931920D01*
X2786380Y3934460D01*
X2783840Y3929380D01*
X2786380Y3924300D01*
X2781300Y3926840D01*
X2776220Y3924300D01*
Y3949700D02*
X2778760Y3954780D01*
X2776220Y3959860D01*
X2781300Y3957320D01*
X2786380Y3959860D01*
X2783840Y3954780D01*
X2786380Y3949700D01*
X2781300Y3952240D01*
X2776220Y3949700D01*
Y3975100D02*
X2778760Y3980180D01*
X2776220Y3985260D01*
X2781300Y3982720D01*
X2786380Y3985260D01*
X2783840Y3980180D01*
X2786380Y3975100D01*
X2781300Y3977640D01*
X2776220Y3975100D01*
Y4000500D02*
X2778760Y4005580D01*
X2776220Y4010660D01*
X2781300Y4008120D01*
X2786380Y4010660D01*
X2783840Y4005580D01*
X2786380Y4000500D01*
X2781300Y4003040D01*
X2776220Y4000500D01*
X3314760Y3685586D02*
X3317300Y3690666D01*
X3314760Y3695746D01*
X3319840Y3693206D01*
X3324920Y3695746D01*
X3322380Y3690666D01*
X3324920Y3685586D01*
X3319840Y3688126D01*
X3314760Y3685586D01*
Y3710985D02*
X3317300Y3716065D01*
X3314760Y3721146D01*
X3319840Y3718606D01*
X3324920Y3721146D01*
X3322380Y3716065D01*
X3324920Y3710985D01*
X3319840Y3713525D01*
X3314760Y3710985D01*
Y3736385D02*
X3317300Y3741465D01*
X3314760Y3746545D01*
X3319840Y3744005D01*
X3324920Y3746545D01*
X3322380Y3741465D01*
X3324920Y3736385D01*
X3319840Y3738925D01*
X3314760Y3736385D01*
Y3761786D02*
X3317300Y3766866D01*
X3314760Y3771945D01*
X3319840Y3769406D01*
X3324920Y3771945D01*
X3322380Y3766866D01*
X3324920Y3761786D01*
X3319840Y3764326D01*
X3314760Y3761786D01*
X3077210Y4508500D02*
X3079750Y4513580D01*
X3077210Y4518660D01*
X3082290Y4516120D01*
X3087370Y4518660D01*
X3084830Y4513580D01*
X3087370Y4508500D01*
X3082290Y4511040D01*
X3077210Y4508500D01*
Y4483100D02*
X3079750Y4488180D01*
X3077210Y4493260D01*
X3082290Y4490720D01*
X3087370Y4493260D01*
X3084830Y4488180D01*
X3087370Y4483100D01*
X3082290Y4485640D01*
X3077210Y4483100D01*
Y4457700D02*
X3079750Y4462780D01*
X3077210Y4467860D01*
X3082290Y4465320D01*
X3087370Y4467860D01*
X3084830Y4462780D01*
X3087370Y4457700D01*
X3082290Y4460240D01*
X3077210Y4457700D01*
Y4432300D02*
X3079750Y4437380D01*
X3077210Y4442460D01*
X3082290Y4439920D01*
X3087370Y4442460D01*
X3084830Y4437380D01*
X3087370Y4432300D01*
X3082290Y4434840D01*
X3077210Y4432300D01*
X2038550Y4382970D02*
X2041090D01*
X2043630Y4385510D01*
X2046170Y4382970D01*
X2048710D01*
Y4385510D01*
X2046170Y4388050D01*
X2048710Y4390590D01*
Y4393130D01*
X2046170D01*
X2043630Y4390590D01*
X2041090Y4393130D01*
X2038550D01*
Y4390590D01*
X2041090Y4388050D01*
X2038550Y4385510D01*
Y4382970D01*
Y4395470D02*
X2041090D01*
X2043630Y4398010D01*
X2046170Y4395470D01*
X2048710D01*
Y4398010D01*
X2046170Y4400550D01*
X2048710Y4403090D01*
Y4405630D01*
X2046170D01*
X2043630Y4403090D01*
X2041090Y4405630D01*
X2038550D01*
Y4403090D01*
X2041090Y4400550D01*
X2038550Y4398010D01*
Y4395470D01*
X1969770Y4032250D02*
X1964690Y4042410D01*
X1974850D01*
X1969770Y4032250D01*
Y4057650D02*
X1964690Y4067810D01*
X1974850D01*
X1969770Y4057650D01*
Y3829050D02*
X1964690Y3839210D01*
X1974850D01*
X1969770Y3829050D01*
Y3803650D02*
X1964690Y3813810D01*
X1974850D01*
X1969770Y3803650D01*
Y3778250D02*
X1964690Y3788410D01*
X1974850D01*
X1969770Y3778250D01*
Y3702050D02*
X1964690Y3712210D01*
X1974850D01*
X1969770Y3702050D01*
Y3727450D02*
X1964690Y3737610D01*
X1974850D01*
X1969770Y3727450D01*
Y3752850D02*
X1964690Y3763010D01*
X1974850D01*
X1969770Y3752850D01*
Y3676650D02*
X1964690Y3686810D01*
X1974850D01*
X1969770Y3676650D01*
X1766570Y4057650D02*
X1761490Y4067810D01*
X1771650D01*
X1766570Y4057650D01*
Y4032250D02*
X1761490Y4042410D01*
X1771650D01*
X1766570Y4032250D01*
Y4006850D02*
X1761490Y4017010D01*
X1771650D01*
X1766570Y4006850D01*
Y3778250D02*
X1761490Y3788410D01*
X1771650D01*
X1766570Y3778250D01*
Y3803650D02*
X1761490Y3813810D01*
X1771650D01*
X1766570Y3803650D01*
Y3829050D02*
X1761490Y3839210D01*
X1771650D01*
X1766570Y3829050D01*
Y3854450D02*
X1761490Y3864610D01*
X1771650D01*
X1766570Y3854450D01*
Y3879850D02*
X1761490Y3890010D01*
X1771650D01*
X1766570Y3879850D01*
Y3905250D02*
X1761490Y3915410D01*
X1771650D01*
X1766570Y3905250D01*
Y3930650D02*
X1761490Y3940810D01*
X1771650D01*
X1766570Y3930650D01*
Y3956050D02*
X1761490Y3966210D01*
X1771650D01*
X1766570Y3956050D01*
Y3981450D02*
X1761490Y3991610D01*
X1771650D01*
X1766570Y3981450D01*
X1969770Y4006850D02*
X1964690Y4017010D01*
X1974850D01*
X1969770Y4006850D01*
Y3981450D02*
X1964690Y3991610D01*
X1974850D01*
X1969770Y3981450D01*
Y3956050D02*
X1964690Y3966210D01*
X1974850D01*
X1969770Y3956050D01*
Y3930650D02*
X1964690Y3940810D01*
X1974850D01*
X1969770Y3930650D01*
Y3905250D02*
X1964690Y3915410D01*
X1974850D01*
X1969770Y3905250D01*
Y3879850D02*
X1964690Y3890010D01*
X1974850D01*
X1969770Y3879850D01*
Y3854450D02*
X1964690Y3864610D01*
X1974850D01*
X1969770Y3854450D01*
X1913870Y4442430D02*
X1916410Y4444970D01*
X1918950D01*
X1916410Y4447510D01*
X1918950Y4450050D01*
X1916410D01*
X1913870Y4452590D01*
X1911330Y4450050D01*
X1908790D01*
X1911330Y4447510D01*
X1908790Y4444970D01*
X1911330D01*
X1913870Y4442430D01*
Y4478030D02*
X1916410Y4480570D01*
X1918950D01*
X1916410Y4483110D01*
X1918950Y4485650D01*
X1916410D01*
X1913870Y4488190D01*
X1911330Y4485650D01*
X1908790D01*
X1911330Y4483110D01*
X1908790Y4480570D01*
X1911330D01*
X1913870Y4478030D01*
Y4513630D02*
X1916410Y4516170D01*
X1918950D01*
X1916410Y4518710D01*
X1918950Y4521250D01*
X1916410D01*
X1913870Y4523790D01*
X1911330Y4521250D01*
X1908790D01*
X1911330Y4518710D01*
X1908790Y4516170D01*
X1911330D01*
X1913870Y4513630D01*
X1791970Y4526280D02*
X1794510Y4528820D01*
X1797050D01*
X1794510Y4531360D01*
X1797050Y4533900D01*
X1794510D01*
X1791970Y4536440D01*
X1789430Y4533900D01*
X1786890D01*
X1789430Y4531360D01*
X1786890Y4528820D01*
X1789430D01*
X1791970Y4526280D01*
Y4429780D02*
X1794510Y4432320D01*
X1797050D01*
X1794510Y4434860D01*
X1797050Y4437400D01*
X1794510D01*
X1791970Y4439940D01*
X1789430Y4437400D01*
X1786890D01*
X1789430Y4434860D01*
X1786890Y4432320D01*
X1789430D01*
X1791970Y4429780D01*
X1720215Y3857625D02*
Y3855085D01*
X1725295D01*
Y3857625D01*
X1727835D01*
Y3862705D01*
X1725295D01*
Y3865245D01*
X1720215D01*
Y3862705D01*
X1717675D01*
Y3857625D01*
X1720215D01*
X1878330Y4309110D02*
Y4306570D01*
X1883410D01*
Y4309110D01*
X1885950D01*
Y4314190D01*
X1883410D01*
Y4316730D01*
X1878330D01*
Y4314190D01*
X1875790D01*
Y4309110D01*
X1878330D01*
X1835150Y4196080D02*
Y4193540D01*
X1840230D01*
Y4196080D01*
X1842770D01*
Y4201160D01*
X1840230D01*
Y4203700D01*
X1835150D01*
Y4201160D01*
X1832610D01*
Y4196080D01*
X1835150D01*
X1845310Y4312920D02*
Y4310380D01*
X1850390D01*
Y4312920D01*
X1852930D01*
Y4318000D01*
X1850390D01*
Y4320540D01*
X1845310D01*
Y4318000D01*
X1842770D01*
Y4312920D01*
X1845310D01*
X2326640Y4550410D02*
Y4547870D01*
X2331720D01*
Y4550410D01*
X2334260D01*
Y4555490D01*
X2331720D01*
Y4558030D01*
X2326640D01*
Y4555490D01*
X2324100D01*
Y4550410D01*
X2326640D01*
X2325370Y4513580D02*
Y4511040D01*
X2330450D01*
Y4513580D01*
X2332990D01*
Y4518660D01*
X2330450D01*
Y4521200D01*
X2325370D01*
Y4518660D01*
X2322830D01*
Y4513580D01*
X2325370D01*
X2301240Y4528820D02*
Y4526280D01*
X2306320D01*
Y4528820D01*
X2308860D01*
Y4533900D01*
X2306320D01*
Y4536440D01*
X2301240D01*
Y4533900D01*
X2298700D01*
Y4528820D01*
X2301240D01*
X2136140Y4495800D02*
Y4493260D01*
X2141220D01*
Y4495800D01*
X2143760D01*
Y4500880D01*
X2141220D01*
Y4503420D01*
X2136140D01*
Y4500880D01*
X2133600D01*
Y4495800D01*
X2136140D01*
Y4511040D02*
Y4508500D01*
X2141220D01*
Y4511040D01*
X2143760D01*
Y4516120D01*
X2141220D01*
Y4518660D01*
X2136140D01*
Y4516120D01*
X2133600D01*
Y4511040D01*
X2136140D01*
X2148840Y4527550D02*
Y4525010D01*
X2153920D01*
Y4527550D01*
X2156460D01*
Y4532630D01*
X2153920D01*
Y4535170D01*
X2148840D01*
Y4532630D01*
X2146300D01*
Y4527550D01*
X2148840D01*
X2248050Y4525010D02*
X2253130Y4530090D01*
X2258210Y4525010D01*
X2253130Y4519930D01*
X2248050Y4525010D01*
Y4538010D02*
X2253130Y4543090D01*
X2258210Y4538010D01*
X2253130Y4532930D01*
X2248050Y4538010D01*
Y4512010D02*
X2253130Y4517090D01*
X2258210Y4512010D01*
X2253130Y4506930D01*
X2248050Y4512010D01*
X2235050D02*
X2240130Y4517090D01*
X2245210Y4512010D01*
X2240130Y4506930D01*
X2235050Y4512010D01*
Y4538010D02*
X2240130Y4543090D01*
X2245210Y4538010D01*
X2240130Y4532930D01*
X2235050Y4538010D01*
Y4525010D02*
X2240130Y4530090D01*
X2245210Y4525010D01*
X2240130Y4519930D01*
X2235050Y4525010D01*
X2071370Y4152900D02*
Y4150360D01*
X2076450D01*
Y4152900D01*
X2078990D01*
Y4157980D01*
X2076450D01*
Y4160520D01*
X2071370D01*
Y4157980D01*
X2068830D01*
Y4152900D01*
X2071370D01*
X2125980Y4193540D02*
Y4191000D01*
X2131060D01*
Y4193540D01*
X2133600D01*
Y4198620D01*
X2131060D01*
Y4201160D01*
X2125980D01*
Y4198620D01*
X2123440D01*
Y4193540D01*
X2125980D01*
X2092960Y4302760D02*
Y4300220D01*
X2098040D01*
Y4302760D01*
X2100580D01*
Y4307840D01*
X2098040D01*
Y4310380D01*
X2092960D01*
Y4307840D01*
X2090420D01*
Y4302760D01*
X2092960D01*
X1819910Y3958590D02*
Y3956050D01*
X1824990D01*
Y3958590D01*
X1827530D01*
Y3963670D01*
X1824990D01*
Y3966210D01*
X1819910D01*
Y3963670D01*
X1817370D01*
Y3958590D01*
X1819910D01*
X2029460Y4069080D02*
Y4066540D01*
X2034540D01*
Y4069080D01*
X2037080D01*
Y4074160D01*
X2034540D01*
Y4076700D01*
X2029460D01*
Y4074160D01*
X2026920D01*
Y4069080D01*
X2029460D01*
D72*
X1699260Y4124960D02*
G03*
X1699260Y4124960I-5080J0D01*
G01*
X3456940D02*
G03*
X3456940Y4124960I-5080J0D01*
G01*
X1862020Y4366260D02*
G03*
X1862020Y4366260I-5080J0D01*
G01*
X1887020D02*
G03*
X1887020Y4366260I-5080J0D01*
G01*
X1874520Y4588510D02*
G03*
X1874520Y4588510I-5080J0D01*
G01*
X1849520D02*
G03*
X1849520Y4588510I-5080J0D01*
G01*
D73*
X1697228Y4124960D02*
G03*
X1697228Y4124960I-3048J0D01*
G01*
X3454908D02*
G03*
X3454908Y4124960I-3048J0D01*
G01*
M02*
