G04*
G04 #@! TF.GenerationSoftware,Altium Limited,Altium Designer,24.7.2 (38)*
G04*
G04 Layer_Color=8421504*
%FSLAX44Y44*%
%MOMM*%
G71*
G04*
G04 #@! TF.SameCoordinates,47DF3F7B-CD24-4F9F-A129-F279A797EA3D*
G04*
G04*
G04 #@! TF.FilePolarity,Positive*
G04*
G01*
G75*
%ADD18R,1.2621X0.9578*%
%ADD19R,1.5000X1.4000*%
%ADD20R,1.0000X2.2000*%
%ADD21R,3.3000X2.2000*%
%ADD22R,0.9500X1.4500*%
G04:AMPARAMS|DCode=23|XSize=0.65mm|YSize=1.65mm|CornerRadius=0.0488mm|HoleSize=0mm|Usage=FLASHONLY|Rotation=90.000|XOffset=0mm|YOffset=0mm|HoleType=Round|Shape=RoundedRectangle|*
%AMROUNDEDRECTD23*
21,1,0.6500,1.5525,0,0,90.0*
21,1,0.5525,1.6500,0,0,90.0*
1,1,0.0975,0.7763,0.2763*
1,1,0.0975,0.7763,-0.2763*
1,1,0.0975,-0.7763,-0.2763*
1,1,0.0975,-0.7763,0.2763*
%
%ADD23ROUNDEDRECTD23*%
G04:AMPARAMS|DCode=24|XSize=2.4mm|YSize=3.1mm|CornerRadius=0.048mm|HoleSize=0mm|Usage=FLASHONLY|Rotation=0.000|XOffset=0mm|YOffset=0mm|HoleType=Round|Shape=RoundedRectangle|*
%AMROUNDEDRECTD24*
21,1,2.4000,3.0040,0,0,0.0*
21,1,2.3040,3.1000,0,0,0.0*
1,1,0.0960,1.1520,-1.5020*
1,1,0.0960,-1.1520,-1.5020*
1,1,0.0960,-1.1520,1.5020*
1,1,0.0960,1.1520,1.5020*
%
%ADD24ROUNDEDRECTD24*%
%ADD25R,1.0500X0.6000*%
%ADD26O,1.6000X0.3600*%
%ADD27R,1.6000X0.3600*%
%ADD28R,0.8890X1.4732*%
%ADD29R,3.1496X1.4732*%
D18*
X1781810Y4268122D02*
D03*
Y4253578D02*
D03*
X2303780Y4501228D02*
D03*
Y4515772D02*
D03*
X2183130D02*
D03*
Y4501228D02*
D03*
X2061210Y4304952D02*
D03*
Y4290408D02*
D03*
D19*
X1896110Y4247540D02*
D03*
Y4266540D02*
D03*
D20*
X1861960Y4287040D02*
D03*
X1838960D02*
D03*
X1815960D02*
D03*
D21*
X1838960Y4227040D02*
D03*
D22*
X2330040Y4588510D02*
D03*
X2310540D02*
D03*
X2286000D02*
D03*
X2266500D02*
D03*
D23*
X2274880Y4505960D02*
D03*
Y4518660D02*
D03*
Y4531360D02*
D03*
Y4544060D02*
D03*
X2218380Y4505960D02*
D03*
Y4518660D02*
D03*
Y4531360D02*
D03*
Y4544060D02*
D03*
D24*
X2246630Y4525010D02*
D03*
D25*
X1753870Y4512920D02*
D03*
Y4493920D02*
D03*
D26*
X2150110Y4184700D02*
D03*
Y4178340D02*
D03*
Y4171980D02*
D03*
Y4165620D02*
D03*
Y4159260D02*
D03*
Y4152900D02*
D03*
Y4146540D02*
D03*
Y4140180D02*
D03*
Y4133820D02*
D03*
Y4127460D02*
D03*
Y4121100D02*
D03*
Y4114740D02*
D03*
X2203210Y4184700D02*
D03*
Y4178340D02*
D03*
Y4171980D02*
D03*
Y4165620D02*
D03*
Y4159260D02*
D03*
Y4152900D02*
D03*
Y4146540D02*
D03*
Y4140180D02*
D03*
Y4133820D02*
D03*
Y4127460D02*
D03*
Y4121100D02*
D03*
D27*
Y4114740D02*
D03*
D28*
X2017040Y4315460D02*
D03*
X1994040D02*
D03*
X1971040D02*
D03*
D29*
X1994040Y4250182D02*
D03*
M02*
