G04*
G04 #@! TF.GenerationSoftware,Altium Limited,Altium Designer,24.7.2 (38)*
G04*
G04 Layer_Color=65535*
%FSLAX44Y44*%
%MOMM*%
G71*
G04*
G04 #@! TF.SameCoordinates,47DF3F7B-CD24-4F9F-A129-F279A797EA3D*
G04*
G04*
G04 #@! TF.FilePolarity,Positive*
G04*
G01*
G75*
%ADD10C,0.2500*%
%ADD11C,0.2800*%
%ADD12C,0.2540*%
%ADD13C,0.2000*%
%ADD14C,0.1500*%
%ADD15C,0.1524*%
%ADD16C,0.1270*%
%ADD17C,0.1000*%
G36*
X2047040Y3941991D02*
Y3940785D01*
X2043357D01*
Y3941991D01*
X2047040D01*
D02*
G37*
G36*
X2055816Y3943350D02*
Y3940670D01*
X2058470D01*
Y3939553D01*
X2055816D01*
Y3936898D01*
X2054685D01*
Y3939553D01*
X2052031D01*
Y3940670D01*
X2054685D01*
Y3943350D01*
X2055816D01*
D02*
G37*
G36*
X2061197Y4399166D02*
X2063852D01*
Y4398035D01*
X2061197D01*
Y4395381D01*
X2060080D01*
Y4398035D01*
X2057400D01*
Y4399166D01*
X2060080D01*
Y4401820D01*
X2061197D01*
Y4399166D01*
D02*
G37*
G36*
X2059965Y4386707D02*
X2058759D01*
Y4390390D01*
X2059965D01*
Y4386707D01*
D02*
G37*
D10*
X1873710Y4287040D02*
G03*
X1873710Y4287040I-1250J0D01*
G01*
X2219630Y4552810D02*
G03*
X2219630Y4552810I-1250J0D01*
G01*
D11*
X2089180Y4559540D02*
G03*
X2089180Y4559540I-1400J0D01*
G01*
D12*
X2514058Y4471624D02*
G03*
X2514058Y4471624I-19838J0D01*
G01*
X2756688Y4290060D02*
G03*
X2756688Y4290060I-19838J0D01*
G01*
X3069590Y3888740D02*
G03*
X3069590Y3888740I-21590J0D01*
G01*
X3318510Y4156710D02*
G03*
X3318510Y4156710I-21590J0D01*
G01*
X2775678Y3704544D02*
G03*
X2775678Y3704544I-19838J0D01*
G01*
X2754148Y4547870D02*
G03*
X2754148Y4547870I-19838J0D01*
G01*
X3298918Y4557985D02*
G03*
X3298918Y4557985I-19838J0D01*
G01*
X2516598Y3780745D02*
G03*
X2516598Y3780745I-19838J0D01*
G01*
X2508978Y4154124D02*
G03*
X2508978Y4154124I-19838J0D01*
G01*
X2766788Y3966165D02*
G03*
X2766788Y3966165I-19838J0D01*
G01*
X3305328Y3727450D02*
G03*
X3305328Y3727450I-19838J0D01*
G01*
X3064510Y4465320D02*
G03*
X3064510Y4465320I-21590J0D01*
G01*
X2184160Y4114740D02*
X2185430Y4113470D01*
X1782823Y4295136D02*
X1780284Y4297675D01*
X1775205D01*
X1772666Y4295136D01*
Y4284979D01*
X1775205Y4282440D01*
X1780284D01*
X1782823Y4284979D01*
X1787901D02*
X1790440Y4282440D01*
X1795519D01*
X1798058Y4284979D01*
Y4295136D01*
X1795519Y4297675D01*
X1790440D01*
X1787901Y4295136D01*
Y4292597D01*
X1790440Y4290057D01*
X1798058D01*
X1896107Y4299200D02*
X1893568Y4301739D01*
X1888489D01*
X1885950Y4299200D01*
Y4289043D01*
X1888489Y4286504D01*
X1893568D01*
X1896107Y4289043D01*
X1901185Y4286504D02*
X1906263D01*
X1903724D01*
Y4301739D01*
X1901185Y4299200D01*
X1913881D02*
X1916420Y4301739D01*
X1921499D01*
X1924038Y4299200D01*
Y4289043D01*
X1921499Y4286504D01*
X1916420D01*
X1913881Y4289043D01*
Y4299200D01*
X1805178Y4323583D02*
Y4310887D01*
X1807717Y4308348D01*
X1812796D01*
X1815335Y4310887D01*
Y4323583D01*
X1828031Y4308348D02*
Y4323583D01*
X1820413Y4315966D01*
X1830570D01*
X2118360Y4601208D02*
X2113282D01*
X2115821D01*
Y4588512D01*
X2113282Y4585973D01*
X2110742D01*
X2108203Y4588512D01*
X2123438Y4585973D02*
X2128517D01*
X2125978D01*
Y4601208D01*
X2123438Y4598668D01*
X2301241Y4486908D02*
X2298702Y4489448D01*
X2293623D01*
X2291084Y4486908D01*
Y4476752D01*
X2293623Y4474213D01*
X2298702D01*
X2301241Y4476752D01*
X2306319Y4489448D02*
X2316476D01*
Y4486908D01*
X2306319Y4476752D01*
Y4474213D01*
X2306320Y4605274D02*
Y4620509D01*
X2313938D01*
X2316477Y4617970D01*
Y4612892D01*
X2313938Y4610352D01*
X2306320D01*
X2311398D02*
X2316477Y4605274D01*
X2321555D02*
X2326633D01*
X2324094D01*
Y4620509D01*
X2321555Y4617970D01*
X2184143Y4542786D02*
X2181604Y4545325D01*
X2176525D01*
X2173986Y4542786D01*
Y4532629D01*
X2176525Y4530090D01*
X2181604D01*
X2184143Y4532629D01*
X2189221Y4542786D02*
X2191760Y4545325D01*
X2196839D01*
X2199378Y4542786D01*
Y4540247D01*
X2196839Y4537708D01*
X2199378Y4535168D01*
Y4532629D01*
X2196839Y4530090D01*
X2191760D01*
X2189221Y4532629D01*
Y4535168D01*
X2191760Y4537708D01*
X2189221Y4540247D01*
Y4542786D01*
X2191760Y4537708D02*
X2196839D01*
X2262378Y4605274D02*
Y4620509D01*
X2269996D01*
X2272535Y4617970D01*
Y4612892D01*
X2269996Y4610352D01*
X2262378D01*
X2267456D02*
X2272535Y4605274D01*
X2287770D02*
X2277613D01*
X2287770Y4615431D01*
Y4617970D01*
X2285231Y4620509D01*
X2280152D01*
X2277613Y4617970D01*
X2207514Y4578091D02*
Y4565395D01*
X2210053Y4562856D01*
X2215132D01*
X2217671Y4565395D01*
Y4578091D01*
X2232906Y4562856D02*
X2222749D01*
X2232906Y4573013D01*
Y4575552D01*
X2230367Y4578091D01*
X2225288D01*
X2222749Y4575552D01*
X2021840Y4521198D02*
X2031997D01*
X2026918Y4526276D02*
Y4516119D01*
X2067545Y4521198D02*
X2077702D01*
X1885940Y3624595D02*
Y3637291D01*
X1883401Y3639830D01*
X1878323D01*
X1875783Y3637291D01*
Y3624595D01*
X1860548Y3627134D02*
X1863087Y3624595D01*
X1868166D01*
X1870705Y3627134D01*
Y3629673D01*
X1868166Y3632212D01*
X1863087D01*
X1860548Y3634751D01*
Y3637291D01*
X1863087Y3639830D01*
X1868166D01*
X1870705Y3637291D01*
X1855470Y3624595D02*
Y3639830D01*
X1847852D01*
X1845313Y3637291D01*
Y3634751D01*
X1847852Y3632212D01*
X1855470D01*
X1847852D01*
X1845313Y3629673D01*
Y3627134D01*
X1847852Y3624595D01*
X1855470D01*
X1994659Y4369304D02*
X1992119Y4371843D01*
X1987041D01*
X1984502Y4369304D01*
Y4359147D01*
X1987041Y4356608D01*
X1992119D01*
X1994659Y4359147D01*
X1999737Y4369304D02*
X2002276Y4371843D01*
X2007355D01*
X2009894Y4369304D01*
Y4366765D01*
X2007355Y4364225D01*
X2004815D01*
X2007355D01*
X2009894Y4361686D01*
Y4359147D01*
X2007355Y4356608D01*
X2002276D01*
X1999737Y4359147D01*
X2094231Y4199888D02*
X2091692Y4202427D01*
X2086613D01*
X2084074Y4199888D01*
Y4189732D01*
X2086613Y4187192D01*
X2091692D01*
X2094231Y4189732D01*
X2109466Y4187192D02*
X2099309D01*
X2109466Y4197349D01*
Y4199888D01*
X2106927Y4202427D01*
X2101848D01*
X2099309Y4199888D01*
X2110740Y4122418D02*
X2108201Y4124958D01*
X2103123D01*
X2100583Y4122418D01*
Y4112262D01*
X2103123Y4109723D01*
X2108201D01*
X2110740Y4112262D01*
X2115818Y4109723D02*
X2120897D01*
X2118358D01*
Y4124958D01*
X2115818Y4122418D01*
X1762758Y4429769D02*
X1747522D01*
Y4437386D01*
X1750062Y4439926D01*
X1755140D01*
X1757679Y4437386D01*
Y4429769D01*
Y4434847D02*
X1762758Y4439926D01*
X1750062Y4455161D02*
X1747522Y4452622D01*
Y4447543D01*
X1750062Y4445004D01*
X1752601D01*
X1755140Y4447543D01*
Y4452622D01*
X1757679Y4455161D01*
X1760218D01*
X1762758Y4452622D01*
Y4447543D01*
X1760218Y4445004D01*
X1747522Y4470396D02*
Y4460239D01*
X1762758D01*
Y4470396D01*
X1755140Y4460239D02*
Y4465317D01*
X1747522Y4475474D02*
Y4485631D01*
Y4480553D01*
X1762758D01*
X2014233Y4429757D02*
X2004076D01*
Y4422140D01*
X2009154D01*
X2004076D01*
Y4414522D01*
X2019311D02*
Y4424679D01*
X2024389Y4429757D01*
X2029468Y4424679D01*
Y4414522D01*
Y4422140D01*
X2019311D01*
X2034546Y4414522D02*
Y4429757D01*
X2044703Y4414522D01*
Y4429757D01*
X2065016Y4414522D02*
X2070095D01*
X2067556D01*
Y4429757D01*
X2065016Y4427218D01*
X2087869Y4414522D02*
X2077712D01*
X2087869Y4424679D01*
Y4427218D01*
X2085330Y4429757D01*
X2080251D01*
X2077712Y4427218D01*
X2092947Y4429757D02*
Y4419601D01*
X2098026Y4414522D01*
X2103104Y4419601D01*
Y4429757D01*
X2029471Y3990338D02*
X2019314D01*
Y3982720D01*
X2024392D01*
X2019314D01*
Y3975103D01*
X2034549D02*
Y3985259D01*
X2039627Y3990338D01*
X2044706Y3985259D01*
Y3975103D01*
Y3982720D01*
X2034549D01*
X2049784Y3975103D02*
Y3990338D01*
X2059941Y3975103D01*
Y3990338D01*
X2090411D02*
X2080254D01*
Y3982720D01*
X2085333Y3985259D01*
X2087872D01*
X2090411Y3982720D01*
Y3977642D01*
X2087872Y3975103D01*
X2082793D01*
X2080254Y3977642D01*
X2095489Y3990338D02*
Y3980181D01*
X2100568Y3975103D01*
X2105646Y3980181D01*
Y3990338D01*
X2969262Y4349748D02*
X2966723Y4352288D01*
X2961645D01*
X2959106Y4349748D01*
Y4339592D01*
X2961645Y4337053D01*
X2966723D01*
X2969262Y4339592D01*
Y4344670D01*
X2964184D01*
X2974341Y4337053D02*
X2979419D01*
X2976880D01*
Y4352288D01*
X2974341Y4349748D01*
X2987036Y4337053D02*
X2992115D01*
X2989576D01*
Y4352288D01*
X2987036Y4349748D01*
X2931163Y3783328D02*
X2928624Y3785868D01*
X2923546D01*
X2921006Y3783328D01*
Y3773172D01*
X2923546Y3770633D01*
X2928624D01*
X2931163Y3773172D01*
Y3778250D01*
X2926085D01*
X2936241Y3770633D02*
X2941320D01*
X2938781D01*
Y3785868D01*
X2936241Y3783328D01*
X2959094Y3770633D02*
X2948937D01*
X2959094Y3780789D01*
Y3783328D01*
X2956555Y3785868D01*
X2951476D01*
X2948937Y3783328D01*
X2694943Y3644898D02*
X2692404Y3647437D01*
X2687325D01*
X2684786Y3644898D01*
Y3634742D01*
X2687325Y3632202D01*
X2692404D01*
X2694943Y3634742D01*
Y3639820D01*
X2689865D01*
X2700021Y3632202D02*
X2705099D01*
X2702560D01*
Y3647437D01*
X2700021Y3644898D01*
X2712717D02*
X2715256Y3647437D01*
X2720335D01*
X2722874Y3644898D01*
Y3634742D01*
X2720335Y3632202D01*
X2715256D01*
X2712717Y3634742D01*
Y3644898D01*
X2684781Y4478018D02*
X2682242Y4480558D01*
X2677163D01*
X2674624Y4478018D01*
Y4467862D01*
X2677163Y4465323D01*
X2682242D01*
X2684781Y4467862D01*
Y4472940D01*
X2679702D01*
X2689859Y4467862D02*
X2692398Y4465323D01*
X2697477D01*
X2700016Y4467862D01*
Y4478018D01*
X2697477Y4480558D01*
X2692398D01*
X2689859Y4478018D01*
Y4475479D01*
X2692398Y4472940D01*
X2700016D01*
X3191511Y4488178D02*
X3188972Y4490717D01*
X3183893D01*
X3181354Y4488178D01*
Y4478022D01*
X3183893Y4475482D01*
X3188972D01*
X3191511Y4478022D01*
Y4483100D01*
X3186432D01*
X3196589Y4488178D02*
X3199128Y4490717D01*
X3204207D01*
X3206746Y4488178D01*
Y4485639D01*
X3204207Y4483100D01*
X3206746Y4480561D01*
Y4478022D01*
X3204207Y4475482D01*
X3199128D01*
X3196589Y4478022D01*
Y4480561D01*
X3199128Y4483100D01*
X3196589Y4485639D01*
Y4488178D01*
X3199128Y4483100D02*
X3204207D01*
X3244911Y3658914D02*
X3242372Y3661453D01*
X3237293D01*
X3234754Y3658914D01*
Y3648757D01*
X3237293Y3646218D01*
X3242372D01*
X3244911Y3648757D01*
Y3653835D01*
X3239832D01*
X3249989Y3661453D02*
X3260146D01*
Y3658914D01*
X3249989Y3648757D01*
Y3646218D01*
X3169921Y4014468D02*
X3167382Y4017007D01*
X3162303D01*
X3159764Y4014468D01*
Y4004312D01*
X3162303Y4001772D01*
X3167382D01*
X3169921Y4004312D01*
Y4009390D01*
X3164843D01*
X3185156Y4017007D02*
X3180078Y4014468D01*
X3174999Y4009390D01*
Y4004312D01*
X3177538Y4001772D01*
X3182617D01*
X3185156Y4004312D01*
Y4006851D01*
X3182617Y4009390D01*
X3174999D01*
X2692401Y3905248D02*
X2689862Y3907787D01*
X2684783D01*
X2682244Y3905248D01*
Y3895092D01*
X2684783Y3892552D01*
X2689862D01*
X2692401Y3895092D01*
Y3900170D01*
X2687322D01*
X2707636Y3907787D02*
X2697479D01*
Y3900170D01*
X2702557Y3902709D01*
X2705097D01*
X2707636Y3900170D01*
Y3895092D01*
X2705097Y3892552D01*
X2700018D01*
X2697479Y3895092D01*
X2414271Y4098288D02*
X2411732Y4100828D01*
X2406653D01*
X2404114Y4098288D01*
Y4088132D01*
X2406653Y4085593D01*
X2411732D01*
X2414271Y4088132D01*
Y4093210D01*
X2409193D01*
X2426967Y4085593D02*
Y4100828D01*
X2419349Y4093210D01*
X2429506D01*
X2411731Y4420868D02*
X2409192Y4423408D01*
X2404113D01*
X2401574Y4420868D01*
Y4410712D01*
X2404113Y4408173D01*
X2409192D01*
X2411731Y4410712D01*
Y4415790D01*
X2406653D01*
X2416809Y4420868D02*
X2419348Y4423408D01*
X2424427D01*
X2426966Y4420868D01*
Y4418329D01*
X2424427Y4415790D01*
X2421888D01*
X2424427D01*
X2426966Y4413251D01*
Y4410712D01*
X2424427Y4408173D01*
X2419348D01*
X2416809Y4410712D01*
X2463801Y3729988D02*
X2461262Y3732527D01*
X2456183D01*
X2453644Y3729988D01*
Y3719832D01*
X2456183Y3717292D01*
X2461262D01*
X2463801Y3719832D01*
Y3724910D01*
X2458723D01*
X2479036Y3717292D02*
X2468879D01*
X2479036Y3727449D01*
Y3729988D01*
X2476497Y3732527D01*
X2471418D01*
X2468879Y3729988D01*
X2700020Y4225288D02*
X2697481Y4227827D01*
X2692403D01*
X2689863Y4225288D01*
Y4215132D01*
X2692403Y4212592D01*
X2697481D01*
X2700020Y4215132D01*
Y4220210D01*
X2694942D01*
X2705098Y4212592D02*
X2710177D01*
X2707638D01*
Y4227827D01*
X2705098Y4225288D01*
X1763773Y4151879D02*
X1753616D01*
Y4144261D01*
X1758694D01*
X1753616D01*
Y4136644D01*
X1776469D02*
X1771390D01*
X1768851Y4139183D01*
Y4144261D01*
X1771390Y4146801D01*
X1776469D01*
X1779008Y4144261D01*
Y4141722D01*
X1768851D01*
X1786625Y4146801D02*
X1791704D01*
X1794243Y4144261D01*
Y4136644D01*
X1786625D01*
X1784086Y4139183D01*
X1786625Y4141722D01*
X1794243D01*
X1801860Y4149340D02*
Y4146801D01*
X1799321D01*
X1804400D01*
X1801860D01*
Y4139183D01*
X1804400Y4136644D01*
X1812017Y4151879D02*
Y4136644D01*
Y4144261D01*
X1814556Y4146801D01*
X1819635D01*
X1822174Y4144261D01*
Y4136644D01*
X1834870D02*
X1829791D01*
X1827252Y4139183D01*
Y4144261D01*
X1829791Y4146801D01*
X1834870D01*
X1837409Y4144261D01*
Y4141722D01*
X1827252D01*
X1842487Y4146801D02*
Y4136644D01*
Y4141722D01*
X1845026Y4144261D01*
X1847566Y4146801D01*
X1850105D01*
X1938022Y4277364D02*
X1950718D01*
X1953257Y4279903D01*
Y4284982D01*
X1950718Y4287521D01*
X1938022D01*
X1940562Y4292599D02*
X1938022Y4295139D01*
Y4300217D01*
X1940562Y4302756D01*
X1943101D01*
X1945640Y4300217D01*
Y4297678D01*
Y4300217D01*
X1948179Y4302756D01*
X1950718D01*
X1953257Y4300217D01*
Y4295139D01*
X1950718Y4292599D01*
X1773936Y4574789D02*
Y4562093D01*
X1776475Y4559554D01*
X1781553D01*
X1784093Y4562093D01*
Y4574789D01*
X1789171Y4559554D02*
X1794249D01*
X1791710D01*
Y4574789D01*
X1789171Y4572250D01*
X2144268Y4196588D02*
Y4211823D01*
X2149346Y4206745D01*
X2154425Y4211823D01*
Y4196588D01*
X2159503D02*
Y4206745D01*
X2164581Y4211823D01*
X2169660Y4206745D01*
Y4196588D01*
Y4204206D01*
X2159503D01*
X2174738Y4211823D02*
X2184895Y4196588D01*
Y4211823D02*
X2174738Y4196588D01*
X2189973D02*
X2195052D01*
X2192512D01*
Y4211823D01*
X2189973Y4209284D01*
X2202669Y4196588D02*
X2207747D01*
X2205208D01*
Y4211823D01*
X2202669Y4209284D01*
X2225522Y4211823D02*
X2220443Y4209284D01*
X2215365Y4204206D01*
Y4199127D01*
X2217904Y4196588D01*
X2222982D01*
X2225522Y4199127D01*
Y4201666D01*
X2222982Y4204206D01*
X2215365D01*
X2230600Y4209284D02*
X2233139Y4211823D01*
X2238218D01*
X2240757Y4209284D01*
Y4206745D01*
X2238218Y4204206D01*
X2235678D01*
X2238218D01*
X2240757Y4201666D01*
Y4199127D01*
X2238218Y4196588D01*
X2233139D01*
X2230600Y4199127D01*
X2245835Y4209284D02*
X2248374Y4211823D01*
X2253453D01*
X2255992Y4209284D01*
Y4206745D01*
X2253453Y4204206D01*
X2250914D01*
X2253453D01*
X2255992Y4201666D01*
Y4199127D01*
X2253453Y4196588D01*
X2248374D01*
X2245835Y4199127D01*
X2271227Y4211823D02*
X2261070D01*
Y4196588D01*
X2271227D01*
X2261070Y4204206D02*
X2266149D01*
X2286462Y4211823D02*
X2276305D01*
Y4196588D01*
X2286462D01*
X2276305Y4204206D02*
X2281384D01*
X2301697Y4209284D02*
X2299158Y4211823D01*
X2294079D01*
X2291540Y4209284D01*
Y4199127D01*
X2294079Y4196588D01*
X2299158D01*
X2301697Y4199127D01*
Y4204206D01*
X2296619D01*
X2306775D02*
X2316932D01*
X2311854Y4209284D02*
Y4199127D01*
X1833623Y4644894D02*
X1831084Y4647433D01*
X1826005D01*
X1823466Y4644894D01*
Y4634737D01*
X1826005Y4632198D01*
X1831084D01*
X1833623Y4634737D01*
X1848858Y4647433D02*
X1843779Y4644894D01*
X1838701Y4639815D01*
Y4634737D01*
X1841240Y4632198D01*
X1846319D01*
X1848858Y4634737D01*
Y4637276D01*
X1846319Y4639815D01*
X1838701D01*
X1808481Y4394198D02*
X1805942Y4396737D01*
X1800863D01*
X1798324Y4394198D01*
Y4384042D01*
X1800863Y4381502D01*
X1805942D01*
X1808481Y4384042D01*
X1823716Y4396737D02*
X1813559D01*
Y4389120D01*
X1818638Y4391659D01*
X1821177D01*
X1823716Y4389120D01*
Y4384042D01*
X1821177Y4381502D01*
X1816098D01*
X1813559Y4384042D01*
X2081531Y4276088D02*
X2078992Y4278628D01*
X2073913D01*
X2071374Y4276088D01*
Y4265932D01*
X2073913Y4263393D01*
X2078992D01*
X2081531Y4265932D01*
X2094227Y4263393D02*
Y4278628D01*
X2086609Y4271010D01*
X2096766D01*
D13*
X2178130Y4112200D02*
G03*
X2174950Y4112200I-1590J0D01*
G01*
X1939920Y4446610D02*
G03*
X1939920Y4446610I-1000J0D01*
G01*
X1771060Y4248789D02*
Y4272911D01*
X1792560Y4248789D02*
Y4272911D01*
X1805460Y4273040D02*
X1872460D01*
X1805460Y4241040D02*
X1872460D01*
Y4273040D01*
X1805460Y4241040D02*
Y4273040D01*
X2314530Y4496439D02*
Y4520561D01*
X2293030Y4496439D02*
Y4520561D01*
X2319040Y4581510D02*
X2321540D01*
X2319040Y4595510D02*
X2321540D01*
X2172380Y4496439D02*
Y4520561D01*
X2193880Y4496439D02*
Y4520561D01*
X2275000Y4581510D02*
X2277500D01*
X2275000Y4595510D02*
X2277500D01*
X2230630Y4500010D02*
X2262630D01*
X2230630Y4550010D02*
X2262630D01*
Y4500010D02*
Y4550010D01*
X2230630Y4500010D02*
Y4550010D01*
X1763870Y4492420D02*
Y4514420D01*
X1743870Y4492420D02*
Y4514420D01*
X2186860Y4111560D02*
Y4187880D01*
X2166460D02*
X2186860D01*
X2166460Y4111560D02*
Y4187880D01*
Y4111560D02*
X2175070D01*
X2178250D02*
X2186860D01*
X1841440Y4348760D02*
Y4383760D01*
X2050460Y4285620D02*
Y4309740D01*
X2071960Y4285620D02*
Y4309740D01*
X1828940Y4571010D02*
Y4606010D01*
D14*
X1903440Y4366260D02*
G03*
X1903440Y4366260I-34000J0D01*
G01*
X1890940Y4588510D02*
G03*
X1890940Y4588510I-34000J0D01*
G01*
D15*
X2041538Y4319270D02*
G03*
X2041538Y4319270I-1270J0D01*
G01*
X1959242Y4302633D02*
X2028838D01*
X1959242Y4263009D02*
Y4302633D01*
Y4263009D02*
X2028838D01*
Y4302633D01*
D16*
X1957070Y3618230D02*
G03*
X1982470Y3643630I0J25400D01*
G01*
X1753870D02*
G03*
X1779270Y3618230I25400J0D01*
G01*
Y4126230D02*
G03*
X1753870Y4100830I0J-25400D01*
G01*
X1982470D02*
G03*
X1957070Y4126230I-25400J0D01*
G01*
X2099780Y4534540D02*
Y4617540D01*
X1999780D02*
X2099780D01*
X1999780Y4534540D02*
Y4617540D01*
Y4534540D02*
X2099780D01*
X1779270Y3618230D02*
X1957070D01*
X1753870Y3643630D02*
Y4100830D01*
X1779270Y4126230D02*
X1957070D01*
X1982470Y3643630D02*
Y4100830D01*
X1776720Y4419610D02*
X1929120D01*
X1776720Y4546610D02*
X1929120D01*
Y4419610D02*
Y4546610D01*
X1776720Y4419610D02*
Y4546610D01*
D17*
X2112010Y4151630D02*
X2124710D01*
X2112010Y4130040D02*
X2124710D01*
Y4151630D01*
X2112010Y4130040D02*
Y4151630D01*
Y4179570D02*
X2124710D01*
X2112010Y4157980D02*
X2124710D01*
Y4179570D01*
X2112010Y4157980D02*
Y4179570D01*
X1982470Y4335780D02*
Y4348480D01*
X2004060Y4335780D02*
Y4348480D01*
X1982470D02*
X2004060D01*
X1982470Y4335780D02*
X2004060D01*
M02*
