G04*
G04 #@! TF.GenerationSoftware,Altium Limited,Altium Designer,24.7.2 (38)*
G04*
G04 Layer_Color=32768*
%FSLAX44Y44*%
%MOMM*%
G71*
G04*
G04 #@! TF.SameCoordinates,47DF3F7B-CD24-4F9F-A129-F279A797EA3D*
G04*
G04*
G04 #@! TF.FilePolarity,Positive*
G04*
G01*
G75*
%ADD13C,0.2000*%
%ADD15C,0.1524*%
%ADD17C,0.1000*%
%ADD71C,0.0500*%
G36*
X2030108Y4303903D02*
Y4261739D01*
X2012074D01*
Y4240276D01*
X1976006D01*
Y4261739D01*
X1957972D01*
Y4303903D01*
X1964309D01*
Y4325366D01*
X2023771D01*
Y4303903D01*
X2030108D01*
D02*
G37*
D13*
X1904440Y4366260D02*
G03*
X1834440Y4366260I-35000J0D01*
G01*
D02*
G03*
X1904440Y4366260I35000J0D01*
G01*
X1821940Y4588510D02*
G03*
X1891940Y4588510I35000J0D01*
G01*
D02*
G03*
X1821940Y4588510I-35000J0D01*
G01*
X1774060Y4247789D02*
X1789560D01*
Y4273911D01*
X1774060D02*
X1789560D01*
X1774060Y4247789D02*
Y4273911D01*
X2296030Y4521561D02*
X2311530D01*
X2296030Y4495439D02*
Y4521561D01*
Y4495439D02*
X2311530D01*
Y4521561D01*
X2304790Y4580260D02*
Y4596760D01*
Y4580260D02*
X2335790D01*
Y4596760D01*
X2304790D02*
X2335790D01*
X2175380Y4495439D02*
X2190880D01*
Y4521561D01*
X2175380D02*
X2190880D01*
X2175380Y4495439D02*
Y4521561D01*
X2260750Y4580260D02*
Y4596760D01*
Y4580260D02*
X2291750D01*
Y4596760D01*
X2260750D02*
X2291750D01*
X1745620Y4489920D02*
X1762120D01*
Y4516920D01*
X1745620D02*
X1762120D01*
X1745620Y4489920D02*
Y4516920D01*
X2068960Y4284619D02*
Y4310741D01*
X2053460Y4284619D02*
X2068960D01*
X2053460D02*
Y4310741D01*
X2068960D01*
D15*
X2030108Y4261739D02*
Y4303903D01*
X2012074Y4261739D02*
X2030108D01*
X2012074Y4240276D02*
Y4261739D01*
X1976006Y4240276D02*
X2012074D01*
X1976006D02*
Y4261739D01*
X1957972D02*
X1976006D01*
X1957972D02*
Y4303903D01*
X1964309D01*
Y4325366D01*
X2023771D01*
Y4303903D02*
Y4325366D01*
Y4303903D02*
X2030108D01*
D17*
X1896110Y4252040D02*
Y4262040D01*
X1891110Y4257040D02*
X1901110D01*
X1838960Y4252040D02*
Y4262040D01*
X1833960Y4257040D02*
X1843960D01*
X2246630Y4520010D02*
Y4530010D01*
X2241630Y4525010D02*
X2251630D01*
D71*
X1751370Y3643630D02*
G03*
X1779270Y3615730I27900J0D01*
G01*
X1957070D02*
G03*
X1984970Y3643630I0J27900D01*
G01*
Y4100830D02*
G03*
X1957070Y4128730I-27900J0D01*
G01*
X1779270D02*
G03*
X1751370Y4100830I0J-27900D01*
G01*
X1883610Y4235540D02*
X1908610D01*
X1883610Y4278540D02*
X1908610D01*
X1883610Y4235540D02*
Y4278540D01*
X1908610Y4235540D02*
Y4278540D01*
X1802960Y4300540D02*
X1874960D01*
X1802960Y4213540D02*
X1874960D01*
Y4300540D01*
X1802960Y4213540D02*
Y4300540D01*
X2102280Y4532040D02*
Y4620040D01*
X1997280D02*
X2102280D01*
X1997280Y4532040D02*
Y4620040D01*
Y4532040D02*
X2102280D01*
X2205130Y4495010D02*
X2288130D01*
X2205130Y4555010D02*
X2288130D01*
Y4495010D02*
Y4555010D01*
X2205130Y4495010D02*
Y4555010D01*
X1779270Y3615730D02*
X1957070D01*
X1984970Y3643630D02*
Y4100830D01*
X1779270Y4128730D02*
X1957070D01*
X1751370Y3643630D02*
Y4100830D01*
X1934170Y4414510D02*
Y4551710D01*
X1771670D02*
X1934170D01*
X1771670Y4414510D02*
Y4551710D01*
Y4414510D02*
X1934170D01*
M02*
